STARTFONT 2.1
COMMENT
COMMENT Converted from OpenType font "RuthlessSketch_Regular.ttf" by "otf2bdf 3.0".
COMMENT
FONT -FreeType-Ruthless Sketch-Medium-R-Normal--55-400-100-100-P-274-ISO10646-1
SIZE 40 100 100
FONTBOUNDINGBOX 65 62 -25 -11
STARTPROPERTIES 19
FOUNDRY "FreeType"
FAMILY_NAME "Ruthless Sketch"
WEIGHT_NAME "Medium"
SLANT "R"
SETWIDTH_NAME "Normal"
ADD_STYLE_NAME ""
PIXEL_SIZE 55
POINT_SIZE 400
RESOLUTION_X 100
RESOLUTION_Y 100
SPACING "P"
AVERAGE_WIDTH 274
CHARSET_REGISTRY "ISO10646"
CHARSET_ENCODING "1"
FONT_ASCENT 52
FONT_DESCENT 11
COPYRIGHT "© 2024 GGBotNet. All Rights Reserved."
_OTF_FONTFILE "RuthlessSketch_Regular.ttf"
_OTF_PSNAME "RuthlessSketch-Regular"
ENDPROPERTIES
CHARS 1105
STARTCHAR 0020
ENCODING 32
SWIDTH 306 0
DWIDTH 17 0
BBX 0 0 0 0
BITMAP
ENDCHAR
STARTCHAR 0021
ENCODING 33
SWIDTH 288 0
DWIDTH 16 0
BBX 15 42 1 -1
BITMAP
3FFC
FFFE
FFFC
FFFC
FFFC
FFFC
FFF8
FFF8
FFF8
FFF8
7FF8
7FF0
7FF0
7FF0
7FF0
7FF0
7FF0
3FF0
3FF0
3FF0
3FE0
3FE0
3FE0
3FE0
1FE0
1FE0
1FC0
0F80
0000
0000
0000
0180
0FE0
1FF0
3FF0
3FF0
3FF0
1FF0
1FF0
1FF0
0FE0
0380
ENDCHAR
STARTCHAR 0022
ENCODING 34
SWIDTH 396 0
DWIDTH 22 0
BBX 20 20 1 20
BITMAP
7F07E0
FF0FF0
FF0FF0
FF0FF0
FF0FF0
FF0FF0
FF0FF0
FF0FF0
FF0FF0
FF0FE0
7F07E0
7E07E0
7E07E0
7E07E0
3E03E0
3C03C0
3C03C0
3C03C0
1C03C0
1C0180
ENDCHAR
STARTCHAR 0023
ENCODING 35
SWIDTH 504 0
DWIDTH 28 0
BBX 27 39 1 0
BITMAP
00000200
007E07C0
007E07C0
007E07C0
00FE0F80
00FE0F80
00FE0F80
00FC1F80
00FC1F00
01FC1F00
7FFFFFE0
FFFFFFE0
FFFFFFE0
FFFFFFE0
FFFFFFE0
FFFFFFE0
FFFFFFE0
13F0FC00
07F0FC00
07E0FC00
07E1F800
07FFFFE0
FFFFFFE0
FFFFFFE0
FFFFFFE0
FFFFFFE0
FFFFFFE0
FFFFFFE0
FFFFF000
1F07E000
1F07E000
3E0FE000
3E0FE000
3E0FE000
7C0FC000
7C0FC000
7C1FC000
780FC000
08000000
ENDCHAR
STARTCHAR 0024
ENCODING 36
SWIDTH 504 0
DWIDTH 28 0
BBX 26 51 1 -6
BITMAP
007F0000
007F8000
007F8000
007F8000
007F8000
007F0000
007F0000
007FF000
01FFFC00
07FFFF00
0FFFFF80
3FFFFFC0
3FFFFFC0
3FFFFFC0
7FFFFFC0
7FFFFFC0
7FFFCFC0
7FFF8380
7FFF8000
3FFF8000
3FFF8000
3FFF8000
1FFF8000
1FFFF800
0FFFFC00
03FFFC00
007FFE00
007FFE00
007FFF00
007FFF00
007FFF00
387FFF80
3FFFFF00
7FFFFF00
7FFFFF00
7FFFFF00
7FFFFE00
7FFFFE00
FFFFFC00
FFFFFC00
FFFFFC00
FFFFF800
FFFFF000
7FFFC000
007F8000
007F8000
007F8000
007F8000
007F8000
007F0000
003F0000
ENDCHAR
STARTCHAR 0025
ENCODING 37
SWIDTH 558 0
DWIDTH 31 0
BBX 30 39 1 0
BITMAP
00000200
000003C0
0F8007E0
1FC00FE0
3FE00FC0
7FF01FC0
7DF81F80
F8F83F80
F0783F00
F0787F00
F0787E00
F078FE00
F8F8FC00
F8F9FC00
7FF3F800
7FF3F000
3FE7F000
0F87E000
000FE000
001FC000
001F8FC0
003F9FE0
003F3FF0
007F7FF0
007E7CF8
00FC7878
01FCF87C
01F8F87C
03F8F87C
03F0F87C
07E07878
0FE07CF8
0FC07FF8
1F803FF0
1F801FE0
3F000780
3E000000
1E000000
04000000
ENDCHAR
STARTCHAR 0026
ENCODING 38
SWIDTH 504 0
DWIDTH 28 0
BBX 27 37 1 1
BITMAP
03FC0000
0FFF0000
1FFF0000
3FFF8000
3FFF8000
3FFF8000
3F1F8000
3F1F8000
3F1F8000
3F1F8000
3FFF0000
1FFF0000
1FFE0000
0FFE0000
0FFE1F80
1FFF1F80
3FFF9F80
3FFF9F80
7FFFDF80
7F9FFF00
7F1FFF00
FF0FFF00
FF07FF00
FF03FE00
FF01FE00
FF00FF00
FF00FF80
FF81FF80
FFFFFFC0
FFFFFFC0
7FFFFFE0
7FFFFFE0
3FFFFBE0
1FFFF1E0
0FFFF0E0
03FFC040
007E0040
ENDCHAR
STARTCHAR 0027
ENCODING 39
SWIDTH 198 0
DWIDTH 11 0
BBX 10 20 1 21
BITMAP
FF80
FF80
FFC0
FFC0
FFC0
FFC0
FFC0
FFC0
FFC0
FF80
FF80
7F80
7F80
7F00
3F00
3F00
3E00
1E00
1E00
1C00
ENDCHAR
STARTCHAR 0028
ENCODING 40
SWIDTH 342 0
DWIDTH 19 0
BBX 18 53 1 -8
BITMAP
001800
003C00
007F00
007FC0
00FF80
01FF00
03FF00
03FC00
07F800
0FF000
0FE000
1FE000
3FC000
3FC000
3F8000
7F0000
7F0000
7E0000
FE0000
FE0000
FE0000
FE0000
FE0000
FE0000
FE0000
FE0000
FE0000
FE0000
FE0000
FE0000
FE0000
FE0000
FE0000
FE0000
FE0000
7E0000
7F0000
3F0000
3F8000
3F8000
1FC000
1FE000
0FE000
0FF000
07F000
03FC00
03FE00
01FF00
00FF80
007F80
003F00
003E00
001800
ENDCHAR
STARTCHAR 0029
ENCODING 41
SWIDTH 342 0
DWIDTH 19 0
BBX 18 53 1 -8
BITMAP
0C0000
1E0000
7F0000
FF8000
7FC000
3FC000
1FE000
0FF000
03F000
03F800
01F800
01FC00
01FC00
00FE00
007E00
003F00
003F00
003F80
003F80
003F80
003F80
003FC0
003F80
003F80
003F80
003F80
003F80
003F80
001FC0
001F80
001FC0
001FC0
001F80
001F80
003F80
003F80
003F00
007F00
007F00
00FE00
01FE00
01FC00
01FC00
03F800
07F800
1FF000
3FE000
3FC000
7FC000
FF8000
7F0000
1E0000
060000
ENDCHAR
STARTCHAR 002A
ENCODING 42
SWIDTH 324 0
DWIDTH 18 0
BBX 16 17 1 24
BITMAP
0380
0380
0380
738E
FB9F
7FFE
1FF8
0FF0
07E0
0FF0
1FF8
7FBE
FB9F
738E
0380
0380
0380
ENDCHAR
STARTCHAR 002B
ENCODING 43
SWIDTH 468 0
DWIDTH 26 0
BBX 25 25 1 7
BITMAP
007F0000
007F0000
007F0000
007F0000
007F0000
007F0000
007F0000
007F0000
7F7FFF80
FFFFFF80
FFFFFF80
FFFFFF80
FFFFFF80
FFFFFF80
FFFFFF80
FFFFFF80
107F0000
007F0000
007F0000
007F0000
00FF0000
00FF0000
00FF0000
00FF0000
007F0000
ENDCHAR
STARTCHAR 002C
ENCODING 44
SWIDTH 198 0
DWIDTH 11 0
BBX 13 19 -2 -9
BITMAP
01C0
0FE0
0FF0
1FF0
1FF8
1FF8
1FF8
0FF8
0FF0
07F0
03E0
07C0
3FC0
7F80
FF80
7F00
3F00
1E00
0600
ENDCHAR
STARTCHAR 002D
ENCODING 45
SWIDTH 378 0
DWIDTH 21 0
BBX 20 9 1 15
BITMAP
FFFFE0
FFFFF0
FFFFF0
FFFFF0
FFFFF0
FFFFF0
FFFFF0
FFFFF0
0007C0
ENDCHAR
STARTCHAR 002E
ENCODING 46
SWIDTH 198 0
DWIDTH 11 0
BBX 10 10 1 0
BITMAP
1C00
3F80
7FC0
FFC0
FFC0
FFC0
FFC0
FFC0
7F80
3F00
ENDCHAR
STARTCHAR 002F
ENCODING 47
SWIDTH 450 0
DWIDTH 25 0
BBX 23 45 1 -3
BITMAP
000040
0000E2
0000FE
0001FE
0001FE
0003FC
0003FC
0007FC
0007F8
000FF8
000FF0
000FF0
001FF0
001FE0
003FE0
003FE0
007FC0
007FC0
007FC0
00FF80
00FF80
01FF80
01FF00
01FF00
03FF00
03FE00
07FE00
07FE00
0FFE00
0FFC00
0FFC00
1FFC00
1FF800
1FF800
3FF800
3FF000
3FF000
7FF000
7FE000
7FE000
FFE000
FFE000
FFC000
FFC000
FF8000
ENDCHAR
STARTCHAR 0030
ENCODING 48
SWIDTH 396 0
DWIDTH 22 0
BBX 20 39 1 0
BITMAP
01C000
07F000
0FF800
1FF800
3FFC00
3FFE00
3FFF00
3FFF80
3FFFC0
7FFFC0
7FFFE0
7FFFE0
7FDFE0
FF8FF0
FF8FF0
FF07F0
FF07F0
FF07F0
FF07F0
FF03F0
FF07F0
FF07F0
FF87F0
FF8FF0
FFFFF0
7FFFF0
7FFFF0
7FFFF0
3FFFF0
3FFFE0
1FFFE0
1FFFE0
1FFFE0
0FFFC0
0FFFC0
07FF80
03FF80
00FF00
007E00
ENDCHAR
STARTCHAR 0031
ENCODING 49
SWIDTH 414 0
DWIDTH 23 0
BBX 22 37 1 1
BITMAP
001E00
003FC0
007FC0
01FFE0
07FFE0
1FFFE0
3FFFE0
7FFFE0
FFFFE0
7FBFE0
3F7FE0
1F7FE0
0F7FE0
067FE0
007FE0
007FE0
007FE0
00FFE0
00FFE0
00FFE0
00FFF0
00FFF0
00FFF0
00FFF0
01FFF0
01FFF0
01FFF0
01FFF0
01FFF0
01FFF0
01FFF8
01FFF8
03FFF8
03FFF8
01FFF8
003FFC
000030
ENDCHAR
STARTCHAR 0032
ENCODING 50
SWIDTH 504 0
DWIDTH 28 0
BBX 27 38 1 1
BITMAP
00400000
01FC0000
07FF0000
0FFFC000
1FFFF000
3FFFF000
7FFFF000
FFFFF800
FFFFF800
7FFFF000
7F97F000
3E07F800
1C07F800
0807F800
0007F000
0007F000
000FF000
000FE000
001FE000
001FC000
001FC000
003FC000
003F8040
007FDFE0
007FFFE0
00FFFFC0
01FFFFC0
01FFFFC0
03FFFFC0
03FFFF80
07FFFF80
0FFFFF80
0FFFFF80
3FFFFF80
7FFFFF00
3FFFFE00
1FFFE000
01FF0000
ENDCHAR
STARTCHAR 0033
ENCODING 51
SWIDTH 468 0
DWIDTH 26 0
BBX 24 38 1 0
BITMAP
00C000
1FFE00
7FFF00
7FFF00
7FFF00
3FFF00
1F7F00
007E00
00FE00
00FE00
01FC00
03FC00
03F800
07FF80
0FFFE0
0FFFF8
1FFFFC
1FFFFC
1FFFFE
07FFFE
0001FE
0000FE
00007F
00007F
00003F
00007F
00007F
00007F
0000FF
C003FF
FC1FFE
FFFFFE
FFFFFC
7FFFFC
3FFFF8
07FFF0
03FFC0
007F00
ENDCHAR
STARTCHAR 0034
ENCODING 52
SWIDTH 432 0
DWIDTH 24 0
BBX 23 39 1 -1
BITMAP
007800
03F800
07F800
07F800
07F800
07F000
0FF000
0FF000
0FE000
0FE000
1FE000
1FE000
1FC000
3FC000
3FC7FC
3FFFFC
3FFFFC
7FFFFE
7FFFFE
7FFFFE
7FFFFE
FFFFF8
FFFFC0
F01F80
003F80
003F80
003F80
007F80
007F80
007F80
00FFC0
00FFC0
00FFC0
01FFC0
01FFC0
01FFC0
03FFE0
03FFC0
030000
ENDCHAR
STARTCHAR 0035
ENCODING 53
SWIDTH 486 0
DWIDTH 27 0
BBX 25 38 1 0
BITMAP
0007FC00
07FFFE00
07FFFE00
07FFFE00
07FFFC00
07FFF000
07FC0000
07F80000
07F80000
0FF80000
0FFC0000
0FFF8000
0FFFC000
0FFFE000
1FFFF000
1FFFF800
3FFFFC00
381FFC00
000FFE00
0007FF00
0003FF00
0003FF80
0001FF80
0001FF80
0001FF80
0000FF80
0000FF80
C001FF80
C001FF80
E003FF00
FC07FF00
FFFFFF00
7FFFFE00
7FFFFC00
7FFFFC00
1FFFF800
03FFF000
007FC000
ENDCHAR
STARTCHAR 0036
ENCODING 54
SWIDTH 486 0
DWIDTH 27 0
BBX 26 39 1 0
BITMAP
0003F000
000FF800
003FFC00
007FFE00
00FFFE00
03FFFE00
07FFFC00
07FC0000
0FF00000
1FE00000
1FE00000
3FC00000
7FC00000
7FE00000
7FFF0000
7FFFE000
FFFFF000
FFFFF800
FFFFFC00
FFFFFE00
FFFFFF00
FFE3FF80
FFC0FF80
FFC0FF80
FF807F80
FF807FC0
FF807FC0
7F807FC0
7F807FC0
7F807FC0
7F80FF80
3FC0FF80
3FE1FF80
3FFFFF00
1FFFFE00
0FFFFC00
07FFFC00
01FFF000
007FC000
ENDCHAR
STARTCHAR 0037
ENCODING 55
SWIDTH 414 0
DWIDTH 23 0
BBX 22 37 1 1
BITMAP
000078
7FFFFC
FFFFF8
FFFFF8
FFFFF8
FFFFF8
FFFFF8
FFFFF8
FFFFF8
FFFFF8
E007F8
C00FF8
001FF8
001FF8
003FF0
003FF0
007FF0
007FE0
00FFE0
00FFE0
01FFE0
03FFC0
03FFC0
07FFC0
07FF80
0FFF80
0FFF80
1FFF80
1FFF00
3FFF00
3FFF00
7FFF00
7FFF00
7FFF00
FFFE00
FF8000
E00000
ENDCHAR
STARTCHAR 0038
ENCODING 56
SWIDTH 486 0
DWIDTH 27 0
BBX 26 39 1 0
BITMAP
003F8000
01FFC000
03FFE000
07FFF000
0FFFF000
0FFFF000
0FFFF000
0FE1F000
0FE3F800
0FE3F000
0FF7F000
07FFE000
07FFC000
07FFE000
0FFFE000
0FFFF000
1FFFF800
1FFFFC00
3FFFFE00
3FFFFE00
7FE7FF00
7FC1FF00
7F80FF80
FF807F80
FF807FC0
FF807FC0
FF807FC0
FFC07FC0
7FE07FC0
7FF1FFC0
7FFFFFC0
7FFFFF80
3FFFFF80
3FFFFF00
1FFFFF00
0FFFFE00
03FFFC00
00FFF000
001FC000
ENDCHAR
STARTCHAR 0039
ENCODING 57
SWIDTH 450 0
DWIDTH 25 0
BBX 24 37 1 0
BITMAP
0FFF80
1FFFF0
3FFFF8
7FFFFC
7FFFFC
7FFFFE
7F07FE
7F01FE
FF01FE
FF01FF
FF01FF
FF01FF
FF01FF
FF83FF
FFDFFF
FFFFFF
7FFFFF
3FFFFF
1FFFFF
0FFFFF
003FFF
0000FF
0000FF
0000FE
0000FE
0000FE
7001FE
7C03FE
3F9FFE
3FFFFE
3FFFFC
3FFFFC
3FFFFC
3FFFF8
0FFFF0
03FFE0
001000
ENDCHAR
STARTCHAR 003A
ENCODING 58
SWIDTH 198 0
DWIDTH 11 0
BBX 10 27 1 0
BITMAP
3F00
FF80
FF80
FFC0
FFC0
FFC0
FFC0
7F80
7F00
1C00
0000
0000
0000
0000
0000
0000
0000
0E00
3F00
7F80
FFC0
FFC0
FFC0
FFC0
7FC0
7F80
3F00
ENDCHAR
STARTCHAR 003B
ENCODING 59
SWIDTH 198 0
DWIDTH 11 0
BBX 13 36 -2 -9
BITMAP
07E0
0FF0
0FF8
1FF8
1FF8
1FF8
1FF8
0FF0
07F0
01C0
0000
0000
0000
0000
0000
0000
0000
01C0
0FE0
0FF0
1FF0
1FF8
1FF8
1FF8
0FF8
0FF0
07F0
03E0
07C0
3FC0
7F80
FF80
7F00
3F00
1E00
0600
ENDCHAR
STARTCHAR 003C
ENCODING 60
SWIDTH 468 0
DWIDTH 26 0
BBX 25 31 1 4
BITMAP
00000300
00000F00
00003F00
0000FF80
0001FF80
0007FF80
001FFF80
007FFF80
01FFFF80
07FFFF00
3FFFFF00
FFFFFF00
FFFFF000
FFFE0000
FFF00000
FFC00000
FFFC0000
FFFF8000
7FFFF000
1FFFFE00
0FFFFF00
03FFFF00
01FFFF00
007FFF00
003FFF00
000FFF00
0007FF00
0001FF00
0000FF80
00003F80
00000700
ENDCHAR
STARTCHAR 003D
ENCODING 61
SWIDTH 468 0
DWIDTH 26 0
BBX 25 21 1 9
BITMAP
0000E000
FFFFFF80
FFFFFF80
FFFFFF80
FFFFFF80
FFFFFF80
FFFFFF80
FFFFFF80
3F000000
00000000
00000000
00000000
0000FE00
FFFFFF80
FFFFFF80
FFFFFF80
FFFFFF80
FFFFFF80
FFFFFF80
FFFFFF00
06C00000
ENDCHAR
STARTCHAR 003E
ENCODING 62
SWIDTH 468 0
DWIDTH 26 0
BBX 25 31 1 4
BITMAP
C0000000
FC000000
FF000000
FFC00000
FFE00000
7FF80000
7FFC0000
7FFF0000
7FFF8000
7FFFE000
7FFFF000
7FFFF800
0FFFFE00
01FFFF00
003FFF80
0003FF80
0007FF80
003FFF80
03FFFF80
FFFFFF00
FFFFFE00
FFFFF000
FFFFC000
FFFF0000
FFFC0000
FFF00000
FFC00000
FF800000
FE000000
F8000000
60000000
ENDCHAR
STARTCHAR 003F
ENCODING 63
SWIDTH 450 0
DWIDTH 25 0
BBX 24 40 1 -1
BITMAP
01F000
0FFFF0
1FFFFC
3FFFFE
7FFFFE
7FFFFE
FFFFFF
FFFFFF
FFFFFF
FF03FF
7C01FF
3801FF
0001FF
0001FF
0001FF
0003FE
000FFE
003FFE
01FFFC
01FFF8
03FFE0
03FFC0
03FF00
03FE00
03FE00
03FC00
03FC00
03FC00
000000
000000
000000
003800
01FC00
03FE00
07FE00
07FE00
07FE00
03FE00
01FC00
00F800
ENDCHAR
STARTCHAR 0040
ENCODING 64
SWIDTH 648 0
DWIDTH 36 0
BBX 35 48 1 -8
BITMAP
0003FF0000
003FFFC000
00FFFFF000
03FFFFF800
07FFFFFC00
0FFFFFFE00
0FFFFFFF00
1FFFFFFF00
1FFFFFFF00
3FFFFFFF80
3FFFFFFF80
7FFC01FF80
7FF000FFC0
7FE000FFC0
7FC00FFFC0
FFC07FFFC0
FF80FFFFE0
FF81FFFFE0
FF83FFFFE0
FF87FC3FE0
FF87F83FE0
FF87F01FE0
FF87F01FE0
FF87E01FE0
FF87E01FE0
FF87F01FE0
FF87F07FE0
FF87F8FFC0
FF87FFFFC0
FF83FFFF80
FFC3FFFF00
FFC1FFFE00
7FC0FFFC00
7FC03FE000
7FE0020000
7FE0000000
7FF0000800
3FF8007C00
3FFFFFFE00
3FFFFFFE00
1FFFFFFF00
1FFFFFFF00
0FFFFFFE00
0FFFFFFC00
07FFFFF800
03FFFFF000
00FFFFC000
000FFF0000
ENDCHAR
STARTCHAR 0041
ENCODING 65
SWIDTH 630 0
DWIDTH 35 0
BBX 33 39 1 -1
BITMAP
0000100000
0001F80000
0001F80000
0003F80000
0003FC0000
0003FC0000
0007FC0000
0007FC0000
000FFE0000
000FFE0000
000FFE0000
001FFE0000
001FFF0000
001FFF0000
003FFF0000
003FFF8000
007FFF8000
007FFF8000
00FFFFC000
00FFFFC000
00FDFFC000
01F8FFC000
01F87FE000
03F07FE000
03E07FE000
07E07FF000
07FFFFF000
0FFFFFF800
0FFFFFF800
0FFFFFF800
1FFE7FFC00
1FF03FFC00
3FE03FFE00
3FE03FFE00
7FE03FFF00
7FE01FFF00
7FC01FFF80
FFE01FFF80
FF000C0000
ENDCHAR
STARTCHAR 0042
ENCODING 66
SWIDTH 504 0
DWIDTH 28 0
BBX 27 38 1 0
BITMAP
0FFC0000
7FFFC000
FFFFE000
FFFFF000
FFFFF000
FFFFF800
FFFFFC00
FFFFFC00
7FEFFC00
7FC3FC00
7FC1FC00
7FC1FC00
3FC1FC00
3FE1FC00
3FE1F800
3FF3F800
3FFFF000
3FFFE000
3FFFF800
3FFFFE00
3FFFFF00
3FFFFF80
3FFFFFC0
1FF83FC0
1FF83FE0
1FF83FE0
1FF87FE0
1FF87FE0
1FF8FFE0
1FFDFFE0
1FFFFFC0
0FFFFFC0
0FFFFF80
0FFFFF00
0FFFFE00
0FFFF800
0FFF8000
00800000
ENDCHAR
STARTCHAR 0043
ENCODING 67
SWIDTH 486 0
DWIDTH 27 0
BBX 26 38 1 0
BITMAP
0007C000
003FF800
00FFFE00
07FFFF00
0FFFFF80
1FFFFFC0
1FFFFF80
3FFFFF80
7FFFFF80
7FFFFF80
7FFFFF80
FFFE0000
FFF80000
FFF00000
FFF00000
FFE00000
FFE00000
FFE00000
FFE00000
FFE00000
FFF00000
FFFC1F80
FFFFFF80
FFFFFF80
FFFFFF80
7FFFFF80
7FFFFF80
7FFFFF80
3FFFFF80
3FFFFF80
1FFFFF80
1FFFFF80
0FFFFF00
0FFFFE00
07FFFC00
01FFF800
007FE000
00010000
ENDCHAR
STARTCHAR 0044
ENCODING 68
SWIDTH 450 0
DWIDTH 25 0
BBX 24 38 1 0
BITMAP
3FC000
7FF800
FFFE00
FFFF80
FFFFC0
FFFFE0
FFFFF0
FFFFF8
FFFFF8
FFFFFC
FFE7FC
FFE1FE
FFC0FE
FFC07F
FFC0FF
7FC0FF
7FC0FF
7FE0FF
7FE0FF
7FE1FE
7FE3FE
7FE7FC
3FEFFC
3FFFF8
3FFFF8
3FFFF0
3FFFF0
1FFFE0
1FFFE0
1FFFC0
1FFF80
1FFF00
0FFF00
0FFC00
0FF800
0FE000
078000
040000
ENDCHAR
STARTCHAR 0045
ENCODING 69
SWIDTH 486 0
DWIDTH 27 0
BBX 26 39 1 0
BITMAP
03FC0000
1FFFF000
7FFFF000
FFFFF000
FFFFF000
7FFFE000
7FFFE000
7FFFE000
7FFFE000
3FFFE000
3FFFE000
3FFFC000
3FF00000
3FE00000
3FF00000
1FF00000
1FF3E000
1FFFC000
1FFFC000
1FFFC000
1FFFE000
0FFFE000
0FF80000
0FF80000
0FFC0600
0FFFFF00
0FFFFF00
07FFFF00
07FFFF00
07FFFF80
07FFFF80
07FFFF80
07FFFF80
07FFFF80
07FFFFC0
07FFFE00
03FFE000
03FE0000
03C00000
ENDCHAR
STARTCHAR 0046
ENCODING 70
SWIDTH 504 0
DWIDTH 28 0
BBX 26 39 1 0
BITMAP
0007FF00
0FFFFF80
7FFFFF80
FFFFFF80
FFFFFFC0
FFFFFFC0
FFFFFFC0
FFFFFFC0
FFFFE1C0
FFF00000
FFE00000
FFC00000
FFC00000
FFC00000
FFC60000
FFFF8000
FFFF0000
FFFF0000
FFFF0000
FFFF0000
FFFF0000
FFFF0000
FFE10000
FFC00000
FFC00000
FFC00000
FFC00000
FFC00000
FFC00000
FFC00000
FFC00000
FFC00000
FFC00000
FFC00000
7FE00000
7FE00000
7FE00000
7FF00000
7E000000
ENDCHAR
STARTCHAR 0047
ENCODING 71
SWIDTH 504 0
DWIDTH 28 0
BBX 26 37 1 1
BITMAP
003FE000
007FF800
00FFFE00
01FFFF00
03FFFF80
03FFFF80
07FFFF80
0FFFFF80
0FFE7F00
0FF00000
1FE00000
1FC00000
1FC00000
3FC00000
3F800000
3F800000
3F807FC0
7F03FFC0
7F07FFC0
7F03FFC0
7F03FFC0
7F83FFC0
FF81FFC0
FF81FFC0
FF81FFC0
FFC3FFC0
FFFFFFC0
FFFFFFC0
FFFFFFC0
FFFFFFC0
FFFFFF80
7FFFFF00
7FFFFC00
3FFFF000
1FFFE000
0FFF8000
03FC0000
ENDCHAR
STARTCHAR 0048
ENCODING 72
SWIDTH 558 0
DWIDTH 31 0
BBX 29 37 1 1
BITMAP
000C0000
03FF0000
1FFE07F8
1FFC0FF8
1FFC0FF8
0FFE1FF8
0FFE0FF8
0FFE0FF8
0FFE1FF8
1FFC1FF8
1FFC1FF8
1FFC1FF8
1FFE1FF8
1FFE1FF8
1FFF3FF8
1FFFFFF0
1FFFFFF0
1FFFFFF0
3FFFFFF0
3FFFFFF0
3FFFFFF0
3FFFFFF8
3FFFFFF8
3FFFFFF8
3FFFFFF8
3FFD3FF8
3FFC3FF8
3FFC7FF0
3FFC3FF0
3FF83FF0
7FFC7FF0
7FF87FF0
7FF87FF0
7FFC7FF0
7FF83FF0
FFF87FE0
FFF87C00
ENDCHAR
STARTCHAR 0049
ENCODING 73
SWIDTH 324 0
DWIDTH 18 0
BBX 17 37 1 1
BITMAP
07FF80
0FFF80
0FFF00
0FFF00
0FFF00
0FFF00
0FFE00
0FFE00
0FFE00
1FFE00
1FFE00
1FFE00
1FFE00
1FFE00
1FFE00
1FFE00
1FFE00
1FFE00
1FFE00
1FFE00
3FFE00
3FFE00
3FFE00
3FFE00
3FFE00
3FFE00
3FFE00
3FFE00
3FFE00
3FFE00
3FFC00
3FFC00
3FFC00
7FFC00
7FF800
7FE000
FC0000
ENDCHAR
STARTCHAR 004A
ENCODING 74
SWIDTH 450 0
DWIDTH 25 0
BBX 24 38 1 0
BITMAP
00000C
001FFC
001FFE
003FFE
003FFE
003FFE
003FFE
003FFE
007FFE
007FFE
007FFE
007FFE
007FFE
007FFE
007FFF
007FFF
007FFF
007FFF
003FFF
003FFF
003FFF
001FFF
001FFF
001FFE
001FFE
070FFE
FF0FFE
FF8FFE
FFCFFE
FFDFFC
FFEFFC
FFFFF8
7FFFF8
3FFFF0
3FFFE0
1FFFC0
07FF00
00FE00
ENDCHAR
STARTCHAR 004B
ENCODING 75
SWIDTH 540 0
DWIDTH 30 0
BBX 29 39 1 0
BITMAP
00000100
00860700
FFFE0F80
7FFE1FC0
7FFE1FF8
7FFE3FF8
7FFE7FF0
7FFE7FE0
7FFEFFC0
7FFEFFC0
7FFEFF80
7FFFFF00
FFFFFE00
FFFFFE00
FFFFFC00
FFFFFC00
FFFFF800
FFFFF800
FFFFF000
FFFFE000
FFFFC000
FFFFE000
FFFFF000
FFFFF800
FFFFFC00
FFFFFC00
FFFFFE00
FFFFFF00
FFFFFF80
FFFEFFC0
FFFC7FC0
FFFC7FE0
FFFC3FE0
FFFC3FF0
FFFC1FF0
FFFE0FF8
FFFE0F98
FFFC0F00
00700600
ENDCHAR
STARTCHAR 004C
ENCODING 76
SWIDTH 504 0
DWIDTH 28 0
BBX 26 39 1 -1
BITMAP
003FC000
03FFE000
07FFE000
07FFE000
0FFFE000
0FFFE000
0FFFC000
0FFFC000
0FFFC000
0FFFC000
0FFFC000
0FFFC000
0FFF8000
0FFF8000
0FFF8000
0FFF8000
1FFF8000
1FFF8000
1FFF0000
1FFF0000
1FFF0000
3FFF0000
3FFF0000
3FFF0000
3FFF0000
3FFF0000
3FFF0F80
3FFFFFC0
3FFFFFC0
7FFFFFC0
3FFFFFC0
7FFFFFC0
7FFFFFC0
7FFFFFC0
7FFFFFC0
7FFFFFC0
7FFFFC00
7FE00000
E0000000
ENDCHAR
STARTCHAR 004D
ENCODING 77
SWIDTH 648 0
DWIDTH 36 0
BBX 34 38 1 0
BITMAP
0700000000
0700003800
0780007C00
07C000FC00
07C000FC00
07E001FC00
0FF001FC00
0FF003FC00
0FF803FE00
0FFC07FE00
0FFC07FE00
0FFE0FFE00
1FFE0FFE00
1FFF1FFF00
1FFFBFFF00
1FFFFFFF00
1FFFFFFF00
1FFFFFFF00
1FFFFFFF00
1FFFFFFF00
3FFFFFFF00
3FFFFFFF00
3FFCF7FF00
3FFC77FF00
3FF877FF80
3FF807FF80
7FF007FF80
7FF007FF80
7FF007FF80
7FE007FF80
7FE00FFF80
7FE00FFFC0
7FE00FFFC0
FFC00FFFC0
FFC00FFFC0
FFC00FFFC0
FF8007FE00
FB80000000
ENDCHAR
STARTCHAR 004E
ENCODING 78
SWIDTH 558 0
DWIDTH 31 0
BBX 30 37 1 0
BITMAP
03E003F0
0FFE1FF8
1FFE1FFC
1FFE1FFC
1FFE1FF8
1FFE1FF8
1FFE1FF8
1FFE1FF8
3FFE1FF8
3FFE1FF8
3FFF3FF8
3FFF1FF8
3FFF1FF8
3FFF1FF0
3FFFBFF0
7FFFBFF0
7FFFBFF0
7FFFBFF0
7FFFFFF0
7FFFFFF0
7FFFFFF0
7FFFFFF0
7FF7FFF0
7FF7FFF0
7FF7FFE0
7FF3FFE0
7FF3FFE0
7FF1FFE0
7FF1FFE0
7FE1FFE0
FFE0FFE0
FFE0FFE0
FFE0FFE0
FFE0FFE0
FFE0FFE0
FFC07FC0
F0000000
ENDCHAR
STARTCHAR 004F
ENCODING 79
SWIDTH 522 0
DWIDTH 29 0
BBX 28 39 1 0
BITMAP
00700000
00FC0000
01FF0000
03FFC000
07FFE000
07FFF800
0FFFFC00
0FFFFC00
1FFFFE00
1FFFFF00
1FFFFF00
3FFFFF80
3FFFFF80
7FFFFFC0
7FFFFFC0
7FF0FFE0
FFE07FE0
FFE07FE0
FFC07FF0
FFC07FF0
FFC07FF0
FFC07FF0
FFE07FF0
FFF0FFF0
FFF9FFF0
7FFFFFF0
7FFFFFE0
7FFFFFE0
7FFFFFE0
3FFFFFE0
3FFFFFE0
3FFFFFC0
1FFFFFC0
1FFFFFC0
0FFFFF80
07FFFF80
03FFFE00
00FFFC00
003FF000
ENDCHAR
STARTCHAR 0050
ENCODING 80
SWIDTH 486 0
DWIDTH 27 0
BBX 26 38 1 0
BITMAP
01FE0000
1FFFC000
3FFFF000
3FFFFC00
3FFFFC00
3FFFFE00
3FFFFE00
3FFFFF00
3FF7FF00
3FE07F80
3FE03F80
3FF03F80
3FF03F80
7FF03F80
7FF07F80
7FF07F80
7FF8FF80
7FFFFFC0
7FFFFF80
7FFFFF00
7FFFFE00
7FFFFC00
7FFFF800
7FFC0000
FFFC0000
FFFC0000
FFFC0000
FFFC0000
FFFC0000
FFFC0000
FFFC0000
FFFC0000
FFFC0000
FFFC0000
FFFC0000
FFFC0000
FFFC0000
FFFC0000
ENDCHAR
STARTCHAR 0051
ENCODING 81
SWIDTH 612 0
DWIDTH 34 0
BBX 33 41 1 -2
BITMAP
0002000000
01FF800000
03FFC00000
07FFF00000
0FFFF80000
0FFFFC0000
1FFFFE0000
1FFFFF0000
3FFFFF0000
3FFFFF8000
3FFFFFC000
7FE1FFC000
7FE0FFC000
7FC07FE000
7FC03FE000
7FC03FE000
7FC01FE000
FFC01FE000
FFC01FE000
FFC01FF000
FFC01FF000
FFE01FE000
FFF03FE000
FFFFFFE000
FFFFFFE000
FFFFFFE000
FFFFFFC000
FFFFFFC000
7FFFFF8000
7FFFFF8000
7FFFFFC000
3FFFFFE000
1FFFFFF000
0FFFFFF000
07FFFFF800
03FFFFFC00
01FFFFFE00
003FBFFF00
00001FFF80
00001FFF00
00000FE000
ENDCHAR
STARTCHAR 0052
ENCODING 82
SWIDTH 576 0
DWIDTH 32 0
BBX 30 39 1 -1
BITMAP
00FF0000
1FFFC000
7FFFF800
FFFFFC00
FFFFFF00
FFFFFF80
FFF87F80
FFF81F80
FFF80FC0
FFF80FC0
FFF80FC0
FFF80FC0
FFF80FC0
7FF81FC0
7FFC3FC0
7FFEFFC0
7FFFFF80
7FFFFF80
7FFFFF00
7FFFF800
7FFFF800
7FFFFC00
7FFFFC00
7FFFFE00
7FFFFF00
7FFEFF00
7FFEFF80
3FFE7FC0
7FFE7FC0
3FFE3FE0
3FFE1FE0
3FFE1FF0
3FFE1FF8
3FFF0FF8
3FFF0FFC
1FFF07FC
1FFE07FC
1FFF03E0
0FF80000
ENDCHAR
STARTCHAR 0053
ENCODING 83
SWIDTH 504 0
DWIDTH 28 0
BBX 26 39 1 -1
BITMAP
007FFF00
01FFFFC0
07FFFFC0
07FFFF80
0FFFFF80
0FFFFF00
1FFFFF00
1FFFFE00
1FFFFE00
3FFFFE00
3FFFFC00
3FFFFC00
3FFFF800
3FFFF800
3FE03800
3FF00000
3FFC0000
1FFF0000
1FFFC000
0FFFF800
07FFFC00
01FFFE00
003FFF00
0007FF00
0001FF00
0001FF80
3001FF80
7803FF80
FEFFFF80
FFFFFF80
FFFFFF80
FFFFFF00
FFFFFF00
FFFFFF00
7FFFFC00
1FFFF800
0FFFE000
03FF8000
00100000
ENDCHAR
STARTCHAR 0054
ENCODING 84
SWIDTH 576 0
DWIDTH 32 0
BBX 30 38 1 0
BITMAP
00000180
7FFFFFE0
FFFFFFF8
FFFFFFF8
FFFFFFF8
FFFFFFFC
FFFFFFFC
FFFFFFFC
FFFFFFFC
FFFFFFFC
FFFFFFFC
FFFFFE00
FF0FF800
F00FF000
001FF000
001FF000
001FF000
001FF000
001FF000
001FF000
001FE000
001FF000
001FF000
001FF000
001FF000
001FF000
001FE000
001FE000
001FE000
001FE000
001FE000
001FF000
001FE000
001FE000
001FE000
001FE000
001FE000
000FE000
ENDCHAR
STARTCHAR 0055
ENCODING 85
SWIDTH 540 0
DWIDTH 30 0
BBX 29 37 1 1
BITMAP
0F000800
1FF00FF0
1FF01FF0
1FE01FF0
1FE00FF0
3FE00FF0
3FE00FF0
3FE00FF0
3FE00FF0
7FC00FF0
7FC00FF0
7FC01FF0
7FC01FF0
7FC01FF0
FFC01FF0
FFC01FF0
FFC01FF0
FFE01FF8
FFE03FF8
FFE03FF8
FFF03FF0
FFFC7FF0
FFFFFFF0
FFFFFFE0
7FFFFFE0
7FFFFFE0
7FFFFFC0
7FFFFFC0
3FFFFFC0
3FFFFF80
1FFFFF00
1FFFFF00
0FFFFE00
0FFFFC00
07FFF800
01FFF000
003FE000
ENDCHAR
STARTCHAR 0056
ENCODING 86
SWIDTH 594 0
DWIDTH 33 0
BBX 31 36 1 1
BITMAP
000000FC
F8000FFE
FFC01FFE
7FF80FFE
3FFC0FFE
3FFE0FFE
3FFE0FFE
1FFE1FFC
1FFE1FFC
1FFF1FFC
0FFF1FFC
0FFF1FF8
0FFF1FF8
07FF1FF8
07FF9FF8
03FF9FF0
03FFBFF0
01FFBFF0
01FFFFF0
00FFFFF0
00FFFFE0
007FFFE0
003FFFE0
003FFFE0
001FFFC0
000FFFC0
000FFFC0
0007FFC0
0003FFC0
0003FF80
0001FF80
0000FF80
0000FF80
00007F80
00003F80
00001800
ENDCHAR
STARTCHAR 0057
ENCODING 87
SWIDTH 720 0
DWIDTH 40 0
BBX 39 39 1 0
BITMAP
0000000200
0000000308
7F800007FC
FFC03807FE
FFE03C0FFC
FFE03C0FF8
FFE03C0FF8
FFF03E1FF8
FFF03E1FF8
7FF83E1FF0
7FF87E3FF0
7FF87F3FF0
3FFC7F3FF0
3FFC7F7FF0
3FFE7FFFF0
1FFEFFFFF0
1FFFFFFFE0
0FFFFFFFE0
0FFFFFFFE0
0FFFFFFFE0
07FFFFFFE0
07FFFFFFC0
03FFFFFFC0
03FFFFFFC0
01FFFBFFC0
01FFF3FFC0
00FFF3FF80
00FFF1FF80
007FE1FF80
007FE1FF80
003FC1FF80
003FC0FF80
001FC0FF80
001FC0FF00
000F807F00
000F807F00
0007807C00
0003000000
0003000000
ENDCHAR
STARTCHAR 0058
ENCODING 88
SWIDTH 576 0
DWIDTH 32 0
BBX 30 37 1 1
BITMAP
00000380
018007FC
7FC007FC
7FC00FFC
FFE01FFC
FFE01FF8
FFF03FF8
FFF83FF0
7FF87FF0
7FF87FE0
7FFC7FE0
3FFCFFC0
1FFEFFC0
0FFFFFC0
07FFFF80
07FFFF80
03FFFF00
01FFFF00
00FFFE00
00FFFE00
00FFFE00
007FFE00
00FFFE00
01FFFE00
01FFFF00
03FFFF00
03FFFF00
07FFFF80
07FCFF80
0FFCFF80
0FFC7FC0
1FFC3FC0
1FFC3FE0
1FF81FE0
3FF80FC0
3FF80400
3FF00000
ENDCHAR
STARTCHAR 0059
ENCODING 89
SWIDTH 612 0
DWIDTH 34 0
BBX 32 38 1 0
BITMAP
000000FF
010003FF
078001FE
7FC003FE
FFC007FE
FFE007FC
7FE007FC
7FF00FF8
3FF00FF8
3FF81FF0
1FF81FF0
1FFC3FE0
0FFC7FE0
0FFE7FC0
07FEFFC0
07FEFF80
03FFFF80
03FFFF00
01FFFF00
01FFFE00
00FFFE00
00FFFE00
007FFC00
007FFC00
003FF800
003FF000
001FF000
000FF000
000FF000
000FF000
000FF800
000FF800
000FF800
000FF800
000FF800
000FF800
000FF800
000FE000
ENDCHAR
STARTCHAR 005A
ENCODING 90
SWIDTH 594 0
DWIDTH 33 0
BBX 31 38 1 0
BITMAP
003FFE00
03FFFFE0
1FFFFFC0
3FFFFF80
7FFFFF80
7FFFFF00
FFFFFE00
FFFFFE00
FFFFFC00
FFF7FC00
8007F800
000FF800
000FF000
000FF000
001FF000
001FE000
001FE000
003FE000
003FC000
003FC000
007FC000
007FC000
007FC000
00FF8000
00FF8000
00FF8000
01FF0000
01FE0386
03FFFFFE
03FFFFFE
03FFFFFE
03FFFFFE
07FFFFFE
07FFFFFC
07FFFFF8
001FFFF0
0003FFC0
00003C00
ENDCHAR
STARTCHAR 005B
ENCODING 91
SWIDTH 342 0
DWIDTH 19 0
BBX 18 53 1 -8
BITMAP
00FFC0
FFFFC0
FFFFC0
FFFFC0
FFFFC0
FFFFC0
FFFFC0
FFFC00
FF0000
FF0000
FF0000
FF0000
FF0000
FF0000
FF0000
FF0000
FF0000
FF0000
FF0000
FF0000
FF0000
FF0000
FF8000
FF8000
FF8000
FF0000
FF0000
FF0000
FF0000
FF0000
FF0000
FF0000
FF0000
FF0000
FF8000
FF8000
FF8000
FF0000
FF0000
FF0000
FF0000
FF0000
FF0000
FF0000
FF0000
FFFFC0
FFFFC0
FFFFC0
FFFFC0
FFFFC0
FFFFC0
FFFFC0
FFFE00
ENDCHAR
STARTCHAR 005C
ENCODING 92
SWIDTH 450 0
DWIDTH 25 0
BBX 23 45 1 -3
BITMAP
808000
FFC000
FFC000
FFC000
FFE000
7FE000
7FE000
7FF000
7FF000
3FF000
3FF800
3FF800
1FF800
1FFC00
1FFC00
0FFC00
0FFC00
07FE00
07FE00
07FE00
03FF00
03FF00
01FF00
01FF80
00FF80
00FF80
00FF80
007FC0
007FC0
003FC0
003FE0
003FE0
001FE0
001FF0
000FF0
000FF8
0007F8
0007F8
0007FC
0003FC
0003FC
0001FE
0001FE
0000F2
000040
ENDCHAR
STARTCHAR 005D
ENCODING 93
SWIDTH 342 0
DWIDTH 19 0
BBX 18 53 1 -8
BITMAP
1FFFC0
FFFFC0
FFFFC0
FFFFC0
FFFFC0
FFFFC0
FFFFC0
FFFFC0
007FC0
007FC0
007FC0
007FC0
007FC0
007FC0
007FC0
007FC0
007FC0
007FC0
007FC0
007FC0
007FC0
007FC0
007FC0
007FC0
007FC0
007FC0
007FC0
007FC0
007FC0
007FC0
007FC0
007FC0
007FC0
007FC0
007FC0
007FC0
007F80
007F80
007F80
007F80
007F80
007F80
007F80
007F80
007F80
07FF80
FFFFC0
FFFFC0
FFFFC0
FFFFC0
FFFFC0
FFFFC0
FFC000
ENDCHAR
STARTCHAR 005E
ENCODING 94
SWIDTH 486 0
DWIDTH 27 0
BBX 26 22 1 18
BITMAP
001F8000
003F8000
007F8000
007FC000
00FFC000
01FFC000
01FFE000
03FFE000
07FFF000
07FFF000
0FF3F800
0FF3F800
1FF3FC00
1FF3FC00
3FE1FE00
3FE1FE00
7FE1FF00
7FC1FF00
FFC1FF80
FFC0FF80
FF80FFC0
FF80FF80
ENDCHAR
STARTCHAR 005F
ENCODING 95
SWIDTH 378 0
DWIDTH 21 0
BBX 20 7 1 -7
BITMAP
FFFFF0
FFFFF0
FFFFF0
FFFFF0
FFFFF0
FFFFF0
FFFFE0
ENDCHAR
STARTCHAR 0060
ENCODING 96
SWIDTH 234 0
DWIDTH 13 0
BBX 11 9 1 39
BITMAP
FE00
FF00
7F80
3F80
1FC0
0FC0
07E0
07E0
0300
ENDCHAR
STARTCHAR 0061
ENCODING 97
SWIDTH 630 0
DWIDTH 35 0
BBX 33 39 1 -1
BITMAP
0000100000
0001F80000
0001F80000
0003F80000
0003FC0000
0003FC0000
0007FC0000
0007FC0000
000FFE0000
000FFE0000
000FFE0000
001FFE0000
001FFF0000
001FFF0000
003FFF0000
003FFF8000
007FFF8000
007FFF8000
00FFFFC000
00FFFFC000
00FDFFC000
01F8FFC000
01F87FE000
03F07FE000
03E07FE000
07E07FF000
07FFFFF000
0FFFFFF800
0FFFFFF800
0FFFFFF800
1FFE7FFC00
1FF03FFC00
3FE03FFE00
3FE03FFE00
7FE03FFF00
7FE01FFF00
7FC01FFF80
FFE01FFF80
FF000C0000
ENDCHAR
STARTCHAR 0062
ENCODING 98
SWIDTH 504 0
DWIDTH 28 0
BBX 27 38 1 0
BITMAP
0FFC0000
7FFFC000
FFFFE000
FFFFF000
FFFFF000
FFFFF800
FFFFFC00
FFFFFC00
7FEFFC00
7FC3FC00
7FC1FC00
7FC1FC00
3FC1FC00
3FE1FC00
3FE1F800
3FF3F800
3FFFF000
3FFFE000
3FFFF800
3FFFFE00
3FFFFF00
3FFFFF80
3FFFFFC0
1FF83FC0
1FF83FE0
1FF83FE0
1FF87FE0
1FF87FE0
1FF8FFE0
1FFDFFE0
1FFFFFC0
0FFFFFC0
0FFFFF80
0FFFFF00
0FFFFE00
0FFFF800
0FFF8000
00800000
ENDCHAR
STARTCHAR 0063
ENCODING 99
SWIDTH 486 0
DWIDTH 27 0
BBX 26 38 1 0
BITMAP
0007C000
003FF800
00FFFE00
07FFFF00
0FFFFF80
1FFFFFC0
1FFFFF80
3FFFFF80
7FFFFF80
7FFFFF80
7FFFFF80
FFFE0000
FFF80000
FFF00000
FFF00000
FFE00000
FFE00000
FFE00000
FFE00000
FFE00000
FFF00000
FFFC1F80
FFFFFF80
FFFFFF80
FFFFFF80
7FFFFF80
7FFFFF80
7FFFFF80
3FFFFF80
3FFFFF80
1FFFFF80
1FFFFF80
0FFFFF00
0FFFFE00
07FFFC00
01FFF800
007FE000
00010000
ENDCHAR
STARTCHAR 0064
ENCODING 100
SWIDTH 450 0
DWIDTH 25 0
BBX 24 38 1 0
BITMAP
3FC000
7FF800
FFFE00
FFFF80
FFFFC0
FFFFE0
FFFFF0
FFFFF8
FFFFF8
FFFFFC
FFE7FC
FFE1FE
FFC0FE
FFC07F
FFC0FF
7FC0FF
7FC0FF
7FE0FF
7FE0FF
7FE1FE
7FE3FE
7FE7FC
3FEFFC
3FFFF8
3FFFF8
3FFFF0
3FFFF0
1FFFE0
1FFFE0
1FFFC0
1FFF80
1FFF00
0FFF00
0FFC00
0FF800
0FE000
078000
040000
ENDCHAR
STARTCHAR 0065
ENCODING 101
SWIDTH 486 0
DWIDTH 27 0
BBX 26 39 1 0
BITMAP
03FC0000
1FFFF000
7FFFF000
FFFFF000
FFFFF000
7FFFE000
7FFFE000
7FFFE000
7FFFE000
3FFFE000
3FFFE000
3FFFC000
3FF00000
3FE00000
3FF00000
1FF00000
1FF3E000
1FFFC000
1FFFC000
1FFFC000
1FFFE000
0FFFE000
0FF80000
0FF80000
0FFC0600
0FFFFF00
0FFFFF00
07FFFF00
07FFFF00
07FFFF80
07FFFF80
07FFFF80
07FFFF80
07FFFF80
07FFFFC0
07FFFE00
03FFE000
03FE0000
03C00000
ENDCHAR
STARTCHAR 0066
ENCODING 102
SWIDTH 504 0
DWIDTH 28 0
BBX 26 39 1 0
BITMAP
0007FF00
0FFFFF80
7FFFFF80
FFFFFF80
FFFFFFC0
FFFFFFC0
FFFFFFC0
FFFFFFC0
FFFFE1C0
FFF00000
FFE00000
FFC00000
FFC00000
FFC00000
FFC60000
FFFF8000
FFFF0000
FFFF0000
FFFF0000
FFFF0000
FFFF0000
FFFF0000
FFE10000
FFC00000
FFC00000
FFC00000
FFC00000
FFC00000
FFC00000
FFC00000
FFC00000
FFC00000
FFC00000
FFC00000
7FE00000
7FE00000
7FE00000
7FF00000
7E000000
ENDCHAR
STARTCHAR 0067
ENCODING 103
SWIDTH 504 0
DWIDTH 28 0
BBX 26 37 1 1
BITMAP
003FE000
007FF800
00FFFE00
01FFFF00
03FFFF80
03FFFF80
07FFFF80
0FFFFF80
0FFE7F00
0FF00000
1FE00000
1FC00000
1FC00000
3FC00000
3F800000
3F800000
3F807FC0
7F03FFC0
7F07FFC0
7F03FFC0
7F03FFC0
7F83FFC0
FF81FFC0
FF81FFC0
FF81FFC0
FFC3FFC0
FFFFFFC0
FFFFFFC0
FFFFFFC0
FFFFFFC0
FFFFFF80
7FFFFF00
7FFFFC00
3FFFF000
1FFFE000
0FFF8000
03FC0000
ENDCHAR
STARTCHAR 0068
ENCODING 104
SWIDTH 558 0
DWIDTH 31 0
BBX 29 37 1 1
BITMAP
000C0000
03FF0000
1FFE07F8
1FFC0FF8
1FFC0FF8
0FFE1FF8
0FFE0FF8
0FFE0FF8
0FFE1FF8
1FFC1FF8
1FFC1FF8
1FFC1FF8
1FFE1FF8
1FFE1FF8
1FFF3FF8
1FFFFFF0
1FFFFFF0
1FFFFFF0
3FFFFFF0
3FFFFFF0
3FFFFFF0
3FFFFFF8
3FFFFFF8
3FFFFFF8
3FFFFFF8
3FFD3FF8
3FFC3FF8
3FFC7FF0
3FFC3FF0
3FF83FF0
7FFC7FF0
7FF87FF0
7FF87FF0
7FFC7FF0
7FF83FF0
FFF87FE0
FFF87C00
ENDCHAR
STARTCHAR 0069
ENCODING 105
SWIDTH 324 0
DWIDTH 18 0
BBX 17 37 1 1
BITMAP
07FF80
0FFF80
0FFF00
0FFF00
0FFF00
0FFF00
0FFE00
0FFE00
0FFE00
1FFE00
1FFE00
1FFE00
1FFE00
1FFE00
1FFE00
1FFE00
1FFE00
1FFE00
1FFE00
1FFE00
3FFE00
3FFE00
3FFE00
3FFE00
3FFE00
3FFE00
3FFE00
3FFE00
3FFE00
3FFE00
3FFC00
3FFC00
3FFC00
7FFC00
7FF800
7FE000
FC0000
ENDCHAR
STARTCHAR 006A
ENCODING 106
SWIDTH 450 0
DWIDTH 25 0
BBX 24 38 1 0
BITMAP
00000C
001FFC
001FFE
003FFE
003FFE
003FFE
003FFE
003FFE
007FFE
007FFE
007FFE
007FFE
007FFE
007FFE
007FFF
007FFF
007FFF
007FFF
003FFF
003FFF
003FFF
001FFF
001FFF
001FFE
001FFE
070FFE
FF0FFE
FF8FFE
FFCFFE
FFDFFC
FFEFFC
FFFFF8
7FFFF8
3FFFF0
3FFFE0
1FFFC0
07FF00
00FE00
ENDCHAR
STARTCHAR 006B
ENCODING 107
SWIDTH 540 0
DWIDTH 30 0
BBX 29 39 1 0
BITMAP
00000100
00860700
FFFE0F80
7FFE1FC0
7FFE1FF8
7FFE3FF8
7FFE7FF0
7FFE7FE0
7FFEFFC0
7FFEFFC0
7FFEFF80
7FFFFF00
FFFFFE00
FFFFFE00
FFFFFC00
FFFFFC00
FFFFF800
FFFFF800
FFFFF000
FFFFE000
FFFFC000
FFFFE000
FFFFF000
FFFFF800
FFFFFC00
FFFFFC00
FFFFFE00
FFFFFF00
FFFFFF80
FFFEFFC0
FFFC7FC0
FFFC7FE0
FFFC3FE0
FFFC3FF0
FFFC1FF0
FFFE0FF8
FFFE0F98
FFFC0F00
00700600
ENDCHAR
STARTCHAR 006C
ENCODING 108
SWIDTH 504 0
DWIDTH 28 0
BBX 26 39 1 -1
BITMAP
003FC000
03FFE000
07FFE000
07FFE000
0FFFE000
0FFFE000
0FFFC000
0FFFC000
0FFFC000
0FFFC000
0FFFC000
0FFFC000
0FFF8000
0FFF8000
0FFF8000
0FFF8000
1FFF8000
1FFF8000
1FFF0000
1FFF0000
1FFF0000
3FFF0000
3FFF0000
3FFF0000
3FFF0000
3FFF0000
3FFF0F80
3FFFFFC0
3FFFFFC0
7FFFFFC0
3FFFFFC0
7FFFFFC0
7FFFFFC0
7FFFFFC0
7FFFFFC0
7FFFFFC0
7FFFFC00
7FE00000
E0000000
ENDCHAR
STARTCHAR 006D
ENCODING 109
SWIDTH 648 0
DWIDTH 36 0
BBX 34 38 1 0
BITMAP
0700000000
0700003800
0780007C00
07C000FC00
07C000FC00
07E001FC00
0FF001FC00
0FF003FC00
0FF803FE00
0FFC07FE00
0FFC07FE00
0FFE0FFE00
1FFE0FFE00
1FFF1FFF00
1FFFBFFF00
1FFFFFFF00
1FFFFFFF00
1FFFFFFF00
1FFFFFFF00
1FFFFFFF00
3FFFFFFF00
3FFFFFFF00
3FFCF7FF00
3FFC77FF00
3FF877FF80
3FF807FF80
7FF007FF80
7FF007FF80
7FF007FF80
7FE007FF80
7FE00FFF80
7FE00FFFC0
7FE00FFFC0
FFC00FFFC0
FFC00FFFC0
FFC00FFFC0
FF8007FE00
FB80000000
ENDCHAR
STARTCHAR 006E
ENCODING 110
SWIDTH 558 0
DWIDTH 31 0
BBX 30 37 1 0
BITMAP
03E003F0
0FFE1FF8
1FFE1FFC
1FFE1FFC
1FFE1FF8
1FFE1FF8
1FFE1FF8
1FFE1FF8
3FFE1FF8
3FFE1FF8
3FFF3FF8
3FFF1FF8
3FFF1FF8
3FFF1FF0
3FFFBFF0
7FFFBFF0
7FFFBFF0
7FFFBFF0
7FFFFFF0
7FFFFFF0
7FFFFFF0
7FFFFFF0
7FF7FFF0
7FF7FFF0
7FF7FFE0
7FF3FFE0
7FF3FFE0
7FF1FFE0
7FF1FFE0
7FE1FFE0
FFE0FFE0
FFE0FFE0
FFE0FFE0
FFE0FFE0
FFE0FFE0
FFC07FC0
F0000000
ENDCHAR
STARTCHAR 006F
ENCODING 111
SWIDTH 522 0
DWIDTH 29 0
BBX 28 39 1 0
BITMAP
00700000
00FC0000
01FF0000
03FFC000
07FFE000
07FFF800
0FFFFC00
0FFFFC00
1FFFFE00
1FFFFF00
1FFFFF00
3FFFFF80
3FFFFF80
7FFFFFC0
7FFFFFC0
7FF0FFE0
FFE07FE0
FFE07FE0
FFC07FF0
FFC07FF0
FFC07FF0
FFC07FF0
FFE07FF0
FFF0FFF0
FFF9FFF0
7FFFFFF0
7FFFFFE0
7FFFFFE0
7FFFFFE0
3FFFFFE0
3FFFFFE0
3FFFFFC0
1FFFFFC0
1FFFFFC0
0FFFFF80
07FFFF80
03FFFE00
00FFFC00
003FF000
ENDCHAR
STARTCHAR 0070
ENCODING 112
SWIDTH 486 0
DWIDTH 27 0
BBX 26 38 1 0
BITMAP
01FE0000
1FFFC000
3FFFF000
3FFFFC00
3FFFFC00
3FFFFE00
3FFFFE00
3FFFFF00
3FF7FF00
3FE07F80
3FE03F80
3FF03F80
3FF03F80
7FF03F80
7FF07F80
7FF07F80
7FF8FF80
7FFFFFC0
7FFFFF80
7FFFFF00
7FFFFE00
7FFFFC00
7FFFF800
7FFC0000
FFFC0000
FFFC0000
FFFC0000
FFFC0000
FFFC0000
FFFC0000
FFFC0000
FFFC0000
FFFC0000
FFFC0000
FFFC0000
FFFC0000
FFFC0000
FFFC0000
ENDCHAR
STARTCHAR 0071
ENCODING 113
SWIDTH 612 0
DWIDTH 34 0
BBX 33 41 1 -2
BITMAP
0002000000
01FF800000
03FFC00000
07FFF00000
0FFFF80000
0FFFFC0000
1FFFFE0000
1FFFFF0000
3FFFFF0000
3FFFFF8000
3FFFFFC000
7FE1FFC000
7FE0FFC000
7FC07FE000
7FC03FE000
7FC03FE000
7FC01FE000
FFC01FE000
FFC01FE000
FFC01FF000
FFC01FF000
FFE01FE000
FFF03FE000
FFFFFFE000
FFFFFFE000
FFFFFFE000
FFFFFFC000
FFFFFFC000
7FFFFF8000
7FFFFF8000
7FFFFFC000
3FFFFFE000
1FFFFFF000
0FFFFFF000
07FFFFF800
03FFFFFC00
01FFFFFE00
003FBFFF00
00001FFF80
00001FFF00
00000FE000
ENDCHAR
STARTCHAR 0072
ENCODING 114
SWIDTH 576 0
DWIDTH 32 0
BBX 30 39 1 -1
BITMAP
00FF0000
1FFFC000
7FFFF800
FFFFFC00
FFFFFF00
FFFFFF80
FFF87F80
FFF81F80
FFF80FC0
FFF80FC0
FFF80FC0
FFF80FC0
FFF80FC0
7FF81FC0
7FFC3FC0
7FFEFFC0
7FFFFF80
7FFFFF80
7FFFFF00
7FFFF800
7FFFF800
7FFFFC00
7FFFFC00
7FFFFE00
7FFFFF00
7FFEFF00
7FFEFF80
3FFE7FC0
7FFE7FC0
3FFE3FE0
3FFE1FE0
3FFE1FF0
3FFE1FF8
3FFF0FF8
3FFF0FFC
1FFF07FC
1FFE07FC
1FFF03E0
0FF80000
ENDCHAR
STARTCHAR 0073
ENCODING 115
SWIDTH 504 0
DWIDTH 28 0
BBX 26 39 1 -1
BITMAP
007FFF00
01FFFFC0
07FFFFC0
07FFFF80
0FFFFF80
0FFFFF00
1FFFFF00
1FFFFE00
1FFFFE00
3FFFFE00
3FFFFC00
3FFFFC00
3FFFF800
3FFFF800
3FE03800
3FF00000
3FFC0000
1FFF0000
1FFFC000
0FFFF800
07FFFC00
01FFFE00
003FFF00
0007FF00
0001FF00
0001FF80
3001FF80
7803FF80
FEFFFF80
FFFFFF80
FFFFFF80
FFFFFF00
FFFFFF00
FFFFFF00
7FFFFC00
1FFFF800
0FFFE000
03FF8000
00100000
ENDCHAR
STARTCHAR 0074
ENCODING 116
SWIDTH 576 0
DWIDTH 32 0
BBX 30 38 1 0
BITMAP
00000180
7FFFFFE0
FFFFFFF8
FFFFFFF8
FFFFFFF8
FFFFFFFC
FFFFFFFC
FFFFFFFC
FFFFFFFC
FFFFFFFC
FFFFFFFC
FFFFFE00
FF0FF800
F00FF000
001FF000
001FF000
001FF000
001FF000
001FF000
001FF000
001FE000
001FF000
001FF000
001FF000
001FF000
001FF000
001FE000
001FE000
001FE000
001FE000
001FE000
001FF000
001FE000
001FE000
001FE000
001FE000
001FE000
000FE000
ENDCHAR
STARTCHAR 0075
ENCODING 117
SWIDTH 540 0
DWIDTH 30 0
BBX 29 37 1 1
BITMAP
0F000800
1FF00FF0
1FF01FF0
1FE01FF0
1FE00FF0
3FE00FF0
3FE00FF0
3FE00FF0
3FE00FF0
7FC00FF0
7FC00FF0
7FC01FF0
7FC01FF0
7FC01FF0
FFC01FF0
FFC01FF0
FFC01FF0
FFE01FF8
FFE03FF8
FFE03FF8
FFF03FF0
FFFC7FF0
FFFFFFF0
FFFFFFE0
7FFFFFE0
7FFFFFE0
7FFFFFC0
7FFFFFC0
3FFFFFC0
3FFFFF80
1FFFFF00
1FFFFF00
0FFFFE00
0FFFFC00
07FFF800
01FFF000
003FE000
ENDCHAR
STARTCHAR 0076
ENCODING 118
SWIDTH 594 0
DWIDTH 33 0
BBX 31 36 1 1
BITMAP
000000FC
F8000FFE
FFC01FFE
7FF80FFE
3FFC0FFE
3FFE0FFE
3FFE0FFE
1FFE1FFC
1FFE1FFC
1FFF1FFC
0FFF1FFC
0FFF1FF8
0FFF1FF8
07FF1FF8
07FF9FF8
03FF9FF0
03FFBFF0
01FFBFF0
01FFFFF0
00FFFFF0
00FFFFE0
007FFFE0
003FFFE0
003FFFE0
001FFFC0
000FFFC0
000FFFC0
0007FFC0
0003FFC0
0003FF80
0001FF80
0000FF80
0000FF80
00007F80
00003F80
00001800
ENDCHAR
STARTCHAR 0077
ENCODING 119
SWIDTH 720 0
DWIDTH 40 0
BBX 39 39 1 0
BITMAP
0000000200
0000000308
7F800007FC
FFC03807FE
FFE03C0FFC
FFE03C0FF8
FFE03C0FF8
FFF03E1FF8
FFF03E1FF8
7FF83E1FF0
7FF87E3FF0
7FF87F3FF0
3FFC7F3FF0
3FFC7F7FF0
3FFE7FFFF0
1FFEFFFFF0
1FFFFFFFE0
0FFFFFFFE0
0FFFFFFFE0
0FFFFFFFE0
07FFFFFFE0
07FFFFFFC0
03FFFFFFC0
03FFFFFFC0
01FFFBFFC0
01FFF3FFC0
00FFF3FF80
00FFF1FF80
007FE1FF80
007FE1FF80
003FC1FF80
003FC0FF80
001FC0FF80
001FC0FF00
000F807F00
000F807F00
0007807C00
0003000000
0003000000
ENDCHAR
STARTCHAR 0078
ENCODING 120
SWIDTH 576 0
DWIDTH 32 0
BBX 30 37 1 1
BITMAP
00000380
018007FC
7FC007FC
7FC00FFC
FFE01FFC
FFE01FF8
FFF03FF8
FFF83FF0
7FF87FF0
7FF87FE0
7FFC7FE0
3FFCFFC0
1FFEFFC0
0FFFFFC0
07FFFF80
07FFFF80
03FFFF00
01FFFF00
00FFFE00
00FFFE00
00FFFE00
007FFE00
00FFFE00
01FFFE00
01FFFF00
03FFFF00
03FFFF00
07FFFF80
07FCFF80
0FFCFF80
0FFC7FC0
1FFC3FC0
1FFC3FE0
1FF81FE0
3FF80FC0
3FF80400
3FF00000
ENDCHAR
STARTCHAR 0079
ENCODING 121
SWIDTH 612 0
DWIDTH 34 0
BBX 32 38 1 0
BITMAP
000000FF
010003FF
078001FE
7FC003FE
FFC007FE
FFE007FC
7FE007FC
7FF00FF8
3FF00FF8
3FF81FF0
1FF81FF0
1FFC3FE0
0FFC7FE0
0FFE7FC0
07FEFFC0
07FEFF80
03FFFF80
03FFFF00
01FFFF00
01FFFE00
00FFFE00
00FFFE00
007FFC00
007FFC00
003FF800
003FF000
001FF000
000FF000
000FF000
000FF000
000FF800
000FF800
000FF800
000FF800
000FF800
000FF800
000FF800
000FE000
ENDCHAR
STARTCHAR 007A
ENCODING 122
SWIDTH 594 0
DWIDTH 33 0
BBX 31 38 1 0
BITMAP
003FFE00
03FFFFE0
1FFFFFC0
3FFFFF80
7FFFFF80
7FFFFF00
FFFFFE00
FFFFFE00
FFFFFC00
FFF7FC00
8007F800
000FF800
000FF000
000FF000
001FF000
001FE000
001FE000
003FE000
003FC000
003FC000
007FC000
007FC000
007FC000
00FF8000
00FF8000
00FF8000
01FF0000
01FE0386
03FFFFFE
03FFFFFE
03FFFFFE
03FFFFFE
07FFFFFE
07FFFFFC
07FFFFF8
001FFFF0
0003FFC0
00003C00
ENDCHAR
STARTCHAR 007B
ENCODING 123
SWIDTH 342 0
DWIDTH 19 0
BBX 18 53 1 -6
BITMAP
000200
000E00
001F00
003F00
007F80
007F80
00FFC0
00FF80
01FF00
01FE00
01FC00
01FC00
03F800
03F800
03F000
03F000
07F000
07F000
07F000
0FE000
0FE000
0FE000
0FE000
7FE000
FFC000
FFC000
FFC000
FFE000
FFE000
7FF000
07F000
07F000
07F000
07F000
07F000
07F800
07F800
03F800
03F800
03F800
03F800
03F800
03F800
03F800
03FC00
03FC00
03FF00
01FF80
01FF80
00FF80
007F00
003F00
000F00
ENDCHAR
STARTCHAR 007C
ENCODING 124
SWIDTH 180 0
DWIDTH 10 0
BBX 9 55 1 -8
BITMAP
7F00
7F00
FF00
FF00
FF00
FF00
FF00
FF00
FF00
FF00
FF00
FF00
FF00
FF00
FF00
FF00
FF00
FF80
FF80
FF80
FF00
FF00
FF00
FF00
FF00
FF00
FF00
FF00
FF00
FF80
FF80
FF80
FF80
FF00
FF00
FF00
FF00
FF00
FF00
FF00
FF00
FF00
FF00
7F00
FF00
FF00
FF00
FF00
FF00
FF00
FF00
FF00
FF00
FF00
7F00
ENDCHAR
STARTCHAR 007D
ENCODING 125
SWIDTH 342 0
DWIDTH 19 0
BBX 18 53 1 -6
BITMAP
200000
3C0000
3E0000
7F8000
7FC000
7FC000
7FE000
3FE000
0FF000
0FF000
0FF000
0FF000
07F000
07F000
07F000
07F000
07F000
07F000
07F000
07F000
07F000
07F800
03F800
03F800
03FF80
03FFC0
01FFC0
01FFC0
01FFC0
01FF80
01FF00
01FC00
01FC00
03FC00
03F800
03F800
03F000
03F000
07F000
07F000
07E000
0FE000
0FE000
1FE000
1FE000
7FC000
FFC000
FF8000
FF8000
7F0000
7F0000
3E0000
1C0000
ENDCHAR
STARTCHAR 007E
ENCODING 126
SWIDTH 468 0
DWIDTH 26 0
BBX 25 13 1 13
BITMAP
0780FF80
1FC0FF80
3FF0FF80
7FF8FF80
FFFFFF80
FFFFFF80
FFFFFF80
FFFFFF00
FFFFFE00
FFFFFC00
FE3FF800
FE1FF000
FE01E000
ENDCHAR
STARTCHAR 00A0
ENCODING 160
SWIDTH 306 0
DWIDTH 17 0
BBX 0 0 0 0
BITMAP
ENDCHAR
STARTCHAR 00A1
ENCODING 161
SWIDTH 288 0
DWIDTH 16 0
BBX 15 42 1 -11
BITMAP
07C0
0FF0
1FF0
1FF0
1FF0
3FF0
3FF0
1FF0
0FE0
07E0
0000
0000
0000
0000
1FC0
1FE0
1FE0
3FE0
3FE0
3FE0
3FE0
3FE0
3FF0
3FF0
3FF0
7FF0
7FF0
7FF0
7FF0
7FF0
7FF0
7FF8
FFF8
FFF8
FFF8
FFF8
FFFC
FFFC
FFFC
FFFC
FFFE
03FC
ENDCHAR
STARTCHAR 00A2
ENCODING 162
SWIDTH 486 0
DWIDTH 27 0
BBX 26 48 1 -5
BITMAP
0000C000
0000FF00
0000FE00
0001FE00
0001FE00
0001FE00
003FFE00
00FFFE00
03FFFE00
07FFFF00
0FFFFF80
0FFFFF80
1FFFFF80
3FFFFF80
3FFFFF80
3FFFFF80
7FFFFF80
7FFFFF80
7FFFFF80
FFEFFF80
FFCFF100
FF8FE000
FF9FE000
FF9FE000
FF1FE000
FF1FC000
FF1FC000
FFBFC000
FFBFC000
FFFFC000
FFFF8000
FFFF8380
7FFFFF80
7FFFFFC0
7FFFFFC0
3FFFFFC0
1FFFFFC0
1FFFFFC0
0FFFFFC0
07FFFF80
00FFFE00
00FFFC00
01FFE000
01FE0000
01FC0000
01FC0000
01FC0000
007C0000
ENDCHAR
STARTCHAR 00A3
ENCODING 163
SWIDTH 540 0
DWIDTH 30 0
BBX 29 38 1 0
BITMAP
0003F000
0007FC00
000FFF00
003FFFC0
007FFFC0
007FFFE0
00FFFFF0
01FFFFF0
01FFBFF0
01FF9FF0
03FF9FF0
03FF0FF0
03FF07C0
03FF0000
03FF0000
03FF0000
FFFFFF00
FFFFFF00
FFFFFF00
FFFFFF00
FFFFFF00
FFFFFF00
07FFFC00
07FF0000
07FF0000
07FF0000
03FF0000
03FF0000
03FF0000
FFFFFFF8
FFFFFFF8
FFFFFFF0
FFFFFFF0
FFFFFFF0
FFFFFFF0
7FFFFFF0
1FFFFFE0
017FFE80
ENDCHAR
STARTCHAR 00A4
ENCODING 164
SWIDTH 432 0
DWIDTH 24 0
BBX 23 23 1 8
BITMAP
0C0060
1E00E0
3F79F0
7FFFF8
FFFFFC
FFFFFE
7FFFFC
3FCFF8
3F87F0
1F83E0
1F03E0
1F03E0
1F03E0
1F03E0
1F87E0
3FC7F8
7FFFFC
FFFFFE
FFFFFC
7FFFF8
3F31F0
1E00E0
040040
ENDCHAR
STARTCHAR 00A5
ENCODING 165
SWIDTH 612 0
DWIDTH 34 0
BBX 32 38 1 0
BITMAP
000000FF
010003FF
078001FE
7FC003FE
FFC007FE
FFE007FC
7FE007FC
7FF00FF8
3FF00FF8
3FF81FF0
1FF81FF0
1FFC3FE0
0FFC7FE0
0FFE7FC0
07FEFFC0
07FEFF80
03FFFFE0
1FFFFFE0
1FFFFFE0
1FFFFFF0
1FFFFFF0
1FFFFFF0
1FFFFFF0
1FFFFC00
003FF800
003FF000
1FFFFFF0
1FFFFFF0
1FFFFFF0
1FFFFFF0
1FFFFFF0
1FFFFFF0
1FFFFF00
020FF800
000FF800
000FF800
000FF800
000FE000
ENDCHAR
STARTCHAR 00A6
ENCODING 166
SWIDTH 180 0
DWIDTH 10 0
BBX 9 55 1 -8
BITMAP
7F00
FF00
FF00
FF00
FF00
FF00
FF80
FF00
FF00
FF00
FF00
FF00
FF00
FF80
FF80
FF80
FF00
FF00
FF00
FF00
FF00
FF00
FF00
FF00
5000
0000
0000
0000
0000
0000
0000
3F00
FF00
FF00
FF00
FF00
FF00
FF00
FF00
FF00
FF00
FF00
FF00
FF00
FF00
FF00
FF00
FF00
FF00
FF00
FF00
FF80
FF80
FF00
FF00
ENDCHAR
STARTCHAR 00A7
ENCODING 167
SWIDTH 486 0
DWIDTH 27 0
BBX 26 47 1 -4
BITMAP
003F8000
00FFE000
03FFF000
07FFF800
0FFFFC00
1FFFFC00
1FFFFE00
1FFFFC00
1FFFFC00
1FFC3C00
1FF80800
1FF80000
0FF80000
0FFC0000
1FFF0000
3FFFE000
3FFFF800
3FFFFE00
7FFFFF00
7FFFFF80
7FFFFF80
FFE1FFC0
FF80FFC0
FF807FC0
FFC07FC0
FFE1FFC0
7FFFFF80
3FFFFF80
3FFFFF80
0FFFFF00
07FFFF00
00FFFF00
001FFE00
000FFC00
0007FC00
0007FE00
0607FE00
0F0FFE00
0FFFFE00
1FFFFE00
1FFFFE00
1FFFFC00
0FFFFC00
07FFF800
03FFE000
01FFC000
007F0000
ENDCHAR
STARTCHAR 00A8
ENCODING 168
SWIDTH 306 0
DWIDTH 17 0
BBX 15 6 1 39
BITMAP
703C
7C3E
FC7E
FC7E
FC3E
781C
ENDCHAR
STARTCHAR 00A9
ENCODING 169
SWIDTH 666 0
DWIDTH 37 0
BBX 35 35 1 2
BITMAP
0007FF8000
003FFFE000
01FFFFF800
07FFFFFE00
0FFFFFFE00
0FFF07FF00
1FF801FF80
3FE0007F80
3FC0003F80
7F01FC1FC0
7F07FE1FC0
7E07FE0FC0
FC0FFE0FE0
FC0FFE07E0
F81FFE07E0
F81FC007E0
F81F8007E0
F81F0007E0
F81F0007E0
FC1F0007E0
FC1F8007E0
FC1FC007E0
FE1FFE07C0
7E0FFF07C0
7F07FF07C0
7F03FE0F80
3F80F81F80
3FC0003F00
1FE000FE00
1FF807FC00
0FFFFFF800
07FFFFF000
03FFFFE000
00FFFF8000
001FFE0000
ENDCHAR
STARTCHAR 00AA
ENCODING 170
SWIDTH 324 0
DWIDTH 18 0
BBX 16 20 1 18
BITMAP
0040
01E0
01E0
03E0
03E0
03F0
07F0
07F0
07F8
0FF8
0EF8
1CF8
1C7C
3FFC
3FFC
7E7E
7C7E
787F
F87F
E000
ENDCHAR
STARTCHAR 00AB
ENCODING 171
SWIDTH 468 0
DWIDTH 26 0
BBX 25 25 1 1
BITMAP
00100000
00700100
00F00380
01F00F80
03F01F80
07F03F80
0FF07F80
1FF1FF80
3FF3FF80
7FFFFF00
7FCFFC00
FF0FE000
FC0FC000
FC0FE000
FF0FF800
FFE7FE00
7FF3FF00
3FF1FF00
1FF0FF00
07F07F00
03F03F00
01F01F00
00F00F00
00700780
00100380
ENDCHAR
STARTCHAR 00AC
ENCODING 172
SWIDTH 468 0
DWIDTH 26 0
BBX 25 14 1 10
BITMAP
FFFFFF80
FFFFFF80
FFFFFF80
FFFFFF80
FFFFFF80
FFFFFF80
FFFFFF80
FFFFFF80
3FF07F80
0000FF80
0000FF80
00007F00
00007F00
00007F80
ENDCHAR
STARTCHAR 00AD
ENCODING 173
SWIDTH 378 0
DWIDTH 21 0
BBX 20 9 1 15
BITMAP
FFFFF0
FFFFF0
FFFFF0
FFFFF0
FFFFF0
FFFFF0
FFFFF0
FFFFF0
7C1000
ENDCHAR
STARTCHAR 00AE
ENCODING 174
SWIDTH 450 0
DWIDTH 25 0
BBX 23 23 1 16
BITMAP
03FF00
0FFFC0
1FFFE0
3F03F0
7E0078
7CFC3C
79FE1C
F9E61C
F1E71E
F1E71E
E1FE1E
E1FC1E
E1FE1E
F0F61E
F1F71E
78F3BE
7CF3BC
7E007C
3F01F8
1FFFF8
0FFFF0
07FFE0
007F00
ENDCHAR
STARTCHAR 00AF
ENCODING 175
SWIDTH 324 0
DWIDTH 18 0
BBX 16 6 1 39
BITMAP
FFFE
FFFF
FFFF
FFFF
FFFF
2000
ENDCHAR
STARTCHAR 00B0
ENCODING 176
SWIDTH 324 0
DWIDTH 18 0
BBX 16 19 1 21
BITMAP
0180
0FF0
3FF8
3FFE
7FFE
7E3F
FC3F
F81F
F81F
F81F
F81F
FC1F
FC3F
7E7E
3FFE
3FFC
1FF8
0FE0
0180
ENDCHAR
STARTCHAR 00B1
ENCODING 177
SWIDTH 468 0
DWIDTH 26 0
BBX 25 33 1 -1
BITMAP
00FF0000
00FF0000
00FF0000
00FF0000
00FF0000
00FF0000
00FF0000
00FF0000
FFFF7E00
FFFFFF80
FFFFFF80
FFFFFF80
FFFFFF80
FFFFFF80
FFFFFF80
FFFFFF80
00FF0C00
00FF0000
00FF0000
00FF0000
00FF0000
00FF0000
00FF0000
007F0000
00000000
00000000
FFFFFF00
FFFFFF00
FFFFFF00
FFFFFF00
FFFFFF00
FFFFFF00
00800000
ENDCHAR
STARTCHAR 00B2
ENCODING 178
SWIDTH 270 0
DWIDTH 15 0
BBX 13 19 1 20
BITMAP
0800
3F00
7FC0
FFC0
FFC0
73C0
61C0
03C0
03C0
0380
0780
0708
0FF8
0FF8
1FF8
3FF8
3FF0
7FF0
3FC0
ENDCHAR
STARTCHAR 00B3
ENCODING 179
SWIDTH 252 0
DWIDTH 14 0
BBX 12 19 1 19
BITMAP
1800
7F00
7F00
3F00
0E00
1E00
1E00
3FC0
7FE0
7FE0
01F0
00F0
0070
0070
00F0
E3F0
FFE0
7FC0
1F80
ENDCHAR
STARTCHAR 00B4
ENCODING 180
SWIDTH 234 0
DWIDTH 13 0
BBX 11 9 1 39
BITMAP
0FE0
1FE0
1FC0
3F80
7F00
7F00
FE00
FC00
1800
ENDCHAR
STARTCHAR 00B5
ENCODING 181
SWIDTH 540 0
DWIDTH 30 0
BBX 29 38 1 -8
BITMAP
00000780
7F807FC0
FF807FC0
FF807FE0
FF803FE0
FF803FE0
FF803FF0
FF803FF0
FF803FF8
FF803FF0
FF803FF0
FFC03FF0
FFC07FF0
FFC07FF0
FFC0FFF0
FFE1FFF0
FFE7FFF0
FFFFFFF0
FFFFFFF0
FFFFFFE0
FFFFFFE0
FFFFFFE0
FFFFFFC0
FFFFFF80
FFFFFF80
FFFFFF00
FFFFFE00
FF7FF800
FF3FE000
FF000000
FF000000
FF000000
FF000000
FF800000
FF800000
FF000000
FF000000
FF000000
ENDCHAR
STARTCHAR 00B6
ENCODING 182
SWIDTH 396 0
DWIDTH 22 0
BBX 20 44 1 -4
BITMAP
003000
03FFF0
0FFFF0
3FFFF0
7FFFF0
7FFFF0
FFFFF0
FFFFF0
FFF1F0
FFF1F0
FFF1F0
FFF1F0
FFF3F0
FFF3F0
FFF3F0
FFF3F0
FFF3F0
FFF3F0
FFF3F0
7FF3F0
7FF3F0
3FF3F0
1FF3F0
07F3F0
03F3F0
03F3F0
03F3F0
03F3F0
03F3F0
03F3F0
03F3F0
03F3F0
03F3F0
03F3F0
03F3F0
03F3F0
03F3F0
03F3F0
03F3F0
03F3F0
03F1F0
03F1F0
03F1F0
03F1F0
ENDCHAR
STARTCHAR 00B7
ENCODING 183
SWIDTH 198 0
DWIDTH 11 0
BBX 10 11 1 14
BITMAP
0E00
3F00
7F80
FFC0
FFC0
FFC0
FFC0
FFC0
7F80
3F00
0800
ENDCHAR
STARTCHAR 00B8
ENCODING 184
SWIDTH 288 0
DWIDTH 16 0
BBX 15 11 1 -9
BITMAP
0FC0
0FC0
0FE0
07F0
03F8
01FC
40FE
FEFE
FFFE
FFFC
3FF8
ENDCHAR
STARTCHAR 00B9
ENCODING 185
SWIDTH 216 0
DWIDTH 12 0
BBX 11 18 1 20
BITMAP
0700
0F80
3F80
7F80
FF80
7780
3FC0
0FC0
0FC0
0FC0
0FC0
0FC0
0FC0
1FC0
1FC0
1FC0
1FC0
0FE0
ENDCHAR
STARTCHAR 00BA
ENCODING 186
SWIDTH 270 0
DWIDTH 15 0
BBX 14 20 1 19
BITMAP
0C00
1F00
1FC0
3FE0
3FF0
7FF0
7FF8
FCF8
F8FC
F87C
F87C
FCFC
FFFC
FFFC
7FF8
7FF8
7FF8
3FF0
1FE0
0380
ENDCHAR
STARTCHAR 00BB
ENCODING 187
SWIDTH 468 0
DWIDTH 26 0
BBX 25 25 1 0
BITMAP
80000000
E0040000
F00E0000
F80F0000
FC0FC000
FE0FE000
FF0FF000
FF8FF800
FFCFFE00
7FC7FF00
1FE3FF80
07F07F80
01F01F80
03F01F80
1FF07F80
FFF1FF00
FFE7FE00
FF87FC00
FF07F800
FE07F000
FC07E000
F007C000
E0078000
C00F0000
800E0000
ENDCHAR
STARTCHAR 00BC
ENCODING 188
SWIDTH 558 0
DWIDTH 31 0
BBX 30 40 1 -1
BITMAP
00000200
070003C0
0F8007E0
3F800FE0
7F800FC0
FF801FC0
77801F80
3FC03F80
0FC03F00
0FC07F00
0FC07E00
0FC0FE00
0FC0FC00
0FC1FC00
1FC3F800
1FC3F000
1FC7F000
1FC7E000
0FEFE000
001FC000
001F8000
003F8780
003F0700
007F0F00
007E0F00
00FC0F00
01FC0E00
01F81E38
03F81FF8
03F01FFC
07E01FFC
0FE03FF0
0FC001E0
1F8001E0
1F8001E0
3F0003E0
3E0003E0
1E0003E0
040007E0
000007C0
ENDCHAR
STARTCHAR 00BD
ENCODING 189
SWIDTH 558 0
DWIDTH 31 0
BBX 30 39 1 0
BITMAP
00000200
070003C0
0F8007E0
3F800FE0
7F800FC0
FF801FC0
77801F80
3FC03F80
0FC03F00
0FC07F00
0FC07E00
0FC0FE00
0FC0FC00
0FC1FC00
1FC3F800
1FC3F000
1FC7F000
1FC7E000
0FEFE000
001FC000
001F9F00
003FBFC0
003F7FE0
007FFFE0
007E79E0
00FC21E0
01FC01C0
01F803C0
03F803C0
03F00380
07E00780
0FE007FC
0FC00FF8
1F801FF8
1F801FF8
3F003FF8
3E007FF0
1E003FC0
04000000
ENDCHAR
STARTCHAR 00BE
ENCODING 190
SWIDTH 558 0
DWIDTH 31 0
BBX 30 40 1 -1
BITMAP
00000200
180003C0
7F0007E0
7F000FE0
3F000FC0
0E001FC0
1E001F80
1E003F80
3FC03F00
7FE07F00
7FE07E00
01F0FE00
00F0FC00
0071FC00
0073F800
00F3F000
E3F7F000
FFE7E000
7FCFE000
1F9FC000
001F8000
003F8780
003F0700
007F0F00
007E0F00
00FC0F00
01FC0E00
01F81E38
03F81FF8
03F01FFC
07E01FFC
0FE03FF0
0FC001E0
1F8001E0
1F8001E0
3F0003E0
3E0003E0
1E0003E0
040007E0
000007C0
ENDCHAR
STARTCHAR 00BF
ENCODING 191
SWIDTH 450 0
DWIDTH 25 0
BBX 24 40 1 -10
BITMAP
001F00
003F80
007FC0
007FC0
007FE0
007FC0
007FC0
003F80
001C00
000000
000000
000000
003FC0
003FC0
007FC0
007FC0
007FC0
01FFC0
03FFC0
07FFC0
1FFF80
3FFF80
7FFC00
7FF000
7FC000
FF8000
FF8000
FF8000
FF8018
FF803E
FFC0FF
FFF7FF
FFFFFF
FFFFFE
FFFFFE
7FFFFE
7FFFFC
3FFFF8
0FFFF0
003FC0
ENDCHAR
STARTCHAR 00C0
ENCODING 192
SWIDTH 630 0
DWIDTH 35 0
BBX 33 49 1 -1
BITMAP
007F000000
00FF000000
007F800000
003FC00000
001FC00000
000FE00000
0007E00000
0003E00000
0001000000
0000000000
0000100000
0001F80000
0001F80000
0003F80000
0003FC0000
0003FC0000
0007FC0000
0007FC0000
000FFE0000
000FFE0000
000FFE0000
001FFE0000
001FFF0000
001FFF0000
003FFF0000
003FFF8000
007FFF8000
007FFF8000
00FFFFC000
00FFFFC000
00FDFFC000
01F8FFC000
01F87FE000
03F07FE000
03E07FE000
07E07FF000
07FFFFF000
0FFFFFF800
0FFFFFF800
0FFFFFF800
1FFE7FFC00
1FF03FFC00
3FE03FFE00
3FE03FFE00
7FE03FFF00
7FE01FFF00
7FC01FFF80
FFE01FFF80
FF000C0000
ENDCHAR
STARTCHAR 00C1
ENCODING 193
SWIDTH 630 0
DWIDTH 35 0
BBX 33 49 1 -1
BITMAP
00001FC000
00001FE000
00003FC000
00007F8000
00007F0000
00007E0000
0000FC0000
0000F80000
0000300000
0000000000
0000100000
0001F80000
0001F80000
0003F80000
0003FC0000
0003FC0000
0007FC0000
0007FC0000
000FFE0000
000FFE0000
000FFE0000
001FFE0000
001FFF0000
001FFF0000
003FFF0000
003FFF8000
007FFF8000
007FFF8000
00FFFFC000
00FFFFC000
00FDFFC000
01F8FFC000
01F87FE000
03F07FE000
03E07FE000
07E07FF000
07FFFFF000
0FFFFFF800
0FFFFFF800
0FFFFFF800
1FFE7FFC00
1FF03FFC00
3FE03FFE00
3FE03FFE00
7FE03FFF00
7FE01FFF00
7FC01FFF80
FFE01FFF80
FF000C0000
ENDCHAR
STARTCHAR 00C2
ENCODING 194
SWIDTH 630 0
DWIDTH 35 0
BBX 33 49 1 -1
BITMAP
0000F00000
0003F80000
0007FC0000
000FFE0000
001FFF0000
003FFF8000
007F9FC000
007E0FC000
0010060000
0000000000
0000100000
0001F80000
0001F80000
0003F80000
0003FC0000
0003FC0000
0007FC0000
0007FC0000
000FFE0000
000FFE0000
000FFE0000
001FFE0000
001FFF0000
001FFF0000
003FFF0000
003FFF8000
007FFF8000
007FFF8000
00FFFFC000
00FFFFC000
00FDFFC000
01F8FFC000
01F87FE000
03F07FE000
03E07FE000
07E07FF000
07FFFFF000
0FFFFFF800
0FFFFFF800
0FFFFFF800
1FFE7FFC00
1FF03FFC00
3FE03FFE00
3FE03FFE00
7FE03FFF00
7FE01FFF00
7FC01FFF80
FFE01FFF80
FF000C0000
ENDCHAR
STARTCHAR 00C3
ENCODING 195
SWIDTH 630 0
DWIDTH 35 0
BBX 33 48 1 -1
BITMAP
000F8FC000
001FCFC000
003FFFC000
003FFFC000
003FFFC000
003FFF8000
003C7F0000
003C0C0000
0000000000
0000100000
0001F80000
0001F80000
0003F80000
0003FC0000
0003FC0000
0007FC0000
0007FC0000
000FFE0000
000FFE0000
000FFE0000
001FFE0000
001FFF0000
001FFF0000
003FFF0000
003FFF8000
007FFF8000
007FFF8000
00FFFFC000
00FFFFC000
00FDFFC000
01F8FFC000
01F87FE000
03F07FE000
03E07FE000
07E07FF000
07FFFFF000
0FFFFFF800
0FFFFFF800
0FFFFFF800
1FFE7FFC00
1FF03FFC00
3FE03FFE00
3FE03FFE00
7FE03FFF00
7FE01FFF00
7FC01FFF80
FFE01FFF80
FF000C0000
ENDCHAR
STARTCHAR 00C4
ENCODING 196
SWIDTH 630 0
DWIDTH 35 0
BBX 33 46 1 -1
BITMAP
000E070000
001F0FC000
003F0FC000
003F0F8000
003F0F8000
000E070000
0000000000
0000100000
0001F80000
0001F80000
0003F80000
0003FC0000
0003FC0000
0007FC0000
0007FC0000
000FFE0000
000FFE0000
000FFE0000
001FFE0000
001FFF0000
001FFF0000
003FFF0000
003FFF8000
007FFF8000
007FFF8000
00FFFFC000
00FFFFC000
00FDFFC000
01F8FFC000
01F87FE000
03F07FE000
03E07FE000
07E07FF000
07FFFFF000
0FFFFFF800
0FFFFFF800
0FFFFFF800
1FFE7FFC00
1FF03FFC00
3FE03FFE00
3FE03FFE00
7FE03FFF00
7FE01FFF00
7FC01FFF80
FFE01FFF80
FF000C0000
ENDCHAR
STARTCHAR 00C5
ENCODING 197
SWIDTH 630 0
DWIDTH 35 0
BBX 33 49 1 -1
BITMAP
0001F00000
000FFC0000
001FFF0000
003FFF8000
003F1F8000
007E0F8000
007C0F8000
007C0FC000
007E0F8000
007E1F8000
003F3F0000
001FFF0000
000FFE0000
0007F80000
0003FC0000
0003FC0000
0007FC0000
0007FC0000
000FFE0000
000FFE0000
000FFE0000
001FFE0000
001FFF0000
001FFF0000
003FFF0000
003FFF8000
007FFF8000
007FFF8000
00FFFFC000
00FFFFC000
00FDFFC000
01F8FFC000
01F87FE000
03F07FE000
03E07FE000
07E07FF000
07FFFFF000
0FFFFFF800
0FFFFFF800
0FFFFFF800
1FFE7FFC00
1FF03FFC00
3FE03FFE00
3FE03FFE00
7FE03FFF00
7FE01FFF00
7FC01FFF80
FFE01FFF80
FF000C0000
ENDCHAR
STARTCHAR 00C6
ENCODING 198
SWIDTH 738 0
DWIDTH 41 0
BBX 39 40 1 -1
BITMAP
0000010000
00007FFF00
0001FFFFC0
0001FFFF80
0003FFFF80
0003FFFF80
0007FFFF80
0007FFFF80
0007FFFF00
000FFFFF00
000FFFFF80
000FFFFF00
001FFFC000
001FFF8000
003FFF8000
003FFF8000
003FFFC700
007FFFFF00
007FFFFF00
00FFFFFF00
00FFFFFF00
01FCFFFF80
01F8FFF000
01F87FE000
03F07FE018
03E07FFFF8
07E1FFFFF8
07FFFFFFFC
0FFFFFFFFC
0FFFFFFFFC
1FFFFFFFFC
1FFC7FFFFE
1FF03FFFFE
3FE03FFFFE
3FE03FFFFE
7FE03FFFFC
7FC01FFFC0
FFE01FFC00
FFE00F8000
FC00000000
ENDCHAR
STARTCHAR 00C7
ENCODING 199
SWIDTH 486 0
DWIDTH 27 0
BBX 26 47 1 -9
BITMAP
0007C000
003FF800
00FFFE00
07FFFF00
0FFFFF80
1FFFFFC0
1FFFFF80
3FFFFF80
7FFFFF80
7FFFFF80
7FFFFF80
FFFE0000
FFF80000
FFF00000
FFF00000
FFE00000
FFE00000
FFE00000
FFE00000
FFE00000
FFF00000
FFFC1F80
FFFFFF80
FFFFFF80
FFFFFF80
7FFFFF80
7FFFFF80
7FFFFF80
3FFFFF80
3FFFFF80
1FFFFF80
1FFFFF80
0FFFFF00
0FFFFE00
07FFFC00
01FFF800
00FFE000
00FF0000
007E0000
007F0000
003FC000
000FE000
0207E000
0FEFE000
0FFFE000
07FFE000
03FFC000
ENDCHAR
STARTCHAR 00C8
ENCODING 200
SWIDTH 486 0
DWIDTH 27 0
BBX 26 48 1 0
BITMAP
FF000000
FF000000
7F800000
3FC00000
1FE00000
0FE00000
07F00000
03C00000
00000000
03FC0000
1FFFF000
7FFFF000
FFFFF000
FFFFF000
7FFFE000
7FFFE000
7FFFE000
7FFFE000
3FFFE000
3FFFE000
3FFFC000
3FF00000
3FE00000
3FF00000
1FF00000
1FF3E000
1FFFC000
1FFFC000
1FFFC000
1FFFE000
0FFFE000
0FF80000
0FF80000
0FFC0600
0FFFFF00
0FFFFF00
07FFFF00
07FFFF00
07FFFF80
07FFFF80
07FFFF80
07FFFF80
07FFFF80
07FFFFC0
07FFFE00
03FFE000
03FE0000
03C00000
ENDCHAR
STARTCHAR 00C9
ENCODING 201
SWIDTH 486 0
DWIDTH 27 0
BBX 26 49 1 0
BITMAP
007F0000
007F0000
00FE0000
00FE0000
01FC0000
01F80000
01F80000
03F00000
03E00000
00000000
03FC0000
1FFFF000
7FFFF000
FFFFF000
FFFFF000
7FFFE000
7FFFE000
7FFFE000
7FFFE000
3FFFE000
3FFFE000
3FFFC000
3FF00000
3FE00000
3FF00000
1FF00000
1FF3E000
1FFFC000
1FFFC000
1FFFC000
1FFFE000
0FFFE000
0FF80000
0FF80000
0FFC0600
0FFFFF00
0FFFFF00
07FFFF00
07FFFF00
07FFFF80
07FFFF80
07FFFF80
07FFFF80
07FFFF80
07FFFFC0
07FFFE00
03FFE000
03FE0000
03C00000
ENDCHAR
STARTCHAR 00CA
ENCODING 202
SWIDTH 486 0
DWIDTH 27 0
BBX 26 49 1 0
BITMAP
01800000
07E00000
0FF80000
1FFC0000
3FFE0000
7FFF0000
7F3F8000
FE1F0000
FC000000
00000000
03FC0000
1FFFF000
7FFFF000
FFFFF000
FFFFF000
7FFFE000
7FFFE000
7FFFE000
7FFFE000
3FFFE000
3FFFE000
3FFFC000
3FF00000
3FE00000
3FF00000
1FF00000
1FF3E000
1FFFC000
1FFFC000
1FFFC000
1FFFE000
0FFFE000
0FF80000
0FF80000
0FFC0600
0FFFFF00
0FFFFF00
07FFFF00
07FFFF00
07FFFF80
07FFFF80
07FFFF80
07FFFF80
07FFFF80
07FFFFC0
07FFFE00
03FFE000
03FE0000
03C00000
ENDCHAR
STARTCHAR 00CB
ENCODING 203
SWIDTH 486 0
DWIDTH 27 0
BBX 26 46 1 0
BITMAP
001E0000
383F0000
7C3F0000
7C3E0000
FC3E0000
7C0C0000
38000000
03FC0000
1FFFF000
7FFFF000
FFFFF000
FFFFF000
7FFFE000
7FFFE000
7FFFE000
7FFFE000
3FFFE000
3FFFE000
3FFFC000
3FF00000
3FE00000
3FF00000
1FF00000
1FF3E000
1FFFC000
1FFFC000
1FFFC000
1FFFE000
0FFFE000
0FF80000
0FF80000
0FFC0600
0FFFFF00
0FFFFF00
07FFFF00
07FFFF00
07FFFF80
07FFFF80
07FFFF80
07FFFF80
07FFFF80
07FFFFC0
07FFFE00
03FFE000
03FE0000
03C00000
ENDCHAR
STARTCHAR 00CC
ENCODING 204
SWIDTH 324 0
DWIDTH 18 0
BBX 17 48 1 0
BITMAP
1FC000
1FE000
0FE000
07F000
07F800
03F800
01F800
00FC00
006000
000000
000000
07FF80
0FFF80
0FFF00
0FFF00
0FFF00
0FFF00
0FFE00
0FFE00
0FFE00
1FFE00
1FFE00
1FFE00
1FFE00
1FFE00
1FFE00
1FFE00
1FFE00
1FFE00
1FFE00
1FFE00
3FFE00
3FFE00
3FFE00
3FFE00
3FFE00
3FFE00
3FFE00
3FFE00
3FFE00
3FFE00
3FFC00
3FFC00
3FFC00
7FFC00
7FF800
7FE000
FC0000
ENDCHAR
STARTCHAR 00CD
ENCODING 205
SWIDTH 324 0
DWIDTH 18 0
BBX 19 48 1 0
BITMAP
000FE0
001FE0
001FC0
003F80
007F80
007F00
007E00
00FC00
001800
000000
000000
07FF80
0FFF80
0FFF00
0FFF00
0FFF00
0FFF00
0FFE00
0FFE00
0FFE00
1FFE00
1FFE00
1FFE00
1FFE00
1FFE00
1FFE00
1FFE00
1FFE00
1FFE00
1FFE00
1FFE00
3FFE00
3FFE00
3FFE00
3FFE00
3FFE00
3FFE00
3FFE00
3FFE00
3FFE00
3FFE00
3FFC00
3FFC00
3FFC00
7FFC00
7FF800
7FE000
FC0000
ENDCHAR
STARTCHAR 00CE
ENCODING 206
SWIDTH 324 0
DWIDTH 18 0
BBX 19 48 1 0
BITMAP
007800
01FC00
03FE00
07FF00
0FFFC0
1FFFE0
3FCFE0
1F87E0
080180
000000
000000
07FF80
0FFF80
0FFF00
0FFF00
0FFF00
0FFF00
0FFE00
0FFE00
0FFE00
1FFE00
1FFE00
1FFE00
1FFE00
1FFE00
1FFE00
1FFE00
1FFE00
1FFE00
1FFE00
1FFE00
3FFE00
3FFE00
3FFE00
3FFE00
3FFE00
3FFE00
3FFE00
3FFE00
3FFE00
3FFE00
3FFC00
3FFC00
3FFC00
7FFC00
7FF800
7FE000
FC0000
ENDCHAR
STARTCHAR 00CF
ENCODING 207
SWIDTH 324 0
DWIDTH 18 0
BBX 19 45 1 0
BITMAP
070780
0F87C0
1F87E0
1F87C0
1F87C0
0F0380
000000
000000
07FF80
0FFF80
0FFF00
0FFF00
0FFF00
0FFF00
0FFE00
0FFE00
0FFE00
1FFE00
1FFE00
1FFE00
1FFE00
1FFE00
1FFE00
1FFE00
1FFE00
1FFE00
1FFE00
1FFE00
3FFE00
3FFE00
3FFE00
3FFE00
3FFE00
3FFE00
3FFE00
3FFE00
3FFE00
3FFE00
3FFC00
3FFC00
3FFC00
7FFC00
7FF800
7FE000
FC0000
ENDCHAR
STARTCHAR 00D0
ENCODING 208
SWIDTH 486 0
DWIDTH 27 0
BBX 27 38 0 0
BITMAP
07F80000
1FFF0000
1FFFC000
1FFFF000
1FFFF800
1FFFFC00
1FFFFE00
1FFFFE00
1FFFFF00
1FFFFF80
1FFDFF80
1FF83FC0
1FFF1FC0
1FFF1FC0
7FFF9FC0
FFFF9FE0
FFFF9FE0
FFFF9FE0
FFFFBFC0
FFFF3FC0
FFF87F80
7FFCFF80
0FFDFF80
07FFFF00
07FFFF00
07FFFE00
07FFFE00
07FFFC00
03FFF800
03FFF800
03FFF000
03FFE000
03FFC000
01FF8000
01FE0000
01F80000
01E00000
00800000
ENDCHAR
STARTCHAR 00D1
ENCODING 209
SWIDTH 558 0
DWIDTH 31 0
BBX 30 47 1 0
BITMAP
001F0F80
003FDF80
007FFF80
007FFF80
007FFF80
007DFF00
007CFE00
00781800
00000000
00000000
03E003F0
0FFE1FF8
1FFE1FFC
1FFE1FFC
1FFE1FF8
1FFE1FF8
1FFE1FF8
1FFE1FF8
3FFE1FF8
3FFE1FF8
3FFF3FF8
3FFF1FF8
3FFF1FF8
3FFF1FF0
3FFFBFF0
7FFFBFF0
7FFFBFF0
7FFFBFF0
7FFFFFF0
7FFFFFF0
7FFFFFF0
7FFFFFF0
7FF7FFF0
7FF7FFF0
7FF7FFE0
7FF3FFE0
7FF3FFE0
7FF1FFE0
7FF1FFE0
7FE1FFE0
FFE0FFE0
FFE0FFE0
FFE0FFE0
FFE0FFE0
FFE0FFE0
FFC07FC0
F0000000
ENDCHAR
STARTCHAR 00D2
ENCODING 210
SWIDTH 522 0
DWIDTH 29 0
BBX 28 48 1 0
BITMAP
FF000000
FF000000
7F800000
3F800000
1FC00000
0FC00000
07E00000
03E00000
03000000
00700000
00FC0000
01FF0000
03FFC000
07FFE000
07FFF800
0FFFFC00
0FFFFC00
1FFFFE00
1FFFFF00
1FFFFF00
3FFFFF80
3FFFFF80
7FFFFFC0
7FFFFFC0
7FF0FFE0
FFE07FE0
FFE07FE0
FFC07FF0
FFC07FF0
FFC07FF0
FFC07FF0
FFE07FF0
FFF0FFF0
FFF9FFF0
7FFFFFF0
7FFFFFE0
7FFFFFE0
7FFFFFE0
3FFFFFE0
3FFFFFE0
3FFFFFC0
1FFFFFC0
1FFFFFC0
0FFFFF80
07FFFF80
03FFFE00
00FFFC00
003FF000
ENDCHAR
STARTCHAR 00D3
ENCODING 211
SWIDTH 522 0
DWIDTH 29 0
BBX 28 48 1 0
BITMAP
000FE000
001FE000
003FC000
003F8000
007F0000
007E0000
00FC0000
00FC0000
00180000
00700000
00FC0000
01FF0000
03FFC000
07FFE000
07FFF800
0FFFFC00
0FFFFC00
1FFFFE00
1FFFFF00
1FFFFF00
3FFFFF80
3FFFFF80
7FFFFFC0
7FFFFFC0
7FF0FFE0
FFE07FE0
FFE07FE0
FFC07FF0
FFC07FF0
FFC07FF0
FFC07FF0
FFE07FF0
FFF0FFF0
FFF9FFF0
7FFFFFF0
7FFFFFE0
7FFFFFE0
7FFFFFE0
3FFFFFE0
3FFFFFE0
3FFFFFC0
1FFFFFC0
1FFFFFC0
0FFFFF80
07FFFF80
03FFFE00
00FFFC00
003FF000
ENDCHAR
STARTCHAR 00D4
ENCODING 212
SWIDTH 522 0
DWIDTH 29 0
BBX 28 48 1 0
BITMAP
00F00000
03FC0000
07FE0000
0FFF0000
1FFF8000
3FBFC000
3F1FC000
3E0FC000
00000000
00700000
00FC0000
01FF0000
03FFC000
07FFE000
07FFF800
0FFFFC00
0FFFFC00
1FFFFE00
1FFFFF00
1FFFFF00
3FFFFF80
3FFFFF80
7FFFFFC0
7FFFFFC0
7FF0FFE0
FFE07FE0
FFE07FE0
FFC07FF0
FFC07FF0
FFC07FF0
FFC07FF0
FFE07FF0
FFF0FFF0
FFF9FFF0
7FFFFFF0
7FFFFFE0
7FFFFFE0
7FFFFFE0
3FFFFFE0
3FFFFFE0
3FFFFFC0
1FFFFFC0
1FFFFFC0
0FFFFF80
07FFFF80
03FFFE00
00FFFC00
003FF000
ENDCHAR
STARTCHAR 00D5
ENCODING 213
SWIDTH 522 0
DWIDTH 29 0
BBX 28 48 1 0
BITMAP
000F8000
0F0F8000
3FFF8000
3FFF8000
3FFF8000
3FFF0000
3FFF0000
3C7E0000
3C000000
00700000
00FC0000
01FF0000
03FFC000
07FFE000
07FFF800
0FFFFC00
0FFFFC00
1FFFFE00
1FFFFF00
1FFFFF00
3FFFFF80
3FFFFF80
7FFFFFC0
7FFFFFC0
7FF0FFE0
FFE07FE0
FFE07FE0
FFC07FF0
FFC07FF0
FFC07FF0
FFC07FF0
FFE07FF0
FFF0FFF0
FFF9FFF0
7FFFFFF0
7FFFFFE0
7FFFFFE0
7FFFFFE0
3FFFFFE0
3FFFFFE0
3FFFFFC0
1FFFFFC0
1FFFFFC0
0FFFFF80
07FFFF80
03FFFE00
00FFFC00
003FF000
ENDCHAR
STARTCHAR 00D6
ENCODING 214
SWIDTH 522 0
DWIDTH 29 0
BBX 28 45 1 0
BITMAP
0E0F0000
1F0F8000
3F1F8000
3F1F8000
3F0F8000
1E070000
00700000
00FC0000
01FF0000
03FFC000
07FFE000
07FFF800
0FFFFC00
0FFFFC00
1FFFFE00
1FFFFF00
1FFFFF00
3FFFFF80
3FFFFF80
7FFFFFC0
7FFFFFC0
7FF0FFE0
FFE07FE0
FFE07FE0
FFC07FF0
FFC07FF0
FFC07FF0
FFC07FF0
FFE07FF0
FFF0FFF0
FFF9FFF0
7FFFFFF0
7FFFFFE0
7FFFFFE0
7FFFFFE0
3FFFFFE0
3FFFFFE0
3FFFFFC0
1FFFFFC0
1FFFFFC0
0FFFFF80
07FFFF80
03FFFE00
00FFFC00
003FF000
ENDCHAR
STARTCHAR 00D7
ENCODING 215
SWIDTH 432 0
DWIDTH 24 0
BBX 22 23 1 8
BITMAP
080040
0E01E0
1F03F0
3F83F0
7FC7F8
FFEFFC
7FFFF8
7FFFF0
3FFFE0
1FFFE0
07FFC0
03FF80
07FFC0
0FFFC0
1FFFE0
3FFFF0
7FFFF8
FFEFFC
FFCFF8
3F87F0
1F01E0
0E00C0
040000
ENDCHAR
STARTCHAR 00D8
ENCODING 216
SWIDTH 522 0
DWIDTH 29 0
BBX 30 40 0 -1
BITMAP
003807FC
007E07FC
00FF8FF8
01FFFFF8
03FFFFF0
03FFFFE0
07FFFFE0
07FFFFC0
0FFFFFC0
0FFFFF80
0FFFFF80
1FFFFFC0
1FFFFFE0
3FFFFFE0
3FFFFFE0
3FE7FFF0
7FCFFFF0
7F8FFFF0
7F9FFFF8
7F9FCFF8
7FBFCFF8
7FFF9FF8
7FFF1FF8
7FFF1FF8
7FFE3FF8
3FFEFFF8
3FFFFFF0
3FFFFFF0
3FFFFFF0
1FFFFFF0
1FFFFFF0
1FFFFFE0
1FFFFFE0
1FFFFFE0
3FFFFFC0
7FFFFFC0
7FFFFF00
FE7FFE00
9E0FF800
04000000
ENDCHAR
STARTCHAR 00D9
ENCODING 217
SWIDTH 540 0
DWIDTH 30 0
BBX 29 47 1 1
BITMAP
01FC0000
01FE0000
00FE0000
007F0000
007F8000
003F8000
001F8000
000FC000
00060000
00000000
0F000800
1FF00FF0
1FF01FF0
1FE01FF0
1FE00FF0
3FE00FF0
3FE00FF0
3FE00FF0
3FE00FF0
7FC00FF0
7FC00FF0
7FC01FF0
7FC01FF0
7FC01FF0
FFC01FF0
FFC01FF0
FFC01FF0
FFE01FF8
FFE03FF8
FFE03FF8
FFF03FF0
FFFC7FF0
FFFFFFF0
FFFFFFE0
7FFFFFE0
7FFFFFE0
7FFFFFC0
7FFFFFC0
3FFFFFC0
3FFFFF80
1FFFFF00
1FFFFF00
0FFFFE00
0FFFFC00
07FFF800
01FFF000
003FE000
ENDCHAR
STARTCHAR 00DA
ENCODING 218
SWIDTH 540 0
DWIDTH 30 0
BBX 29 47 1 1
BITMAP
00003F80
00007F80
0000FF00
0000FE00
0001FC00
0001F800
0003F000
0003F000
00006000
00000000
0F000800
1FF00FF0
1FF01FF0
1FE01FF0
1FE00FF0
3FE00FF0
3FE00FF0
3FE00FF0
3FE00FF0
7FC00FF0
7FC00FF0
7FC01FF0
7FC01FF0
7FC01FF0
FFC01FF0
FFC01FF0
FFC01FF0
FFE01FF8
FFE03FF8
FFE03FF8
FFF03FF0
FFFC7FF0
FFFFFFF0
FFFFFFE0
7FFFFFE0
7FFFFFE0
7FFFFFC0
7FFFFFC0
3FFFFFC0
3FFFFF80
1FFFFF00
1FFFFF00
0FFFFE00
0FFFFC00
07FFF800
01FFF000
003FE000
ENDCHAR
STARTCHAR 00DB
ENCODING 219
SWIDTH 540 0
DWIDTH 30 0
BBX 29 47 1 1
BITMAP
0001C000
0007E000
001FF800
003FFC00
007FFE00
00FFFF00
00FE3F80
00FC1F00
00000C00
00000000
0F000800
1FF00FF0
1FF01FF0
1FE01FF0
1FE00FF0
3FE00FF0
3FE00FF0
3FE00FF0
3FE00FF0
7FC00FF0
7FC00FF0
7FC01FF0
7FC01FF0
7FC01FF0
FFC01FF0
FFC01FF0
FFC01FF0
FFE01FF8
FFE03FF8
FFE03FF8
FFF03FF0
FFFC7FF0
FFFFFFF0
FFFFFFE0
7FFFFFE0
7FFFFFE0
7FFFFFC0
7FFFFFC0
3FFFFFC0
3FFFFF80
1FFFFF00
1FFFFF00
0FFFFE00
0FFFFC00
07FFF800
01FFF000
003FE000
ENDCHAR
STARTCHAR 00DC
ENCODING 220
SWIDTH 540 0
DWIDTH 30 0
BBX 29 44 1 1
BITMAP
003C1C00
007C3E00
007E3F00
007E3F00
007C3F00
00381E00
00000000
0F000800
1FF00FF0
1FF01FF0
1FE01FF0
1FE00FF0
3FE00FF0
3FE00FF0
3FE00FF0
3FE00FF0
7FC00FF0
7FC00FF0
7FC01FF0
7FC01FF0
7FC01FF0
FFC01FF0
FFC01FF0
FFC01FF0
FFE01FF8
FFE03FF8
FFE03FF8
FFF03FF0
FFFC7FF0
FFFFFFF0
FFFFFFE0
7FFFFFE0
7FFFFFE0
7FFFFFC0
7FFFFFC0
3FFFFFC0
3FFFFF80
1FFFFF00
1FFFFF00
0FFFFE00
0FFFFC00
07FFF800
01FFF000
003FE000
ENDCHAR
STARTCHAR 00DD
ENCODING 221
SWIDTH 612 0
DWIDTH 34 0
BBX 32 48 1 0
BITMAP
00003F80
00007F80
00007F00
0000FF00
0000FE00
0001FC00
0001F800
0003F000
00006000
00000000
000000FF
010003FF
078001FE
7FC003FE
FFC007FE
FFE007FC
7FE007FC
7FF00FF8
3FF00FF8
3FF81FF0
1FF81FF0
1FFC3FE0
0FFC7FE0
0FFE7FC0
07FEFFC0
07FEFF80
03FFFF80
03FFFF00
01FFFF00
01FFFE00
00FFFE00
00FFFE00
007FFC00
007FFC00
003FF800
003FF000
001FF000
000FF000
000FF000
000FF000
000FF800
000FF800
000FF800
000FF800
000FF800
000FF800
000FF800
000FE000
ENDCHAR
STARTCHAR 00DE
ENCODING 222
SWIDTH 504 0
DWIDTH 28 0
BBX 26 38 1 0
BITMAP
FF800000
FFC00000
FFC00000
FFC00000
FFC00000
FFFC0000
FFFFC000
FFFFF000
FFFFF800
FFFFFC00
FFFFFE00
FFFFFE00
7FFFFF00
7FC1FF00
7FC07F00
7FC07F80
7FC03F80
7FC03F80
7FE07F80
7FE07F80
7FE07FC0
7FE0FFC0
7FE0FFC0
7FE1FFC0
7FFFFFC0
7FFFFFC0
7FFFFF80
7FFFFF00
7FFFFE00
7FFFFC00
7FFFC000
7FF00000
3FF80000
3FF80000
3FF00000
3FF00000
3FF00000
3FF00000
ENDCHAR
STARTCHAR 00DF
ENCODING 223
SWIDTH 558 0
DWIDTH 31 0
BBX 29 43 1 -4
BITMAP
00F80000
07FF0000
0FFFC000
0FFFE000
3FFFF000
7FFFF000
7FFFF800
FFFFF800
FFCFFC00
FF03FC00
FF01FC00
FF01FC00
FF01FC00
FF01FC00
FF03F800
FF03F800
FF07F000
FF8FE000
FF8FF000
FF8FFF00
7F8FFFC0
7F8FFFE0
7F87FFF0
7F87FFF0
7F807FF8
7F801FF8
7F800FF8
7F800FF8
7F800FF8
7F800FF8
7FC01FF8
7FC03FF8
3FC1FFF8
3FC3FFF8
3FC3FFF0
3FC3FFF0
3FC3FFC0
3FC3FF80
3FC3FE00
3FC00000
3FC00000
1F800000
02000000
ENDCHAR
STARTCHAR 00E0
ENCODING 224
SWIDTH 630 0
DWIDTH 35 0
BBX 33 49 1 -1
BITMAP
007F000000
00FF000000
007F800000
003FC00000
001FC00000
000FE00000
0007E00000
0003E00000
0001000000
0000000000
0000100000
0001F80000
0001F80000
0003F80000
0003FC0000
0003FC0000
0007FC0000
0007FC0000
000FFE0000
000FFE0000
000FFE0000
001FFE0000
001FFF0000
001FFF0000
003FFF0000
003FFF8000
007FFF8000
007FFF8000
00FFFFC000
00FFFFC000
00FDFFC000
01F8FFC000
01F87FE000
03F07FE000
03E07FE000
07E07FF000
07FFFFF000
0FFFFFF800
0FFFFFF800
0FFFFFF800
1FFE7FFC00
1FF03FFC00
3FE03FFE00
3FE03FFE00
7FE03FFF00
7FE01FFF00
7FC01FFF80
FFE01FFF80
FF000C0000
ENDCHAR
STARTCHAR 00E1
ENCODING 225
SWIDTH 630 0
DWIDTH 35 0
BBX 33 49 1 -1
BITMAP
00001FC000
00001FE000
00003FC000
00007F8000
00007F0000
00007E0000
0000FC0000
0000F80000
0000300000
0000000000
0000100000
0001F80000
0001F80000
0003F80000
0003FC0000
0003FC0000
0007FC0000
0007FC0000
000FFE0000
000FFE0000
000FFE0000
001FFE0000
001FFF0000
001FFF0000
003FFF0000
003FFF8000
007FFF8000
007FFF8000
00FFFFC000
00FFFFC000
00FDFFC000
01F8FFC000
01F87FE000
03F07FE000
03E07FE000
07E07FF000
07FFFFF000
0FFFFFF800
0FFFFFF800
0FFFFFF800
1FFE7FFC00
1FF03FFC00
3FE03FFE00
3FE03FFE00
7FE03FFF00
7FE01FFF00
7FC01FFF80
FFE01FFF80
FF000C0000
ENDCHAR
STARTCHAR 00E2
ENCODING 226
SWIDTH 630 0
DWIDTH 35 0
BBX 33 49 1 -1
BITMAP
0000F00000
0003F80000
0007FC0000
000FFE0000
001FFF0000
003FFF8000
007F9FC000
007E0FC000
0010060000
0000000000
0000100000
0001F80000
0001F80000
0003F80000
0003FC0000
0003FC0000
0007FC0000
0007FC0000
000FFE0000
000FFE0000
000FFE0000
001FFE0000
001FFF0000
001FFF0000
003FFF0000
003FFF8000
007FFF8000
007FFF8000
00FFFFC000
00FFFFC000
00FDFFC000
01F8FFC000
01F87FE000
03F07FE000
03E07FE000
07E07FF000
07FFFFF000
0FFFFFF800
0FFFFFF800
0FFFFFF800
1FFE7FFC00
1FF03FFC00
3FE03FFE00
3FE03FFE00
7FE03FFF00
7FE01FFF00
7FC01FFF80
FFE01FFF80
FF000C0000
ENDCHAR
STARTCHAR 00E3
ENCODING 227
SWIDTH 630 0
DWIDTH 35 0
BBX 33 48 1 -1
BITMAP
000F8FC000
001FCFC000
003FFFC000
003FFFC000
003FFFC000
003FFF8000
003C7F0000
003C0C0000
0000000000
0000100000
0001F80000
0001F80000
0003F80000
0003FC0000
0003FC0000
0007FC0000
0007FC0000
000FFE0000
000FFE0000
000FFE0000
001FFE0000
001FFF0000
001FFF0000
003FFF0000
003FFF8000
007FFF8000
007FFF8000
00FFFFC000
00FFFFC000
00FDFFC000
01F8FFC000
01F87FE000
03F07FE000
03E07FE000
07E07FF000
07FFFFF000
0FFFFFF800
0FFFFFF800
0FFFFFF800
1FFE7FFC00
1FF03FFC00
3FE03FFE00
3FE03FFE00
7FE03FFF00
7FE01FFF00
7FC01FFF80
FFE01FFF80
FF000C0000
ENDCHAR
STARTCHAR 00E4
ENCODING 228
SWIDTH 630 0
DWIDTH 35 0
BBX 33 46 1 -1
BITMAP
000E070000
001F0FC000
003F0FC000
003F0F8000
003F0F8000
000E070000
0000000000
0000100000
0001F80000
0001F80000
0003F80000
0003FC0000
0003FC0000
0007FC0000
0007FC0000
000FFE0000
000FFE0000
000FFE0000
001FFE0000
001FFF0000
001FFF0000
003FFF0000
003FFF8000
007FFF8000
007FFF8000
00FFFFC000
00FFFFC000
00FDFFC000
01F8FFC000
01F87FE000
03F07FE000
03E07FE000
07E07FF000
07FFFFF000
0FFFFFF800
0FFFFFF800
0FFFFFF800
1FFE7FFC00
1FF03FFC00
3FE03FFE00
3FE03FFE00
7FE03FFF00
7FE01FFF00
7FC01FFF80
FFE01FFF80
FF000C0000
ENDCHAR
STARTCHAR 00E5
ENCODING 229
SWIDTH 630 0
DWIDTH 35 0
BBX 33 49 1 -1
BITMAP
0001F00000
000FFC0000
001FFF0000
003FFF8000
003F1F8000
007E0F8000
007C0F8000
007C0FC000
007E0F8000
007E1F8000
003F3F0000
001FFF0000
000FFE0000
0007F80000
0003FC0000
0003FC0000
0007FC0000
0007FC0000
000FFE0000
000FFE0000
000FFE0000
001FFE0000
001FFF0000
001FFF0000
003FFF0000
003FFF8000
007FFF8000
007FFF8000
00FFFFC000
00FFFFC000
00FDFFC000
01F8FFC000
01F87FE000
03F07FE000
03E07FE000
07E07FF000
07FFFFF000
0FFFFFF800
0FFFFFF800
0FFFFFF800
1FFE7FFC00
1FF03FFC00
3FE03FFE00
3FE03FFE00
7FE03FFF00
7FE01FFF00
7FC01FFF80
FFE01FFF80
FF000C0000
ENDCHAR
STARTCHAR 00E6
ENCODING 230
SWIDTH 738 0
DWIDTH 41 0
BBX 39 40 1 -1
BITMAP
0000010000
00007FFF00
0001FFFFC0
0001FFFF80
0003FFFF80
0003FFFF80
0007FFFF80
0007FFFF80
0007FFFF00
000FFFFF00
000FFFFF80
000FFFFF00
001FFFC000
001FFF8000
003FFF8000
003FFF8000
003FFFC700
007FFFFF00
007FFFFF00
00FFFFFF00
00FFFFFF00
01FCFFFF80
01F8FFF000
01F87FE000
03F07FE018
03E07FFFF8
07E1FFFFF8
07FFFFFFFC
0FFFFFFFFC
0FFFFFFFFC
1FFFFFFFFC
1FFC7FFFFE
1FF03FFFFE
3FE03FFFFE
3FE03FFFFE
7FE03FFFFC
7FC01FFFC0
FFE01FFC00
FFE00F8000
FC00000000
ENDCHAR
STARTCHAR 00E7
ENCODING 231
SWIDTH 486 0
DWIDTH 27 0
BBX 26 47 1 -9
BITMAP
0007C000
003FF800
00FFFE00
07FFFF00
0FFFFF80
1FFFFFC0
1FFFFF80
3FFFFF80
7FFFFF80
7FFFFF80
7FFFFF80
FFFE0000
FFF80000
FFF00000
FFF00000
FFE00000
FFE00000
FFE00000
FFE00000
FFE00000
FFF00000
FFFC1F80
FFFFFF80
FFFFFF80
FFFFFF80
7FFFFF80
7FFFFF80
7FFFFF80
3FFFFF80
3FFFFF80
1FFFFF80
1FFFFF80
0FFFFF00
0FFFFE00
07FFFC00
01FFF800
00FFE000
00FF0000
007E0000
007F0000
003FC000
000FE000
0207E000
0FEFE000
0FFFE000
07FFE000
03FFC000
ENDCHAR
STARTCHAR 00E8
ENCODING 232
SWIDTH 486 0
DWIDTH 27 0
BBX 26 48 1 0
BITMAP
FF000000
FF000000
7F800000
3FC00000
1FE00000
0FE00000
07F00000
03C00000
00000000
03FC0000
1FFFF000
7FFFF000
FFFFF000
FFFFF000
7FFFE000
7FFFE000
7FFFE000
7FFFE000
3FFFE000
3FFFE000
3FFFC000
3FF00000
3FE00000
3FF00000
1FF00000
1FF3E000
1FFFC000
1FFFC000
1FFFC000
1FFFE000
0FFFE000
0FF80000
0FF80000
0FFC0600
0FFFFF00
0FFFFF00
07FFFF00
07FFFF00
07FFFF80
07FFFF80
07FFFF80
07FFFF80
07FFFF80
07FFFFC0
07FFFE00
03FFE000
03FE0000
03C00000
ENDCHAR
STARTCHAR 00E9
ENCODING 233
SWIDTH 486 0
DWIDTH 27 0
BBX 26 49 1 0
BITMAP
007F0000
007F0000
00FE0000
00FE0000
01FC0000
01F80000
01F80000
03F00000
03E00000
00000000
03FC0000
1FFFF000
7FFFF000
FFFFF000
FFFFF000
7FFFE000
7FFFE000
7FFFE000
7FFFE000
3FFFE000
3FFFE000
3FFFC000
3FF00000
3FE00000
3FF00000
1FF00000
1FF3E000
1FFFC000
1FFFC000
1FFFC000
1FFFE000
0FFFE000
0FF80000
0FF80000
0FFC0600
0FFFFF00
0FFFFF00
07FFFF00
07FFFF00
07FFFF80
07FFFF80
07FFFF80
07FFFF80
07FFFF80
07FFFFC0
07FFFE00
03FFE000
03FE0000
03C00000
ENDCHAR
STARTCHAR 00EA
ENCODING 234
SWIDTH 486 0
DWIDTH 27 0
BBX 26 49 1 0
BITMAP
01800000
07E00000
0FF80000
1FFC0000
3FFE0000
7FFF0000
7F3F8000
FE1F0000
FC000000
00000000
03FC0000
1FFFF000
7FFFF000
FFFFF000
FFFFF000
7FFFE000
7FFFE000
7FFFE000
7FFFE000
3FFFE000
3FFFE000
3FFFC000
3FF00000
3FE00000
3FF00000
1FF00000
1FF3E000
1FFFC000
1FFFC000
1FFFC000
1FFFE000
0FFFE000
0FF80000
0FF80000
0FFC0600
0FFFFF00
0FFFFF00
07FFFF00
07FFFF00
07FFFF80
07FFFF80
07FFFF80
07FFFF80
07FFFF80
07FFFFC0
07FFFE00
03FFE000
03FE0000
03C00000
ENDCHAR
STARTCHAR 00EB
ENCODING 235
SWIDTH 486 0
DWIDTH 27 0
BBX 26 46 1 0
BITMAP
001E0000
383F0000
7C3F0000
7C3E0000
FC3E0000
7C0C0000
38000000
03FC0000
1FFFF000
7FFFF000
FFFFF000
FFFFF000
7FFFE000
7FFFE000
7FFFE000
7FFFE000
3FFFE000
3FFFE000
3FFFC000
3FF00000
3FE00000
3FF00000
1FF00000
1FF3E000
1FFFC000
1FFFC000
1FFFC000
1FFFE000
0FFFE000
0FF80000
0FF80000
0FFC0600
0FFFFF00
0FFFFF00
07FFFF00
07FFFF00
07FFFF80
07FFFF80
07FFFF80
07FFFF80
07FFFF80
07FFFFC0
07FFFE00
03FFE000
03FE0000
03C00000
ENDCHAR
STARTCHAR 00EC
ENCODING 236
SWIDTH 324 0
DWIDTH 18 0
BBX 17 48 1 0
BITMAP
1FC000
1FE000
0FE000
07F000
07F800
03F800
01F800
00FC00
006000
000000
000000
07FF80
0FFF80
0FFF00
0FFF00
0FFF00
0FFF00
0FFE00
0FFE00
0FFE00
1FFE00
1FFE00
1FFE00
1FFE00
1FFE00
1FFE00
1FFE00
1FFE00
1FFE00
1FFE00
1FFE00
3FFE00
3FFE00
3FFE00
3FFE00
3FFE00
3FFE00
3FFE00
3FFE00
3FFE00
3FFE00
3FFC00
3FFC00
3FFC00
7FFC00
7FF800
7FE000
FC0000
ENDCHAR
STARTCHAR 00ED
ENCODING 237
SWIDTH 324 0
DWIDTH 18 0
BBX 19 48 1 0
BITMAP
000FE0
001FE0
001FC0
003F80
007F80
007F00
007E00
00FC00
001800
000000
000000
07FF80
0FFF80
0FFF00
0FFF00
0FFF00
0FFF00
0FFE00
0FFE00
0FFE00
1FFE00
1FFE00
1FFE00
1FFE00
1FFE00
1FFE00
1FFE00
1FFE00
1FFE00
1FFE00
1FFE00
3FFE00
3FFE00
3FFE00
3FFE00
3FFE00
3FFE00
3FFE00
3FFE00
3FFE00
3FFE00
3FFC00
3FFC00
3FFC00
7FFC00
7FF800
7FE000
FC0000
ENDCHAR
STARTCHAR 00EE
ENCODING 238
SWIDTH 324 0
DWIDTH 18 0
BBX 19 48 1 0
BITMAP
007800
01FC00
03FE00
07FF00
0FFFC0
1FFFE0
3FCFE0
1F87E0
080180
000000
000000
07FF80
0FFF80
0FFF00
0FFF00
0FFF00
0FFF00
0FFE00
0FFE00
0FFE00
1FFE00
1FFE00
1FFE00
1FFE00
1FFE00
1FFE00
1FFE00
1FFE00
1FFE00
1FFE00
1FFE00
3FFE00
3FFE00
3FFE00
3FFE00
3FFE00
3FFE00
3FFE00
3FFE00
3FFE00
3FFE00
3FFC00
3FFC00
3FFC00
7FFC00
7FF800
7FE000
FC0000
ENDCHAR
STARTCHAR 00EF
ENCODING 239
SWIDTH 324 0
DWIDTH 18 0
BBX 19 45 1 0
BITMAP
070780
0F87C0
1F87E0
1F87C0
1F87C0
0F0380
000000
000000
07FF80
0FFF80
0FFF00
0FFF00
0FFF00
0FFF00
0FFE00
0FFE00
0FFE00
1FFE00
1FFE00
1FFE00
1FFE00
1FFE00
1FFE00
1FFE00
1FFE00
1FFE00
1FFE00
1FFE00
3FFE00
3FFE00
3FFE00
3FFE00
3FFE00
3FFE00
3FFE00
3FFE00
3FFE00
3FFE00
3FFC00
3FFC00
3FFC00
7FFC00
7FF800
7FE000
FC0000
ENDCHAR
STARTCHAR 00F0
ENCODING 240
SWIDTH 486 0
DWIDTH 27 0
BBX 27 38 0 0
BITMAP
07F80000
1FFF0000
1FFFC000
1FFFF000
1FFFF800
1FFFFC00
1FFFFE00
1FFFFE00
1FFFFF00
1FFFFF80
1FFDFF80
1FF83FC0
1FFF1FC0
1FFF1FC0
7FFF9FC0
FFFF9FE0
FFFF9FE0
FFFF9FE0
FFFFBFC0
FFFF3FC0
FFF87F80
7FFCFF80
0FFDFF80
07FFFF00
07FFFF00
07FFFE00
07FFFE00
07FFFC00
03FFF800
03FFF800
03FFF000
03FFE000
03FFC000
01FF8000
01FE0000
01F80000
01E00000
00800000
ENDCHAR
STARTCHAR 00F1
ENCODING 241
SWIDTH 558 0
DWIDTH 31 0
BBX 30 47 1 0
BITMAP
001F0F80
003FDF80
007FFF80
007FFF80
007FFF80
007DFF00
007CFE00
00781800
00000000
00000000
03E003F0
0FFE1FF8
1FFE1FFC
1FFE1FFC
1FFE1FF8
1FFE1FF8
1FFE1FF8
1FFE1FF8
3FFE1FF8
3FFE1FF8
3FFF3FF8
3FFF1FF8
3FFF1FF8
3FFF1FF0
3FFFBFF0
7FFFBFF0
7FFFBFF0
7FFFBFF0
7FFFFFF0
7FFFFFF0
7FFFFFF0
7FFFFFF0
7FF7FFF0
7FF7FFF0
7FF7FFE0
7FF3FFE0
7FF3FFE0
7FF1FFE0
7FF1FFE0
7FE1FFE0
FFE0FFE0
FFE0FFE0
FFE0FFE0
FFE0FFE0
FFE0FFE0
FFC07FC0
F0000000
ENDCHAR
STARTCHAR 00F2
ENCODING 242
SWIDTH 522 0
DWIDTH 29 0
BBX 28 48 1 0
BITMAP
FF000000
FF000000
7F800000
3F800000
1FC00000
0FC00000
07E00000
03E00000
03000000
00700000
00FC0000
01FF0000
03FFC000
07FFE000
07FFF800
0FFFFC00
0FFFFC00
1FFFFE00
1FFFFF00
1FFFFF00
3FFFFF80
3FFFFF80
7FFFFFC0
7FFFFFC0
7FF0FFE0
FFE07FE0
FFE07FE0
FFC07FF0
FFC07FF0
FFC07FF0
FFC07FF0
FFE07FF0
FFF0FFF0
FFF9FFF0
7FFFFFF0
7FFFFFE0
7FFFFFE0
7FFFFFE0
3FFFFFE0
3FFFFFE0
3FFFFFC0
1FFFFFC0
1FFFFFC0
0FFFFF80
07FFFF80
03FFFE00
00FFFC00
003FF000
ENDCHAR
STARTCHAR 00F3
ENCODING 243
SWIDTH 522 0
DWIDTH 29 0
BBX 28 48 1 0
BITMAP
000FE000
001FE000
003FC000
003F8000
007F0000
007E0000
00FC0000
00FC0000
00180000
00700000
00FC0000
01FF0000
03FFC000
07FFE000
07FFF800
0FFFFC00
0FFFFC00
1FFFFE00
1FFFFF00
1FFFFF00
3FFFFF80
3FFFFF80
7FFFFFC0
7FFFFFC0
7FF0FFE0
FFE07FE0
FFE07FE0
FFC07FF0
FFC07FF0
FFC07FF0
FFC07FF0
FFE07FF0
FFF0FFF0
FFF9FFF0
7FFFFFF0
7FFFFFE0
7FFFFFE0
7FFFFFE0
3FFFFFE0
3FFFFFE0
3FFFFFC0
1FFFFFC0
1FFFFFC0
0FFFFF80
07FFFF80
03FFFE00
00FFFC00
003FF000
ENDCHAR
STARTCHAR 00F4
ENCODING 244
SWIDTH 522 0
DWIDTH 29 0
BBX 28 48 1 0
BITMAP
00F00000
03FC0000
07FE0000
0FFF0000
1FFF8000
3FBFC000
3F1FC000
3E0FC000
00000000
00700000
00FC0000
01FF0000
03FFC000
07FFE000
07FFF800
0FFFFC00
0FFFFC00
1FFFFE00
1FFFFF00
1FFFFF00
3FFFFF80
3FFFFF80
7FFFFFC0
7FFFFFC0
7FF0FFE0
FFE07FE0
FFE07FE0
FFC07FF0
FFC07FF0
FFC07FF0
FFC07FF0
FFE07FF0
FFF0FFF0
FFF9FFF0
7FFFFFF0
7FFFFFE0
7FFFFFE0
7FFFFFE0
3FFFFFE0
3FFFFFE0
3FFFFFC0
1FFFFFC0
1FFFFFC0
0FFFFF80
07FFFF80
03FFFE00
00FFFC00
003FF000
ENDCHAR
STARTCHAR 00F5
ENCODING 245
SWIDTH 522 0
DWIDTH 29 0
BBX 28 48 1 0
BITMAP
000F8000
0F0F8000
3FFF8000
3FFF8000
3FFF8000
3FFF0000
3FFF0000
3C7E0000
3C000000
00700000
00FC0000
01FF0000
03FFC000
07FFE000
07FFF800
0FFFFC00
0FFFFC00
1FFFFE00
1FFFFF00
1FFFFF00
3FFFFF80
3FFFFF80
7FFFFFC0
7FFFFFC0
7FF0FFE0
FFE07FE0
FFE07FE0
FFC07FF0
FFC07FF0
FFC07FF0
FFC07FF0
FFE07FF0
FFF0FFF0
FFF9FFF0
7FFFFFF0
7FFFFFE0
7FFFFFE0
7FFFFFE0
3FFFFFE0
3FFFFFE0
3FFFFFC0
1FFFFFC0
1FFFFFC0
0FFFFF80
07FFFF80
03FFFE00
00FFFC00
003FF000
ENDCHAR
STARTCHAR 00F6
ENCODING 246
SWIDTH 522 0
DWIDTH 29 0
BBX 28 45 1 0
BITMAP
0E0F0000
1F0F8000
3F1F8000
3F1F8000
3F0F8000
1E070000
00700000
00FC0000
01FF0000
03FFC000
07FFE000
07FFF800
0FFFFC00
0FFFFC00
1FFFFE00
1FFFFF00
1FFFFF00
3FFFFF80
3FFFFF80
7FFFFFC0
7FFFFFC0
7FF0FFE0
FFE07FE0
FFE07FE0
FFC07FF0
FFC07FF0
FFC07FF0
FFC07FF0
FFE07FF0
FFF0FFF0
FFF9FFF0
7FFFFFF0
7FFFFFE0
7FFFFFE0
7FFFFFE0
3FFFFFE0
3FFFFFE0
3FFFFFC0
1FFFFFC0
1FFFFFC0
0FFFFF80
07FFFF80
03FFFE00
00FFFC00
003FF000
ENDCHAR
STARTCHAR 00F7
ENCODING 247
SWIDTH 468 0
DWIDTH 26 0
BBX 25 29 1 5
BITMAP
003E0000
007F0000
00FF8000
00FF8000
00FF8000
00FF8000
00FF0000
007F0000
001C0000
00000000
00000000
FFFFFF80
FFFFFF80
FFFFFF80
FFFFFF80
FFFFFF80
FFFFFF80
FFFFC000
00000000
00000000
003C0000
007F0000
00FF8000
00FF8000
00FF8000
00FF8000
00FF0000
00FF0000
003E0000
ENDCHAR
STARTCHAR 00F8
ENCODING 248
SWIDTH 522 0
DWIDTH 29 0
BBX 30 40 0 -1
BITMAP
003807FC
007E07FC
00FF8FF8
01FFFFF8
03FFFFF0
03FFFFE0
07FFFFE0
07FFFFC0
0FFFFFC0
0FFFFF80
0FFFFF80
1FFFFFC0
1FFFFFE0
3FFFFFE0
3FFFFFE0
3FE7FFF0
7FCFFFF0
7F8FFFF0
7F9FFFF8
7F9FCFF8
7FBFCFF8
7FFF9FF8
7FFF1FF8
7FFF1FF8
7FFE3FF8
3FFEFFF8
3FFFFFF0
3FFFFFF0
3FFFFFF0
1FFFFFF0
1FFFFFF0
1FFFFFE0
1FFFFFE0
1FFFFFE0
3FFFFFC0
7FFFFFC0
7FFFFF00
FE7FFE00
9E0FF800
04000000
ENDCHAR
STARTCHAR 00F9
ENCODING 249
SWIDTH 540 0
DWIDTH 30 0
BBX 29 47 1 1
BITMAP
01FC0000
01FE0000
00FE0000
007F0000
007F8000
003F8000
001F8000
000FC000
00060000
00000000
0F000800
1FF00FF0
1FF01FF0
1FE01FF0
1FE00FF0
3FE00FF0
3FE00FF0
3FE00FF0
3FE00FF0
7FC00FF0
7FC00FF0
7FC01FF0
7FC01FF0
7FC01FF0
FFC01FF0
FFC01FF0
FFC01FF0
FFE01FF8
FFE03FF8
FFE03FF8
FFF03FF0
FFFC7FF0
FFFFFFF0
FFFFFFE0
7FFFFFE0
7FFFFFE0
7FFFFFC0
7FFFFFC0
3FFFFFC0
3FFFFF80
1FFFFF00
1FFFFF00
0FFFFE00
0FFFFC00
07FFF800
01FFF000
003FE000
ENDCHAR
STARTCHAR 00FA
ENCODING 250
SWIDTH 540 0
DWIDTH 30 0
BBX 29 47 1 1
BITMAP
00003F80
00007F80
0000FF00
0000FE00
0001FC00
0001F800
0003F000
0003F000
00006000
00000000
0F000800
1FF00FF0
1FF01FF0
1FE01FF0
1FE00FF0
3FE00FF0
3FE00FF0
3FE00FF0
3FE00FF0
7FC00FF0
7FC00FF0
7FC01FF0
7FC01FF0
7FC01FF0
FFC01FF0
FFC01FF0
FFC01FF0
FFE01FF8
FFE03FF8
FFE03FF8
FFF03FF0
FFFC7FF0
FFFFFFF0
FFFFFFE0
7FFFFFE0
7FFFFFE0
7FFFFFC0
7FFFFFC0
3FFFFFC0
3FFFFF80
1FFFFF00
1FFFFF00
0FFFFE00
0FFFFC00
07FFF800
01FFF000
003FE000
ENDCHAR
STARTCHAR 00FB
ENCODING 251
SWIDTH 540 0
DWIDTH 30 0
BBX 29 47 1 1
BITMAP
0001C000
0007E000
001FF800
003FFC00
007FFE00
00FFFF00
00FE3F80
00FC1F00
00000C00
00000000
0F000800
1FF00FF0
1FF01FF0
1FE01FF0
1FE00FF0
3FE00FF0
3FE00FF0
3FE00FF0
3FE00FF0
7FC00FF0
7FC00FF0
7FC01FF0
7FC01FF0
7FC01FF0
FFC01FF0
FFC01FF0
FFC01FF0
FFE01FF8
FFE03FF8
FFE03FF8
FFF03FF0
FFFC7FF0
FFFFFFF0
FFFFFFE0
7FFFFFE0
7FFFFFE0
7FFFFFC0
7FFFFFC0
3FFFFFC0
3FFFFF80
1FFFFF00
1FFFFF00
0FFFFE00
0FFFFC00
07FFF800
01FFF000
003FE000
ENDCHAR
STARTCHAR 00FC
ENCODING 252
SWIDTH 540 0
DWIDTH 30 0
BBX 29 44 1 1
BITMAP
003C1C00
007C3E00
007E3F00
007E3F00
007C3F00
00381E00
00000000
0F000800
1FF00FF0
1FF01FF0
1FE01FF0
1FE00FF0
3FE00FF0
3FE00FF0
3FE00FF0
3FE00FF0
7FC00FF0
7FC00FF0
7FC01FF0
7FC01FF0
7FC01FF0
FFC01FF0
FFC01FF0
FFC01FF0
FFE01FF8
FFE03FF8
FFE03FF8
FFF03FF0
FFFC7FF0
FFFFFFF0
FFFFFFE0
7FFFFFE0
7FFFFFE0
7FFFFFC0
7FFFFFC0
3FFFFFC0
3FFFFF80
1FFFFF00
1FFFFF00
0FFFFE00
0FFFFC00
07FFF800
01FFF000
003FE000
ENDCHAR
STARTCHAR 00FD
ENCODING 253
SWIDTH 612 0
DWIDTH 34 0
BBX 32 48 1 0
BITMAP
00003F80
00007F80
00007F00
0000FF00
0000FE00
0001FC00
0001F800
0003F000
00006000
00000000
000000FF
010003FF
078001FE
7FC003FE
FFC007FE
FFE007FC
7FE007FC
7FF00FF8
3FF00FF8
3FF81FF0
1FF81FF0
1FFC3FE0
0FFC7FE0
0FFE7FC0
07FEFFC0
07FEFF80
03FFFF80
03FFFF00
01FFFF00
01FFFE00
00FFFE00
00FFFE00
007FFC00
007FFC00
003FF800
003FF000
001FF000
000FF000
000FF000
000FF000
000FF800
000FF800
000FF800
000FF800
000FF800
000FF800
000FF800
000FE000
ENDCHAR
STARTCHAR 00FE
ENCODING 254
SWIDTH 504 0
DWIDTH 28 0
BBX 26 38 1 0
BITMAP
FF800000
FFC00000
FFC00000
FFC00000
FFC00000
FFFC0000
FFFFC000
FFFFF000
FFFFF800
FFFFFC00
FFFFFE00
FFFFFE00
7FFFFF00
7FC1FF00
7FC07F00
7FC07F80
7FC03F80
7FC03F80
7FE07F80
7FE07F80
7FE07FC0
7FE0FFC0
7FE0FFC0
7FE1FFC0
7FFFFFC0
7FFFFFC0
7FFFFF80
7FFFFF00
7FFFFE00
7FFFFC00
7FFFC000
7FF00000
3FF80000
3FF80000
3FF00000
3FF00000
3FF00000
3FF00000
ENDCHAR
STARTCHAR 00FF
ENCODING 255
SWIDTH 612 0
DWIDTH 34 0
BBX 32 45 1 0
BITMAP
00381E00
007C3F00
007E3F00
007E3F00
007C3E00
003C0C00
00000000
000000FF
010003FF
078001FE
7FC003FE
FFC007FE
FFE007FC
7FE007FC
7FF00FF8
3FF00FF8
3FF81FF0
1FF81FF0
1FFC3FE0
0FFC7FE0
0FFE7FC0
07FEFFC0
07FEFF80
03FFFF80
03FFFF00
01FFFF00
01FFFE00
00FFFE00
00FFFE00
007FFC00
007FFC00
003FF800
003FF000
001FF000
000FF000
000FF000
000FF000
000FF800
000FF800
000FF800
000FF800
000FF800
000FF800
000FF800
000FE000
ENDCHAR
STARTCHAR 0100
ENCODING 256
SWIDTH 630 0
DWIDTH 35 0
BBX 33 46 1 -1
BITMAP
003FFF8000
003FFFC000
003FFFC000
003FFFC000
003FFFC000
0000000000
0000000000
0000100000
0001F80000
0001F80000
0003F80000
0003FC0000
0003FC0000
0007FC0000
0007FC0000
000FFE0000
000FFE0000
000FFE0000
001FFE0000
001FFF0000
001FFF0000
003FFF0000
003FFF8000
007FFF8000
007FFF8000
00FFFFC000
00FFFFC000
00FDFFC000
01F8FFC000
01F87FE000
03F07FE000
03E07FE000
07E07FF000
07FFFFF000
0FFFFFF800
0FFFFFF800
0FFFFFF800
1FFE7FFC00
1FF03FFC00
3FE03FFE00
3FE03FFE00
7FE03FFF00
7FE01FFF00
7FC01FFF80
FFE01FFF80
FF000C0000
ENDCHAR
STARTCHAR 0101
ENCODING 257
SWIDTH 630 0
DWIDTH 35 0
BBX 33 46 1 -1
BITMAP
003FFF8000
003FFFC000
003FFFC000
003FFFC000
003FFFC000
0000000000
0000000000
0000100000
0001F80000
0001F80000
0003F80000
0003FC0000
0003FC0000
0007FC0000
0007FC0000
000FFE0000
000FFE0000
000FFE0000
001FFE0000
001FFF0000
001FFF0000
003FFF0000
003FFF8000
007FFF8000
007FFF8000
00FFFFC000
00FFFFC000
00FDFFC000
01F8FFC000
01F87FE000
03F07FE000
03E07FE000
07E07FF000
07FFFFF000
0FFFFFF800
0FFFFFF800
0FFFFFF800
1FFE7FFC00
1FF03FFC00
3FE03FFE00
3FE03FFE00
7FE03FFF00
7FE01FFF00
7FC01FFF80
FFE01FFF80
FF000C0000
ENDCHAR
STARTCHAR 0102
ENCODING 258
SWIDTH 630 0
DWIDTH 35 0
BBX 33 49 1 -1
BITMAP
007C07C000
007C07C000
003E0FC000
003FFF8000
003FFF8000
001FFF0000
000FFE0000
0007FC0000
0001E00000
0000000000
0000100000
0001F80000
0001F80000
0003F80000
0003FC0000
0003FC0000
0007FC0000
0007FC0000
000FFE0000
000FFE0000
000FFE0000
001FFE0000
001FFF0000
001FFF0000
003FFF0000
003FFF8000
007FFF8000
007FFF8000
00FFFFC000
00FFFFC000
00FDFFC000
01F8FFC000
01F87FE000
03F07FE000
03E07FE000
07E07FF000
07FFFFF000
0FFFFFF800
0FFFFFF800
0FFFFFF800
1FFE7FFC00
1FF03FFC00
3FE03FFE00
3FE03FFE00
7FE03FFF00
7FE01FFF00
7FC01FFF80
FFE01FFF80
FF000C0000
ENDCHAR
STARTCHAR 0103
ENCODING 259
SWIDTH 630 0
DWIDTH 35 0
BBX 33 49 1 -1
BITMAP
007C07C000
007C07C000
003E0FC000
003FFF8000
003FFF8000
001FFF0000
000FFE0000
0007FC0000
0001E00000
0000000000
0000100000
0001F80000
0001F80000
0003F80000
0003FC0000
0003FC0000
0007FC0000
0007FC0000
000FFE0000
000FFE0000
000FFE0000
001FFE0000
001FFF0000
001FFF0000
003FFF0000
003FFF8000
007FFF8000
007FFF8000
00FFFFC000
00FFFFC000
00FDFFC000
01F8FFC000
01F87FE000
03F07FE000
03E07FE000
07E07FF000
07FFFFF000
0FFFFFF800
0FFFFFF800
0FFFFFF800
1FFE7FFC00
1FF03FFC00
3FE03FFE00
3FE03FFE00
7FE03FFF00
7FE01FFF00
7FC01FFF80
FFE01FFF80
FF000C0000
ENDCHAR
STARTCHAR 0104
ENCODING 260
SWIDTH 630 0
DWIDTH 35 0
BBX 33 47 1 -9
BITMAP
0000100000
0001F80000
0001F80000
0003F80000
0003FC0000
0003FC0000
0007FC0000
0007FC0000
000FFE0000
000FFE0000
000FFE0000
001FFE0000
001FFF0000
001FFF0000
003FFF0000
003FFF8000
007FFF8000
007FFF8000
00FFFFC000
00FFFFC000
00FDFFC000
01F8FFC000
01F87FE000
03F07FE000
03E07FE000
07E07FF000
07FFFFF000
0FFFFFF800
0FFFFFF800
0FFFFFF800
1FFE7FFC00
1FF03FFC00
3FE03FFE00
3FE03FFE00
7FE03FFF00
7FE01FFF00
7FC01FFF80
FFE01FFF80
FF003E0000
00003C0000
00007C0000
00007C0000
0000FC0E00
0000FFFE00
00007FFE00
00007FFE00
00003FFE00
ENDCHAR
STARTCHAR 0105
ENCODING 261
SWIDTH 630 0
DWIDTH 35 0
BBX 33 47 1 -9
BITMAP
0000100000
0001F80000
0001F80000
0003F80000
0003FC0000
0003FC0000
0007FC0000
0007FC0000
000FFE0000
000FFE0000
000FFE0000
001FFE0000
001FFF0000
001FFF0000
003FFF0000
003FFF8000
007FFF8000
007FFF8000
00FFFFC000
00FFFFC000
00FDFFC000
01F8FFC000
01F87FE000
03F07FE000
03E07FE000
07E07FF000
07FFFFF000
0FFFFFF800
0FFFFFF800
0FFFFFF800
1FFE7FFC00
1FF03FFC00
3FE03FFE00
3FE03FFE00
7FE03FFF00
7FE01FFF00
7FC01FFF80
FFE01FFF80
FF003E0000
00003C0000
00007C0000
00007C0000
0000FC0E00
0000FFFE00
00007FFE00
00007FFE00
00003FFE00
ENDCHAR
STARTCHAR 0106
ENCODING 262
SWIDTH 486 0
DWIDTH 27 0
BBX 26 48 1 0
BITMAP
00007F80
00007F80
0000FF00
0000FE00
0001FC00
0001F800
0003F000
0003E000
00006000
00000000
0007C000
003FF800
00FFFE00
07FFFF00
0FFFFF80
1FFFFFC0
1FFFFF80
3FFFFF80
7FFFFF80
7FFFFF80
7FFFFF80
FFFE0000
FFF80000
FFF00000
FFF00000
FFE00000
FFE00000
FFE00000
FFE00000
FFE00000
FFF00000
FFFC1F80
FFFFFF80
FFFFFF80
FFFFFF80
7FFFFF80
7FFFFF80
7FFFFF80
3FFFFF80
3FFFFF80
1FFFFF80
1FFFFF80
0FFFFF00
0FFFFE00
07FFFC00
01FFF800
007FE000
00010000
ENDCHAR
STARTCHAR 0107
ENCODING 263
SWIDTH 486 0
DWIDTH 27 0
BBX 26 48 1 0
BITMAP
00007F80
00007F80
0000FF00
0000FE00
0001FC00
0001F800
0003F000
0003E000
00006000
00000000
0007C000
003FF800
00FFFE00
07FFFF00
0FFFFF80
1FFFFFC0
1FFFFF80
3FFFFF80
7FFFFF80
7FFFFF80
7FFFFF80
FFFE0000
FFF80000
FFF00000
FFF00000
FFE00000
FFE00000
FFE00000
FFE00000
FFE00000
FFF00000
FFFC1F80
FFFFFF80
FFFFFF80
FFFFFF80
7FFFFF80
7FFFFF80
7FFFFF80
3FFFFF80
3FFFFF80
1FFFFF80
1FFFFF80
0FFFFF00
0FFFFE00
07FFFC00
01FFF800
007FE000
00010000
ENDCHAR
STARTCHAR 0108
ENCODING 264
SWIDTH 486 0
DWIDTH 27 0
BBX 26 48 1 0
BITMAP
0003C000
000FE000
001FF000
003FF800
007FFE00
00FFFE00
01FE7F00
01F83F00
00400800
00000000
0007C000
003FF800
00FFFE00
07FFFF00
0FFFFF80
1FFFFFC0
1FFFFF80
3FFFFF80
7FFFFF80
7FFFFF80
7FFFFF80
FFFE0000
FFF80000
FFF00000
FFF00000
FFE00000
FFE00000
FFE00000
FFE00000
FFE00000
FFF00000
FFFC1F80
FFFFFF80
FFFFFF80
FFFFFF80
7FFFFF80
7FFFFF80
7FFFFF80
3FFFFF80
3FFFFF80
1FFFFF80
1FFFFF80
0FFFFF00
0FFFFE00
07FFFC00
01FFF800
007FE000
00010000
ENDCHAR
STARTCHAR 0109
ENCODING 265
SWIDTH 486 0
DWIDTH 27 0
BBX 26 48 1 0
BITMAP
0003C000
000FE000
001FF000
003FF800
007FFE00
00FFFE00
01FE7F00
01F83F00
00400800
00000000
0007C000
003FF800
00FFFE00
07FFFF00
0FFFFF80
1FFFFFC0
1FFFFF80
3FFFFF80
7FFFFF80
7FFFFF80
7FFFFF80
FFFE0000
FFF80000
FFF00000
FFF00000
FFE00000
FFE00000
FFE00000
FFE00000
FFE00000
FFF00000
FFFC1F80
FFFFFF80
FFFFFF80
FFFFFF80
7FFFFF80
7FFFFF80
7FFFFF80
3FFFFF80
3FFFFF80
1FFFFF80
1FFFFF80
0FFFFF00
0FFFFE00
07FFFC00
01FFF800
007FE000
00010000
ENDCHAR
STARTCHAR 010A
ENCODING 266
SWIDTH 486 0
DWIDTH 27 0
BBX 26 45 1 0
BITMAP
00038000
0007C000
000FC000
000FC000
000FC000
00078000
00000000
0007C000
003FF800
00FFFE00
07FFFF00
0FFFFF80
1FFFFFC0
1FFFFF80
3FFFFF80
7FFFFF80
7FFFFF80
7FFFFF80
FFFE0000
FFF80000
FFF00000
FFF00000
FFE00000
FFE00000
FFE00000
FFE00000
FFE00000
FFF00000
FFFC1F80
FFFFFF80
FFFFFF80
FFFFFF80
7FFFFF80
7FFFFF80
7FFFFF80
3FFFFF80
3FFFFF80
1FFFFF80
1FFFFF80
0FFFFF00
0FFFFE00
07FFFC00
01FFF800
007FE000
00010000
ENDCHAR
STARTCHAR 010B
ENCODING 267
SWIDTH 486 0
DWIDTH 27 0
BBX 26 45 1 0
BITMAP
00038000
0007C000
000FC000
000FC000
000FC000
00078000
00000000
0007C000
003FF800
00FFFE00
07FFFF00
0FFFFF80
1FFFFFC0
1FFFFF80
3FFFFF80
7FFFFF80
7FFFFF80
7FFFFF80
FFFE0000
FFF80000
FFF00000
FFF00000
FFE00000
FFE00000
FFE00000
FFE00000
FFE00000
FFF00000
FFFC1F80
FFFFFF80
FFFFFF80
FFFFFF80
7FFFFF80
7FFFFF80
7FFFFF80
3FFFFF80
3FFFFF80
1FFFFF80
1FFFFF80
0FFFFF00
0FFFFE00
07FFFC00
01FFF800
007FE000
00010000
ENDCHAR
STARTCHAR 010C
ENCODING 268
SWIDTH 486 0
DWIDTH 27 0
BBX 26 48 1 0
BITMAP
00F01E00
01F87F00
01FCFF00
00FFFE00
007FFC00
003FF800
001FF000
0007C000
00030000
00000000
0007C000
003FF800
00FFFE00
07FFFF00
0FFFFF80
1FFFFFC0
1FFFFF80
3FFFFF80
7FFFFF80
7FFFFF80
7FFFFF80
FFFE0000
FFF80000
FFF00000
FFF00000
FFE00000
FFE00000
FFE00000
FFE00000
FFE00000
FFF00000
FFFC1F80
FFFFFF80
FFFFFF80
FFFFFF80
7FFFFF80
7FFFFF80
7FFFFF80
3FFFFF80
3FFFFF80
1FFFFF80
1FFFFF80
0FFFFF00
0FFFFE00
07FFFC00
01FFF800
007FE000
00010000
ENDCHAR
STARTCHAR 010D
ENCODING 269
SWIDTH 486 0
DWIDTH 27 0
BBX 26 48 1 0
BITMAP
00F01E00
01F87F00
01FCFF00
00FFFE00
007FFC00
003FF800
001FF000
0007C000
00030000
00000000
0007C000
003FF800
00FFFE00
07FFFF00
0FFFFF80
1FFFFFC0
1FFFFF80
3FFFFF80
7FFFFF80
7FFFFF80
7FFFFF80
FFFE0000
FFF80000
FFF00000
FFF00000
FFE00000
FFE00000
FFE00000
FFE00000
FFE00000
FFF00000
FFFC1F80
FFFFFF80
FFFFFF80
FFFFFF80
7FFFFF80
7FFFFF80
7FFFFF80
3FFFFF80
3FFFFF80
1FFFFF80
1FFFFF80
0FFFFF00
0FFFFE00
07FFFC00
01FFF800
007FE000
00010000
ENDCHAR
STARTCHAR 010E
ENCODING 270
SWIDTH 450 0
DWIDTH 25 0
BBX 24 49 1 0
BITMAP
000600
301F00
FC3F00
FEFF00
FFFE00
7FFC00
1FF800
0FF000
03E000
010000
000000
3FC000
7FF800
FFFE00
FFFF80
FFFFC0
FFFFE0
FFFFF0
FFFFF8
FFFFF8
FFFFFC
FFE7FC
FFE1FE
FFC0FE
FFC07F
FFC0FF
7FC0FF
7FC0FF
7FE0FF
7FE0FF
7FE1FE
7FE3FE
7FE7FC
3FEFFC
3FFFF8
3FFFF8
3FFFF0
3FFFF0
1FFFE0
1FFFE0
1FFFC0
1FFF80
1FFF00
0FFF00
0FFC00
0FF800
0FE000
078000
040000
ENDCHAR
STARTCHAR 010F
ENCODING 271
SWIDTH 450 0
DWIDTH 25 0
BBX 24 49 1 0
BITMAP
000600
301F00
FC3F00
FEFF00
FFFE00
7FFC00
1FF800
0FF000
03E000
010000
000000
3FC000
7FF800
FFFE00
FFFF80
FFFFC0
FFFFE0
FFFFF0
FFFFF8
FFFFF8
FFFFFC
FFE7FC
FFE1FE
FFC0FE
FFC07F
FFC0FF
7FC0FF
7FC0FF
7FE0FF
7FE0FF
7FE1FE
7FE3FE
7FE7FC
3FEFFC
3FFFF8
3FFFF8
3FFFF0
3FFFF0
1FFFE0
1FFFE0
1FFFC0
1FFF80
1FFF00
0FFF00
0FFC00
0FF800
0FE000
078000
040000
ENDCHAR
STARTCHAR 0110
ENCODING 272
SWIDTH 486 0
DWIDTH 27 0
BBX 27 38 0 0
BITMAP
07F80000
1FFF0000
1FFFC000
1FFFF000
1FFFF800
1FFFFC00
1FFFFE00
1FFFFE00
1FFFFF00
1FFFFF80
1FFDFF80
1FF83FC0
1FFF1FC0
1FFF1FC0
7FFF9FC0
FFFF9FE0
FFFF9FE0
FFFF9FE0
FFFFBFC0
FFFF3FC0
FFF87F80
7FFCFF80
0FFDFF80
07FFFF00
07FFFF00
07FFFE00
07FFFE00
07FFFC00
03FFF800
03FFF800
03FFF000
03FFE000
03FFC000
01FF8000
01FE0000
01F80000
01E00000
00800000
ENDCHAR
STARTCHAR 0111
ENCODING 273
SWIDTH 486 0
DWIDTH 27 0
BBX 27 38 0 0
BITMAP
07F80000
1FFF0000
1FFFC000
1FFFF000
1FFFF800
1FFFFC00
1FFFFE00
1FFFFE00
1FFFFF00
1FFFFF80
1FFDFF80
1FF83FC0
1FFF1FC0
1FFF1FC0
7FFF9FC0
FFFF9FE0
FFFF9FE0
FFFF9FE0
FFFFBFC0
FFFF3FC0
FFF87F80
7FFCFF80
0FFDFF80
07FFFF00
07FFFF00
07FFFE00
07FFFE00
07FFFC00
03FFF800
03FFF800
03FFF000
03FFE000
03FFC000
01FF8000
01FE0000
01F80000
01E00000
00800000
ENDCHAR
STARTCHAR 0112
ENCODING 274
SWIDTH 486 0
DWIDTH 27 0
BBX 26 46 1 0
BITMAP
00010000
0FFF0000
FFFF0000
FFFF0000
FFFF0000
FFE00000
F0000000
03FC0000
1FFFF000
7FFFF000
FFFFF000
FFFFF000
7FFFE000
7FFFE000
7FFFE000
7FFFE000
3FFFE000
3FFFE000
3FFFC000
3FF00000
3FE00000
3FF00000
1FF00000
1FF3E000
1FFFC000
1FFFC000
1FFFC000
1FFFE000
0FFFE000
0FF80000
0FF80000
0FFC0600
0FFFFF00
0FFFFF00
07FFFF00
07FFFF00
07FFFF80
07FFFF80
07FFFF80
07FFFF80
07FFFF80
07FFFFC0
07FFFE00
03FFE000
03FE0000
03C00000
ENDCHAR
STARTCHAR 0113
ENCODING 275
SWIDTH 486 0
DWIDTH 27 0
BBX 26 46 1 0
BITMAP
00010000
0FFF0000
FFFF0000
FFFF0000
FFFF0000
FFE00000
F0000000
03FC0000
1FFFF000
7FFFF000
FFFFF000
FFFFF000
7FFFE000
7FFFE000
7FFFE000
7FFFE000
3FFFE000
3FFFE000
3FFFC000
3FF00000
3FE00000
3FF00000
1FF00000
1FF3E000
1FFFC000
1FFFC000
1FFFC000
1FFFE000
0FFFE000
0FF80000
0FF80000
0FFC0600
0FFFFF00
0FFFFF00
07FFFF00
07FFFF00
07FFFF80
07FFFF80
07FFFF80
07FFFF80
07FFFF80
07FFFFC0
07FFFE00
03FFE000
03FE0000
03C00000
ENDCHAR
STARTCHAR 0114
ENCODING 276
SWIDTH 486 0
DWIDTH 27 0
BBX 26 49 1 0
BITMAP
000F0000
701F0000
F81F0000
FC7F0000
7FFE0000
7FFE0000
3FFC0000
1FF80000
07E00000
00000000
03FC0000
1FFFF000
7FFFF000
FFFFF000
FFFFF000
7FFFE000
7FFFE000
7FFFE000
7FFFE000
3FFFE000
3FFFE000
3FFFC000
3FF00000
3FE00000
3FF00000
1FF00000
1FF3E000
1FFFC000
1FFFC000
1FFFC000
1FFFE000
0FFFE000
0FF80000
0FF80000
0FFC0600
0FFFFF00
0FFFFF00
07FFFF00
07FFFF00
07FFFF80
07FFFF80
07FFFF80
07FFFF80
07FFFF80
07FFFFC0
07FFFE00
03FFE000
03FE0000
03C00000
ENDCHAR
STARTCHAR 0115
ENCODING 277
SWIDTH 486 0
DWIDTH 27 0
BBX 26 49 1 0
BITMAP
000F0000
701F0000
F81F0000
FC7F0000
7FFE0000
7FFE0000
3FFC0000
1FF80000
07E00000
00000000
03FC0000
1FFFF000
7FFFF000
FFFFF000
FFFFF000
7FFFE000
7FFFE000
7FFFE000
7FFFE000
3FFFE000
3FFFE000
3FFFC000
3FF00000
3FE00000
3FF00000
1FF00000
1FF3E000
1FFFC000
1FFFC000
1FFFC000
1FFFE000
0FFFE000
0FF80000
0FF80000
0FFC0600
0FFFFF00
0FFFFF00
07FFFF00
07FFFF00
07FFFF80
07FFFF80
07FFFF80
07FFFF80
07FFFF80
07FFFFC0
07FFFE00
03FFE000
03FE0000
03C00000
ENDCHAR
STARTCHAR 0116
ENCODING 278
SWIDTH 486 0
DWIDTH 27 0
BBX 26 46 1 0
BITMAP
01C00000
03E00000
07E00000
07E00000
07E00000
03C00000
00000000
03FC0000
1FFFF000
7FFFF000
FFFFF000
FFFFF000
7FFFE000
7FFFE000
7FFFE000
7FFFE000
3FFFE000
3FFFE000
3FFFC000
3FF00000
3FE00000
3FF00000
1FF00000
1FF3E000
1FFFC000
1FFFC000
1FFFC000
1FFFE000
0FFFE000
0FF80000
0FF80000
0FFC0600
0FFFFF00
0FFFFF00
07FFFF00
07FFFF00
07FFFF80
07FFFF80
07FFFF80
07FFFF80
07FFFF80
07FFFFC0
07FFFE00
03FFE000
03FE0000
03C00000
ENDCHAR
STARTCHAR 0117
ENCODING 279
SWIDTH 486 0
DWIDTH 27 0
BBX 26 46 1 0
BITMAP
01C00000
03E00000
07E00000
07E00000
07E00000
03C00000
00000000
03FC0000
1FFFF000
7FFFF000
FFFFF000
FFFFF000
7FFFE000
7FFFE000
7FFFE000
7FFFE000
3FFFE000
3FFFE000
3FFFC000
3FF00000
3FE00000
3FF00000
1FF00000
1FF3E000
1FFFC000
1FFFC000
1FFFC000
1FFFE000
0FFFE000
0FF80000
0FF80000
0FFC0600
0FFFFF00
0FFFFF00
07FFFF00
07FFFF00
07FFFF80
07FFFF80
07FFFF80
07FFFF80
07FFFF80
07FFFFC0
07FFFE00
03FFE000
03FE0000
03C00000
ENDCHAR
STARTCHAR 0118
ENCODING 280
SWIDTH 486 0
DWIDTH 27 0
BBX 26 47 1 -8
BITMAP
03FC0000
1FFFF000
7FFFF000
FFFFF000
FFFFF000
7FFFE000
7FFFE000
7FFFE000
7FFFE000
3FFFE000
3FFFE000
3FFFC000
3FF00000
3FE00000
3FF00000
1FF00000
1FF3E000
1FFFC000
1FFFC000
1FFFC000
1FFFE000
0FFFE000
0FF80000
0FF80000
0FFC0600
0FFFFF00
0FFFFF00
07FFFF00
07FFFF00
07FFFF80
07FFFF80
07FFFF80
07FFFF80
07FFFF80
07FFFFC0
07FFFE00
03FFE000
03FF8000
03C78000
000F8000
000F0000
001F0080
001F8780
001FFFC0
001FFFC0
001FFFC0
000FFE00
ENDCHAR
STARTCHAR 0119
ENCODING 281
SWIDTH 486 0
DWIDTH 27 0
BBX 26 47 1 -8
BITMAP
03FC0000
1FFFF000
7FFFF000
FFFFF000
FFFFF000
7FFFE000
7FFFE000
7FFFE000
7FFFE000
3FFFE000
3FFFE000
3FFFC000
3FF00000
3FE00000
3FF00000
1FF00000
1FF3E000
1FFFC000
1FFFC000
1FFFC000
1FFFE000
0FFFE000
0FF80000
0FF80000
0FFC0600
0FFFFF00
0FFFFF00
07FFFF00
07FFFF00
07FFFF80
07FFFF80
07FFFF80
07FFFF80
07FFFF80
07FFFFC0
07FFFE00
03FFE000
03FF8000
03C78000
000F8000
000F0000
001F0080
001F8780
001FFFC0
001FFFC0
001FFFC0
000FFE00
ENDCHAR
STARTCHAR 011A
ENCODING 282
SWIDTH 486 0
DWIDTH 27 0
BBX 26 49 1 0
BITMAP
00060000
301F0000
FC3F0000
FEFF0000
FFFE0000
7FFC0000
1FF80000
0FF00000
03E00000
01000000
03FC0000
1FFFF000
7FFFF000
FFFFF000
FFFFF000
7FFFE000
7FFFE000
7FFFE000
7FFFE000
3FFFE000
3FFFE000
3FFFC000
3FF00000
3FE00000
3FF00000
1FF00000
1FF3E000
1FFFC000
1FFFC000
1FFFC000
1FFFE000
0FFFE000
0FF80000
0FF80000
0FFC0600
0FFFFF00
0FFFFF00
07FFFF00
07FFFF00
07FFFF80
07FFFF80
07FFFF80
07FFFF80
07FFFF80
07FFFFC0
07FFFE00
03FFE000
03FE0000
03C00000
ENDCHAR
STARTCHAR 011B
ENCODING 283
SWIDTH 486 0
DWIDTH 27 0
BBX 26 49 1 0
BITMAP
00060000
301F0000
FC3F0000
FEFF0000
FFFE0000
7FFC0000
1FF80000
0FF00000
03E00000
01000000
03FC0000
1FFFF000
7FFFF000
FFFFF000
FFFFF000
7FFFE000
7FFFE000
7FFFE000
7FFFE000
3FFFE000
3FFFE000
3FFFC000
3FF00000
3FE00000
3FF00000
1FF00000
1FF3E000
1FFFC000
1FFFC000
1FFFC000
1FFFE000
0FFFE000
0FF80000
0FF80000
0FFC0600
0FFFFF00
0FFFFF00
07FFFF00
07FFFF00
07FFFF80
07FFFF80
07FFFF80
07FFFF80
07FFFF80
07FFFFC0
07FFFE00
03FFE000
03FE0000
03C00000
ENDCHAR
STARTCHAR 011C
ENCODING 284
SWIDTH 504 0
DWIDTH 28 0
BBX 26 47 1 1
BITMAP
00070000
001FC000
003FE000
00FFF000
01FFF800
03FFFC00
03F8FE00
03F07E00
00003000
00000000
003FE000
007FF800
00FFFE00
01FFFF00
03FFFF80
03FFFF80
07FFFF80
0FFFFF80
0FFE7F00
0FF00000
1FE00000
1FC00000
1FC00000
3FC00000
3F800000
3F800000
3F807FC0
7F03FFC0
7F07FFC0
7F03FFC0
7F03FFC0
7F83FFC0
FF81FFC0
FF81FFC0
FF81FFC0
FFC3FFC0
FFFFFFC0
FFFFFFC0
FFFFFFC0
FFFFFFC0
FFFFFF80
7FFFFF00
7FFFFC00
3FFFF000
1FFFE000
0FFF8000
03FC0000
ENDCHAR
STARTCHAR 011D
ENCODING 285
SWIDTH 504 0
DWIDTH 28 0
BBX 26 47 1 1
BITMAP
00070000
001FC000
003FE000
00FFF000
01FFF800
03FFFC00
03F8FE00
03F07E00
00003000
00000000
003FE000
007FF800
00FFFE00
01FFFF00
03FFFF80
03FFFF80
07FFFF80
0FFFFF80
0FFE7F00
0FF00000
1FE00000
1FC00000
1FC00000
3FC00000
3F800000
3F800000
3F807FC0
7F03FFC0
7F07FFC0
7F03FFC0
7F03FFC0
7F83FFC0
FF81FFC0
FF81FFC0
FF81FFC0
FFC3FFC0
FFFFFFC0
FFFFFFC0
FFFFFFC0
FFFFFFC0
FFFFFF80
7FFFFF00
7FFFFC00
3FFFF000
1FFFE000
0FFF8000
03FC0000
ENDCHAR
STARTCHAR 011E
ENCODING 286
SWIDTH 504 0
DWIDTH 28 0
BBX 26 47 1 1
BITMAP
03C03E00
03E07C00
03E0FC00
01FFFC00
01FFF800
01FFF800
00FFF000
003FE000
000F0000
00000000
003FE000
007FF800
00FFFE00
01FFFF00
03FFFF80
03FFFF80
07FFFF80
0FFFFF80
0FFE7F00
0FF00000
1FE00000
1FC00000
1FC00000
3FC00000
3F800000
3F800000
3F807FC0
7F03FFC0
7F07FFC0
7F03FFC0
7F03FFC0
7F83FFC0
FF81FFC0
FF81FFC0
FF81FFC0
FFC3FFC0
FFFFFFC0
FFFFFFC0
FFFFFFC0
FFFFFFC0
FFFFFF80
7FFFFF00
7FFFFC00
3FFFF000
1FFFE000
0FFF8000
03FC0000
ENDCHAR
STARTCHAR 011F
ENCODING 287
SWIDTH 504 0
DWIDTH 28 0
BBX 26 47 1 1
BITMAP
03C03E00
03E07C00
03E0FC00
01FFFC00
01FFF800
01FFF800
00FFF000
003FE000
000F0000
00000000
003FE000
007FF800
00FFFE00
01FFFF00
03FFFF80
03FFFF80
07FFFF80
0FFFFF80
0FFE7F00
0FF00000
1FE00000
1FC00000
1FC00000
3FC00000
3F800000
3F800000
3F807FC0
7F03FFC0
7F07FFC0
7F03FFC0
7F03FFC0
7F83FFC0
FF81FFC0
FF81FFC0
FF81FFC0
FFC3FFC0
FFFFFFC0
FFFFFFC0
FFFFFFC0
FFFFFFC0
FFFFFF80
7FFFFF00
7FFFFC00
3FFFF000
1FFFE000
0FFF8000
03FC0000
ENDCHAR
STARTCHAR 0120
ENCODING 288
SWIDTH 504 0
DWIDTH 28 0
BBX 26 44 1 1
BITMAP
000E0000
001F8000
001F8000
001F8000
001F0000
000F0000
00000000
003FE000
007FF800
00FFFE00
01FFFF00
03FFFF80
03FFFF80
07FFFF80
0FFFFF80
0FFE7F00
0FF00000
1FE00000
1FC00000
1FC00000
3FC00000
3F800000
3F800000
3F807FC0
7F03FFC0
7F07FFC0
7F03FFC0
7F03FFC0
7F83FFC0
FF81FFC0
FF81FFC0
FF81FFC0
FFC3FFC0
FFFFFFC0
FFFFFFC0
FFFFFFC0
FFFFFFC0
FFFFFF80
7FFFFF00
7FFFFC00
3FFFF000
1FFFE000
0FFF8000
03FC0000
ENDCHAR
STARTCHAR 0121
ENCODING 289
SWIDTH 504 0
DWIDTH 28 0
BBX 26 44 1 1
BITMAP
000E0000
001F8000
001F8000
001F8000
001F0000
000F0000
00000000
003FE000
007FF800
00FFFE00
01FFFF00
03FFFF80
03FFFF80
07FFFF80
0FFFFF80
0FFE7F00
0FF00000
1FE00000
1FC00000
1FC00000
3FC00000
3F800000
3F800000
3F807FC0
7F03FFC0
7F07FFC0
7F03FFC0
7F03FFC0
7F83FFC0
FF81FFC0
FF81FFC0
FF81FFC0
FFC3FFC0
FFFFFFC0
FFFFFFC0
FFFFFFC0
FFFFFFC0
FFFFFF80
7FFFFF00
7FFFFC00
3FFFF000
1FFFE000
0FFF8000
03FC0000
ENDCHAR
STARTCHAR 0122
ENCODING 290
SWIDTH 504 0
DWIDTH 28 0
BBX 26 47 1 -9
BITMAP
003FE000
007FF800
00FFFE00
01FFFF00
03FFFF80
03FFFF80
07FFFF80
0FFFFF80
0FFE7F00
0FF00000
1FE00000
1FC00000
1FC00000
3FC00000
3F800000
3F800000
3F807FC0
7F03FFC0
7F07FFC0
7F03FFC0
7F03FFC0
7F83FFC0
FF81FFC0
FF81FFC0
FF81FFC0
FFC3FFC0
FFFFFFC0
FFFFFFC0
FFFFFFC0
FFFFFFC0
FFFFFF80
7FFFFF00
7FFFFC00
3FFFF000
1FFFE000
0FFF8000
03FC0000
00000000
00000000
03FC0000
03FC0000
03FC0000
03F80000
03F80000
07F00000
07F00000
03E00000
ENDCHAR
STARTCHAR 0123
ENCODING 291
SWIDTH 504 0
DWIDTH 28 0
BBX 26 47 1 -9
BITMAP
003FE000
007FF800
00FFFE00
01FFFF00
03FFFF80
03FFFF80
07FFFF80
0FFFFF80
0FFE7F00
0FF00000
1FE00000
1FC00000
1FC00000
3FC00000
3F800000
3F800000
3F807FC0
7F03FFC0
7F07FFC0
7F03FFC0
7F03FFC0
7F83FFC0
FF81FFC0
FF81FFC0
FF81FFC0
FFC3FFC0
FFFFFFC0
FFFFFFC0
FFFFFFC0
FFFFFFC0
FFFFFF80
7FFFFF00
7FFFFC00
3FFFF000
1FFFE000
0FFF8000
03FC0000
00000000
00000000
03FC0000
03FC0000
03FC0000
03F80000
03F80000
07F00000
07F00000
03E00000
ENDCHAR
STARTCHAR 0124
ENCODING 292
SWIDTH 558 0
DWIDTH 31 0
BBX 29 47 1 1
BITMAP
00007800
0001FC00
0003FE00
0007FF00
000FFF80
001FFFC0
003FCFE0
003F07E0
00080100
00000000
000C0000
03FF0000
1FFE07F8
1FFC0FF8
1FFC0FF8
0FFE1FF8
0FFE0FF8
0FFE0FF8
0FFE1FF8
1FFC1FF8
1FFC1FF8
1FFC1FF8
1FFE1FF8
1FFE1FF8
1FFF3FF8
1FFFFFF0
1FFFFFF0
1FFFFFF0
3FFFFFF0
3FFFFFF0
3FFFFFF0
3FFFFFF8
3FFFFFF8
3FFFFFF8
3FFFFFF8
3FFD3FF8
3FFC3FF8
3FFC7FF0
3FFC3FF0
3FF83FF0
7FFC7FF0
7FF87FF0
7FF87FF0
7FFC7FF0
7FF83FF0
FFF87FE0
FFF87C00
ENDCHAR
STARTCHAR 0125
ENCODING 293
SWIDTH 558 0
DWIDTH 31 0
BBX 29 47 1 1
BITMAP
00007800
0001FC00
0003FE00
0007FF00
000FFF80
001FFFC0
003FCFE0
003F07E0
00080100
00000000
000C0000
03FF0000
1FFE07F8
1FFC0FF8
1FFC0FF8
0FFE1FF8
0FFE0FF8
0FFE0FF8
0FFE1FF8
1FFC1FF8
1FFC1FF8
1FFC1FF8
1FFE1FF8
1FFE1FF8
1FFF3FF8
1FFFFFF0
1FFFFFF0
1FFFFFF0
3FFFFFF0
3FFFFFF0
3FFFFFF0
3FFFFFF8
3FFFFFF8
3FFFFFF8
3FFFFFF8
3FFD3FF8
3FFC3FF8
3FFC7FF0
3FFC3FF0
3FF83FF0
7FFC7FF0
7FF87FF0
7FF87FF0
7FFC7FF0
7FF83FF0
FFF87FE0
FFF87C00
ENDCHAR
STARTCHAR 0126
ENCODING 294
SWIDTH 576 0
DWIDTH 32 0
BBX 31 37 1 1
BITMAP
003C0000
03FF0000
1FFE07F8
1FFC0FF8
1FFFFFFE
FFFFFFFE
FFFFFFFE
FFFFFFFE
FFFFFFFE
FFFFFFFE
FFFFFFFE
FFFFFFF8
1FFE1FF8
1FFE1FF8
1FFF7FF8
1FFFFFF8
1FFFFFF0
1FFFFFF0
3FFFFFF0
3FFFFFF0
3FFFFFF0
3FFFFFF8
3FFFFFF8
3FFFFFF8
3FFFFFF8
3FFC3FF8
3FFC3FF8
3FFC7FF0
3FFC3FF0
3FF83FF0
7FFC7FF0
7FF87FF0
7FF87FF0
7FFC3FF0
7FF83FF0
FFF87FE0
FFF87C00
ENDCHAR
STARTCHAR 0127
ENCODING 295
SWIDTH 576 0
DWIDTH 32 0
BBX 31 37 1 1
BITMAP
003C0000
03FF0000
1FFE07F8
1FFC0FF8
1FFFFFFE
FFFFFFFE
FFFFFFFE
FFFFFFFE
FFFFFFFE
FFFFFFFE
FFFFFFFE
FFFFFFF8
1FFE1FF8
1FFE1FF8
1FFF7FF8
1FFFFFF8
1FFFFFF0
1FFFFFF0
3FFFFFF0
3FFFFFF0
3FFFFFF0
3FFFFFF8
3FFFFFF8
3FFFFFF8
3FFFFFF8
3FFC3FF8
3FFC3FF8
3FFC7FF0
3FFC3FF0
3FF83FF0
7FFC7FF0
7FF87FF0
7FF87FF0
7FFC3FF0
7FF83FF0
FFF87FE0
FFF87C00
ENDCHAR
STARTCHAR 0128
ENCODING 296
SWIDTH 324 0
DWIDTH 18 0
BBX 19 47 1 0
BITMAP
07C3E0
0FE7E0
1FFFE0
1FFFE0
1FFFE0
1FFFC0
1E3F80
1E0600
000000
000000
07FF80
0FFF80
0FFF00
0FFF00
0FFF00
0FFF00
0FFE00
0FFE00
0FFE00
1FFE00
1FFE00
1FFE00
1FFE00
1FFE00
1FFE00
1FFE00
1FFE00
1FFE00
1FFE00
1FFE00
3FFE00
3FFE00
3FFE00
3FFE00
3FFE00
3FFE00
3FFE00
3FFE00
3FFE00
3FFE00
3FFC00
3FFC00
3FFC00
7FFC00
7FF800
7FE000
FC0000
ENDCHAR
STARTCHAR 0129
ENCODING 297
SWIDTH 324 0
DWIDTH 18 0
BBX 19 47 1 0
BITMAP
07C3E0
0FE7E0
1FFFE0
1FFFE0
1FFFE0
1FFFC0
1E3F80
1E0600
000000
000000
07FF80
0FFF80
0FFF00
0FFF00
0FFF00
0FFF00
0FFE00
0FFE00
0FFE00
1FFE00
1FFE00
1FFE00
1FFE00
1FFE00
1FFE00
1FFE00
1FFE00
1FFE00
1FFE00
1FFE00
3FFE00
3FFE00
3FFE00
3FFE00
3FFE00
3FFE00
3FFE00
3FFE00
3FFE00
3FFE00
3FFC00
3FFC00
3FFC00
7FFC00
7FF800
7FE000
FC0000
ENDCHAR
STARTCHAR 012A
ENCODING 298
SWIDTH 324 0
DWIDTH 18 0
BBX 19 45 1 0
BITMAP
1FFFC0
1FFFE0
1FFFE0
1FFFE0
1FFFE0
000000
000000
000000
07FF80
0FFF80
0FFF00
0FFF00
0FFF00
0FFF00
0FFE00
0FFE00
0FFE00
1FFE00
1FFE00
1FFE00
1FFE00
1FFE00
1FFE00
1FFE00
1FFE00
1FFE00
1FFE00
1FFE00
3FFE00
3FFE00
3FFE00
3FFE00
3FFE00
3FFE00
3FFE00
3FFE00
3FFE00
3FFE00
3FFC00
3FFC00
3FFC00
7FFC00
7FF800
7FE000
FC0000
ENDCHAR
STARTCHAR 012B
ENCODING 299
SWIDTH 324 0
DWIDTH 18 0
BBX 19 45 1 0
BITMAP
1FFFC0
1FFFE0
1FFFE0
1FFFE0
1FFFE0
000000
000000
000000
07FF80
0FFF80
0FFF00
0FFF00
0FFF00
0FFF00
0FFE00
0FFE00
0FFE00
1FFE00
1FFE00
1FFE00
1FFE00
1FFE00
1FFE00
1FFE00
1FFE00
1FFE00
1FFE00
1FFE00
3FFE00
3FFE00
3FFE00
3FFE00
3FFE00
3FFE00
3FFE00
3FFE00
3FFE00
3FFE00
3FFC00
3FFC00
3FFC00
7FFC00
7FF800
7FE000
FC0000
ENDCHAR
STARTCHAR 012C
ENCODING 300
SWIDTH 324 0
DWIDTH 18 0
BBX 19 48 1 0
BITMAP
1E01E0
1E03E0
1F07E0
1FFFE0
0FFFC0
0FFF80
07FF00
03FE00
007000
000000
000000
07FF80
0FFF80
0FFF00
0FFF00
0FFF00
0FFF00
0FFE00
0FFE00
0FFE00
1FFE00
1FFE00
1FFE00
1FFE00
1FFE00
1FFE00
1FFE00
1FFE00
1FFE00
1FFE00
1FFE00
3FFE00
3FFE00
3FFE00
3FFE00
3FFE00
3FFE00
3FFE00
3FFE00
3FFE00
3FFE00
3FFC00
3FFC00
3FFC00
7FFC00
7FF800
7FE000
FC0000
ENDCHAR
STARTCHAR 012D
ENCODING 301
SWIDTH 324 0
DWIDTH 18 0
BBX 19 48 1 0
BITMAP
1E01E0
1E03E0
1F07E0
1FFFE0
0FFFC0
0FFF80
07FF00
03FE00
007000
000000
000000
07FF80
0FFF80
0FFF00
0FFF00
0FFF00
0FFF00
0FFE00
0FFE00
0FFE00
1FFE00
1FFE00
1FFE00
1FFE00
1FFE00
1FFE00
1FFE00
1FFE00
1FFE00
1FFE00
1FFE00
3FFE00
3FFE00
3FFE00
3FFE00
3FFE00
3FFE00
3FFE00
3FFE00
3FFE00
3FFE00
3FFC00
3FFC00
3FFC00
7FFC00
7FF800
7FE000
FC0000
ENDCHAR
STARTCHAR 012E
ENCODING 302
SWIDTH 324 0
DWIDTH 18 0
BBX 17 46 1 -8
BITMAP
07FF80
0FFF80
0FFF00
0FFF00
0FFF00
0FFF00
0FFE00
0FFE00
0FFE00
1FFE00
1FFE00
1FFE00
1FFE00
1FFE00
1FFE00
1FFE00
1FFE00
1FFE00
1FFE00
1FFE00
3FFE00
3FFE00
3FFE00
3FFE00
3FFE00
3FFE00
3FFE00
3FFE00
3FFE00
3FFE00
3FFC00
3FFC00
3FFC00
7FFC00
7FF800
7FE000
FF8000
0F8000
1F0000
1F0000
3F0000
3F0300
3FFF80
3FFF80
1FFF80
0FFF00
ENDCHAR
STARTCHAR 012F
ENCODING 303
SWIDTH 324 0
DWIDTH 18 0
BBX 17 46 1 -8
BITMAP
07FF80
0FFF80
0FFF00
0FFF00
0FFF00
0FFF00
0FFE00
0FFE00
0FFE00
1FFE00
1FFE00
1FFE00
1FFE00
1FFE00
1FFE00
1FFE00
1FFE00
1FFE00
1FFE00
1FFE00
3FFE00
3FFE00
3FFE00
3FFE00
3FFE00
3FFE00
3FFE00
3FFE00
3FFE00
3FFE00
3FFC00
3FFC00
3FFC00
7FFC00
7FF800
7FE000
FF8000
0F8000
1F0000
1F0000
3F0000
3F0300
3FFF80
3FFF80
1FFF80
0FFF00
ENDCHAR
STARTCHAR 0130
ENCODING 304
SWIDTH 324 0
DWIDTH 18 0
BBX 17 45 1 0
BITMAP
007800
00FC00
00FC00
00FC00
00F800
003000
000000
000000
07FF80
0FFF80
0FFF00
0FFF00
0FFF00
0FFF00
0FFE00
0FFE00
0FFE00
1FFE00
1FFE00
1FFE00
1FFE00
1FFE00
1FFE00
1FFE00
1FFE00
1FFE00
1FFE00
1FFE00
3FFE00
3FFE00
3FFE00
3FFE00
3FFE00
3FFE00
3FFE00
3FFE00
3FFE00
3FFE00
3FFC00
3FFC00
3FFC00
7FFC00
7FF800
7FE000
FC0000
ENDCHAR
STARTCHAR 0131
ENCODING 305
SWIDTH 324 0
DWIDTH 18 0
BBX 17 45 1 0
BITMAP
007800
00FC00
00FC00
00FC00
00F800
003000
000000
000000
07FF80
0FFF80
0FFF00
0FFF00
0FFF00
0FFF00
0FFE00
0FFE00
0FFE00
1FFE00
1FFE00
1FFE00
1FFE00
1FFE00
1FFE00
1FFE00
1FFE00
1FFE00
1FFE00
1FFE00
3FFE00
3FFE00
3FFE00
3FFE00
3FFE00
3FFE00
3FFE00
3FFE00
3FFE00
3FFE00
3FFC00
3FFC00
3FFC00
7FFC00
7FF800
7FE000
FC0000
ENDCHAR
STARTCHAR 0132
ENCODING 306
SWIDTH 594 0
DWIDTH 33 0
BBX 32 38 1 0
BITMAP
00000004
0FF803FE
1FF807FE
1FF807FE
1FF807FE
1FF007FE
1FF007FE
1FF007FE
1FF00FFE
1FF00FFE
1FF00FFE
1FF00FFE
1FF00FFF
3FF00FFF
3FF00FFF
3FF00FFF
3FF00FFF
3FF00FFF
3FF007FF
3FF007FF
3FF007FF
3FF007FF
3FF003FF
3FF003FF
3FF003FF
3FF063FE
3FF7F3FE
3FF7F1FE
3FF7FBFE
3FF7FBFE
3FF7FFFC
3FE7FFFC
7FE3FFF8
7FE3FFF8
7FE1FFF0
7FE0FFE0
FF807FC0
F8001F80
ENDCHAR
STARTCHAR 0133
ENCODING 307
SWIDTH 594 0
DWIDTH 33 0
BBX 32 38 1 0
BITMAP
00000004
0FF803FE
1FF807FE
1FF807FE
1FF807FE
1FF007FE
1FF007FE
1FF007FE
1FF00FFE
1FF00FFE
1FF00FFE
1FF00FFE
1FF00FFF
3FF00FFF
3FF00FFF
3FF00FFF
3FF00FFF
3FF00FFF
3FF007FF
3FF007FF
3FF007FF
3FF007FF
3FF003FF
3FF003FF
3FF003FF
3FF063FE
3FF7F3FE
3FF7F1FE
3FF7FBFE
3FF7FBFE
3FF7FFFC
3FE7FFFC
7FE3FFF8
7FE3FFF8
7FE1FFF0
7FE0FFE0
FF807FC0
F8001F80
ENDCHAR
STARTCHAR 0134
ENCODING 308
SWIDTH 450 0
DWIDTH 25 0
BBX 24 48 1 0
BITMAP
0003C0
000FF0
001FF8
003FFE
007FFF
007F7F
00FE3F
00FC0C
006000
000000
00000C
001FFC
001FFE
003FFE
003FFE
003FFE
003FFE
003FFE
007FFE
007FFE
007FFE
007FFE
007FFE
007FFE
007FFF
007FFF
007FFF
007FFF
003FFF
003FFF
003FFF
001FFF
001FFF
001FFE
001FFE
070FFE
FF0FFE
FF8FFE
FFCFFE
FFDFFC
FFEFFC
FFFFF8
7FFFF8
3FFFF0
3FFFE0
1FFFC0
07FF00
00FE00
ENDCHAR
STARTCHAR 0135
ENCODING 309
SWIDTH 450 0
DWIDTH 25 0
BBX 24 48 1 0
BITMAP
0003C0
000FF0
001FF8
003FFE
007FFF
007F7F
00FE3F
00FC0C
006000
000000
00000C
001FFC
001FFE
003FFE
003FFE
003FFE
003FFE
003FFE
007FFE
007FFE
007FFE
007FFE
007FFE
007FFE
007FFF
007FFF
007FFF
007FFF
003FFF
003FFF
003FFF
001FFF
001FFF
001FFE
001FFE
070FFE
FF0FFE
FF8FFE
FFCFFE
FFDFFC
FFEFFC
FFFFF8
7FFFF8
3FFFF0
3FFFE0
1FFFC0
07FF00
00FE00
ENDCHAR
STARTCHAR 0136
ENCODING 310
SWIDTH 540 0
DWIDTH 30 0
BBX 29 48 1 -9
BITMAP
00000100
00860700
FFFE0F80
7FFE1FC0
7FFE1FF8
7FFE3FF8
7FFE7FF0
7FFE7FE0
7FFEFFC0
7FFEFFC0
7FFEFF80
7FFFFF00
FFFFFE00
FFFFFE00
FFFFFC00
FFFFFC00
FFFFF800
FFFFF800
FFFFF000
FFFFE000
FFFFC000
FFFFE000
FFFFF000
FFFFF800
FFFFFC00
FFFFFC00
FFFFFE00
FFFFFF00
FFFFFF80
FFFEFFC0
FFFC7FC0
FFFC7FE0
FFFC3FE0
FFFC3FF0
FFFC1FF0
FFFE0FF8
FFFE0F98
FFFC0F00
00700600
00000000
000FE000
000FE000
000FE000
001FE000
001FC000
001FC000
001F8000
000F0000
ENDCHAR
STARTCHAR 0137
ENCODING 311
SWIDTH 540 0
DWIDTH 30 0
BBX 29 48 1 -9
BITMAP
00000100
00860700
FFFE0F80
7FFE1FC0
7FFE1FF8
7FFE3FF8
7FFE7FF0
7FFE7FE0
7FFEFFC0
7FFEFFC0
7FFEFF80
7FFFFF00
FFFFFE00
FFFFFE00
FFFFFC00
FFFFFC00
FFFFF800
FFFFF800
FFFFF000
FFFFE000
FFFFC000
FFFFE000
FFFFF000
FFFFF800
FFFFFC00
FFFFFC00
FFFFFE00
FFFFFF00
FFFFFF80
FFFEFFC0
FFFC7FC0
FFFC7FE0
FFFC3FE0
FFFC3FF0
FFFC1FF0
FFFE0FF8
FFFE0F98
FFFC0F00
00700600
00000000
000FE000
000FE000
000FE000
001FE000
001FC000
001FC000
001F8000
000F0000
ENDCHAR
STARTCHAR 0138
ENCODING 312
SWIDTH 522 0
DWIDTH 29 0
BBX 28 31 1 -1
BITMAP
00040600
FFFC1F00
7FFC3F80
7FFC3FF0
7FFC7FE0
7FFCFFC0
7FFCFF80
7FFDFF00
FFFDFE00
FFFFFC00
FFFFFC00
FFFFF800
FFFFF000
FFFFF000
FFFFE000
FFFFC000
FFFFC000
FFFFE000
FFFFF000
FFFFF800
FFFFFC00
FFFFFE00
FFFDFF00
FFFCFF80
FFFCFFC0
FFF87FC0
FFFC3FE0
FFFC1FE0
FFFC1FB0
FFF81E00
00000C00
ENDCHAR
STARTCHAR 0139
ENCODING 313
SWIDTH 504 0
DWIDTH 28 0
BBX 26 49 1 -1
BITMAP
0003FC00
0003FC00
0007F800
0007F000
000FE000
000FC000
001F8000
001F0000
00030000
00000000
003FC000
03FFE000
07FFE000
07FFE000
0FFFE000
0FFFE000
0FFFC000
0FFFC000
0FFFC000
0FFFC000
0FFFC000
0FFFC000
0FFF8000
0FFF8000
0FFF8000
0FFF8000
1FFF8000
1FFF8000
1FFF0000
1FFF0000
1FFF0000
3FFF0000
3FFF0000
3FFF0000
3FFF0000
3FFF0000
3FFF0F80
3FFFFFC0
3FFFFFC0
7FFFFFC0
3FFFFFC0
7FFFFFC0
7FFFFFC0
7FFFFFC0
7FFFFFC0
7FFFFFC0
7FFFFC00
7FE00000
E0000000
ENDCHAR
STARTCHAR 013A
ENCODING 314
SWIDTH 504 0
DWIDTH 28 0
BBX 26 49 1 -1
BITMAP
0003FC00
0003FC00
0007F800
0007F000
000FE000
000FC000
001F8000
001F0000
00030000
00000000
003FC000
03FFE000
07FFE000
07FFE000
0FFFE000
0FFFE000
0FFFC000
0FFFC000
0FFFC000
0FFFC000
0FFFC000
0FFFC000
0FFF8000
0FFF8000
0FFF8000
0FFF8000
1FFF8000
1FFF8000
1FFF0000
1FFF0000
1FFF0000
3FFF0000
3FFF0000
3FFF0000
3FFF0000
3FFF0000
3FFF0F80
3FFFFFC0
3FFFFFC0
7FFFFFC0
3FFFFFC0
7FFFFFC0
7FFFFFC0
7FFFFFC0
7FFFFFC0
7FFFFFC0
7FFFFC00
7FE00000
E0000000
ENDCHAR
STARTCHAR 013B
ENCODING 315
SWIDTH 504 0
DWIDTH 28 0
BBX 26 47 1 -9
BITMAP
003FC000
03FFE000
07FFE000
07FFE000
0FFFE000
0FFFE000
0FFFC000
0FFFC000
0FFFC000
0FFFC000
0FFFC000
0FFFC000
0FFF8000
0FFF8000
0FFF8000
0FFF8000
1FFF8000
1FFF8000
1FFF0000
1FFF0000
1FFF0000
3FFF0000
3FFF0000
3FFF0000
3FFF0000
3FFF0000
3FFF0F80
3FFFFFC0
3FFFFFC0
7FFFFFC0
3FFFFFC0
7FFFFFC0
7FFFFFC0
7FFFFFC0
7FFFFFC0
7FFFFFC0
7FFFFC00
7FE00000
E0000000
007F0000
007F0000
007F8000
007F0000
00FF0000
00FE0000
00FC0000
00780000
ENDCHAR
STARTCHAR 013C
ENCODING 316
SWIDTH 504 0
DWIDTH 28 0
BBX 26 47 1 -9
BITMAP
003FC000
03FFE000
07FFE000
07FFE000
0FFFE000
0FFFE000
0FFFC000
0FFFC000
0FFFC000
0FFFC000
0FFFC000
0FFFC000
0FFF8000
0FFF8000
0FFF8000
0FFF8000
1FFF8000
1FFF8000
1FFF0000
1FFF0000
1FFF0000
3FFF0000
3FFF0000
3FFF0000
3FFF0000
3FFF0000
3FFF0F80
3FFFFFC0
3FFFFFC0
7FFFFFC0
3FFFFFC0
7FFFFFC0
7FFFFFC0
7FFFFFC0
7FFFFFC0
7FFFFFC0
7FFFFC00
7FE00000
E0000000
007F0000
007F0000
007F8000
007F0000
00FF0000
00FE0000
00FC0000
00780000
ENDCHAR
STARTCHAR 013D
ENCODING 317
SWIDTH 504 0
DWIDTH 28 0
BBX 27 41 1 -1
BITMAP
00000300
000007E0
003FC7E0
03FFE7E0
07FFE7E0
07FFE7E0
0FFFE7C0
0FFFE7C0
0FFFCFC0
0FFFCFC0
0FFFCF80
0FFFCF80
0FFFC700
0FFFC200
0FFF8000
0FFF8000
0FFF8000
0FFF8000
1FFF8000
1FFF8000
1FFF0000
1FFF0000
1FFF0000
3FFF0000
3FFF0000
3FFF0000
3FFF0000
3FFF0000
3FFF0F80
3FFFFFC0
3FFFFFC0
7FFFFFC0
3FFFFFC0
7FFFFFC0
7FFFFFC0
7FFFFFC0
7FFFFFC0
7FFFFFC0
7FFFFC00
7FE00000
E0000000
ENDCHAR
STARTCHAR 013E
ENCODING 318
SWIDTH 504 0
DWIDTH 28 0
BBX 27 41 1 -1
BITMAP
00000300
000007E0
003FC7E0
03FFE7E0
07FFE7E0
07FFE7E0
0FFFE7C0
0FFFE7C0
0FFFCFC0
0FFFCFC0
0FFFCF80
0FFFCF80
0FFFC700
0FFFC200
0FFF8000
0FFF8000
0FFF8000
0FFF8000
1FFF8000
1FFF8000
1FFF0000
1FFF0000
1FFF0000
3FFF0000
3FFF0000
3FFF0000
3FFF0000
3FFF0000
3FFF0F80
3FFFFFC0
3FFFFFC0
7FFFFFC0
3FFFFFC0
7FFFFFC0
7FFFFFC0
7FFFFFC0
7FFFFFC0
7FFFFFC0
7FFFFC00
7FE00000
E0000000
ENDCHAR
STARTCHAR 013F
ENCODING 319
SWIDTH 504 0
DWIDTH 28 0
BBX 26 39 1 -1
BITMAP
003FC000
03FFE000
07FFE000
07FFE000
0FFFE000
0FFFE000
0FFFC000
0FFFC000
0FFFC000
0FFFC000
0FFFC000
0FFFC000
0FFF8000
0FFF8000
0FFF8000
0FFF8000
1FFF9E00
1FFFBF00
1FFF3F00
1FFF3F00
1FFF3E00
3FFF0C00
3FFF0000
3FFF0000
3FFF0000
3FFF0000
3FFF0F80
3FFFFFC0
3FFFFFC0
7FFFFFC0
3FFFFFC0
7FFFFFC0
7FFFFFC0
7FFFFFC0
7FFFFFC0
7FFFFFC0
7FFFFC00
7FE00000
E0000000
ENDCHAR
STARTCHAR 0140
ENCODING 320
SWIDTH 504 0
DWIDTH 28 0
BBX 26 39 1 -1
BITMAP
003FC000
03FFE000
07FFE000
07FFE000
0FFFE000
0FFFE000
0FFFC000
0FFFC000
0FFFC000
0FFFC000
0FFFC000
0FFFC000
0FFF8000
0FFF8000
0FFF8000
0FFF8000
1FFF9E00
1FFFBF00
1FFF3F00
1FFF3F00
1FFF3E00
3FFF0C00
3FFF0000
3FFF0000
3FFF0000
3FFF0000
3FFF0F80
3FFFFFC0
3FFFFFC0
7FFFFFC0
3FFFFFC0
7FFFFFC0
7FFFFFC0
7FFFFFC0
7FFFFFC0
7FFFFFC0
7FFFFC00
7FE00000
E0000000
ENDCHAR
STARTCHAR 0141
ENCODING 321
SWIDTH 540 0
DWIDTH 30 0
BBX 29 39 0 -1
BITMAP
0007F800
007FFC00
00FFFC00
01FFFC00
01FFFC00
01FFF800
01FFF8C0
01FFF9E0
01FFFFF0
01FFFFF0
01FFFFF8
01FFFFF8
01FFFFF0
01FFFFE0
01FFFFC0
03FFFF80
03FFFE00
03FFFC00
03FFF800
07FFE000
07FFE000
1FFFE000
3FFFE000
7FFFC000
FFFFC000
FFFFC000
FFFFE3F0
FFFFFFF0
7FFFFFF0
7FFFFFF0
7FFFFFF0
0FFFFFF0
0FFFFFF8
0FFFFFF8
0FFFFFF8
0FFFFFF8
0FFFFF80
1FFC0000
1C000000
ENDCHAR
STARTCHAR 0142
ENCODING 322
SWIDTH 540 0
DWIDTH 30 0
BBX 29 39 0 -1
BITMAP
0007F800
007FFC00
00FFFC00
01FFFC00
01FFFC00
01FFF800
01FFF8C0
01FFF9E0
01FFFFF0
01FFFFF0
01FFFFF8
01FFFFF8
01FFFFF0
01FFFFE0
01FFFFC0
03FFFF80
03FFFE00
03FFFC00
03FFF800
07FFE000
07FFE000
1FFFE000
3FFFE000
7FFFC000
FFFFC000
FFFFC000
FFFFE3F0
FFFFFFF0
7FFFFFF0
7FFFFFF0
7FFFFFF0
0FFFFFF0
0FFFFFF8
0FFFFFF8
0FFFFFF8
0FFFFFF8
0FFFFF80
1FFC0000
1C000000
ENDCHAR
STARTCHAR 0143
ENCODING 323
SWIDTH 558 0
DWIDTH 31 0
BBX 30 48 1 0
BITMAP
00001FC0
00003FC0
00003F80
00007F00
0000FF00
0000FE00
0001FC00
0001F800
00003000
00000000
00000000
03E003F0
0FFE1FF8
1FFE1FFC
1FFE1FFC
1FFE1FF8
1FFE1FF8
1FFE1FF8
1FFE1FF8
3FFE1FF8
3FFE1FF8
3FFF3FF8
3FFF1FF8
3FFF1FF8
3FFF1FF0
3FFFBFF0
7FFFBFF0
7FFFBFF0
7FFFBFF0
7FFFFFF0
7FFFFFF0
7FFFFFF0
7FFFFFF0
7FF7FFF0
7FF7FFF0
7FF7FFE0
7FF3FFE0
7FF3FFE0
7FF1FFE0
7FF1FFE0
7FE1FFE0
FFE0FFE0
FFE0FFE0
FFE0FFE0
FFE0FFE0
FFE0FFE0
FFC07FC0
F0000000
ENDCHAR
STARTCHAR 0144
ENCODING 324
SWIDTH 558 0
DWIDTH 31 0
BBX 30 48 1 0
BITMAP
00001FC0
00003FC0
00003F80
00007F00
0000FF00
0000FE00
0001FC00
0001F800
00003000
00000000
00000000
03E003F0
0FFE1FF8
1FFE1FFC
1FFE1FFC
1FFE1FF8
1FFE1FF8
1FFE1FF8
1FFE1FF8
3FFE1FF8
3FFE1FF8
3FFF3FF8
3FFF1FF8
3FFF1FF8
3FFF1FF0
3FFFBFF0
7FFFBFF0
7FFFBFF0
7FFFBFF0
7FFFFFF0
7FFFFFF0
7FFFFFF0
7FFFFFF0
7FF7FFF0
7FF7FFF0
7FF7FFE0
7FF3FFE0
7FF3FFE0
7FF1FFE0
7FF1FFE0
7FE1FFE0
FFE0FFE0
FFE0FFE0
FFE0FFE0
FFE0FFE0
FFE0FFE0
FFC07FC0
F0000000
ENDCHAR
STARTCHAR 0145
ENCODING 325
SWIDTH 558 0
DWIDTH 31 0
BBX 30 46 1 -9
BITMAP
03E003F0
0FFE1FF8
1FFE1FFC
1FFE1FFC
1FFE1FF8
1FFE1FF8
1FFE1FF8
1FFE1FF8
3FFE1FF8
3FFE1FF8
3FFF3FF8
3FFF1FF8
3FFF1FF8
3FFF1FF0
3FFFBFF0
7FFFBFF0
7FFFBFF0
7FFFBFF0
7FFFFFF0
7FFFFFF0
7FFFFFF0
7FFFFFF0
7FF7FFF0
7FF7FFF0
7FF7FFE0
7FF3FFE0
7FF3FFE0
7FF1FFE0
7FF1FFE0
7FE1FFE0
FFE0FFE0
FFE0FFE0
FFE0FFE0
FFE0FFE0
FFE0FFE0
FFC07FC0
F0000000
00000000
007F0000
007F0000
007F8000
007F0000
00FF0000
00FE0000
00FC0000
00780000
ENDCHAR
STARTCHAR 0146
ENCODING 326
SWIDTH 558 0
DWIDTH 31 0
BBX 30 46 1 -9
BITMAP
03E003F0
0FFE1FF8
1FFE1FFC
1FFE1FFC
1FFE1FF8
1FFE1FF8
1FFE1FF8
1FFE1FF8
3FFE1FF8
3FFE1FF8
3FFF3FF8
3FFF1FF8
3FFF1FF8
3FFF1FF0
3FFFBFF0
7FFFBFF0
7FFFBFF0
7FFFBFF0
7FFFFFF0
7FFFFFF0
7FFFFFF0
7FFFFFF0
7FF7FFF0
7FF7FFF0
7FF7FFE0
7FF3FFE0
7FF3FFE0
7FF1FFE0
7FF1FFE0
7FE1FFE0
FFE0FFE0
FFE0FFE0
FFE0FFE0
FFE0FFE0
FFE0FFE0
FFC07FC0
F0000000
00000000
007F0000
007F0000
007F8000
007F0000
00FF0000
00FE0000
00FC0000
00780000
ENDCHAR
STARTCHAR 0147
ENCODING 327
SWIDTH 558 0
DWIDTH 31 0
BBX 30 47 1 0
BITMAP
007C0F80
007E3FC0
007F7F80
003FFF00
001FFE00
000FFC00
0003F800
0001E000
00000000
00000000
03E003F0
0FFE1FF8
1FFE1FFC
1FFE1FFC
1FFE1FF8
1FFE1FF8
1FFE1FF8
1FFE1FF8
3FFE1FF8
3FFE1FF8
3FFF3FF8
3FFF1FF8
3FFF1FF8
3FFF1FF0
3FFFBFF0
7FFFBFF0
7FFFBFF0
7FFFBFF0
7FFFFFF0
7FFFFFF0
7FFFFFF0
7FFFFFF0
7FF7FFF0
7FF7FFF0
7FF7FFE0
7FF3FFE0
7FF3FFE0
7FF1FFE0
7FF1FFE0
7FE1FFE0
FFE0FFE0
FFE0FFE0
FFE0FFE0
FFE0FFE0
FFE0FFE0
FFC07FC0
F0000000
ENDCHAR
STARTCHAR 0148
ENCODING 328
SWIDTH 558 0
DWIDTH 31 0
BBX 30 47 1 0
BITMAP
007C0F80
007E3FC0
007F7F80
003FFF00
001FFE00
000FFC00
0003F800
0001E000
00000000
00000000
03E003F0
0FFE1FF8
1FFE1FFC
1FFE1FFC
1FFE1FF8
1FFE1FF8
1FFE1FF8
1FFE1FF8
3FFE1FF8
3FFE1FF8
3FFF3FF8
3FFF1FF8
3FFF1FF8
3FFF1FF0
3FFFBFF0
7FFFBFF0
7FFFBFF0
7FFFBFF0
7FFFFFF0
7FFFFFF0
7FFFFFF0
7FFFFFF0
7FF7FFF0
7FF7FFF0
7FF7FFE0
7FF3FFE0
7FF3FFE0
7FF1FFE0
7FF1FFE0
7FE1FFE0
FFE0FFE0
FFE0FFE0
FFE0FFE0
FFE0FFE0
FFE0FFE0
FFC07FC0
F0000000
ENDCHAR
STARTCHAR 0149
ENCODING 329
SWIDTH 630 0
DWIDTH 35 0
BBX 34 40 1 1
BITMAP
1000000000
7F00000000
7F80000000
7F80000000
7F8F803F00
7FBFF0FF80
7FBFF0FFC0
7FBFF0FF80
7FBFF0FF80
7FFFF0FF80
7F7FF0FF80
FF7FF0FF80
FF7FF0FF80
FF7FF8FF80
FE7FF9FF80
FE7FF8FF80
FEFFF9FF00
7CFFFDFF00
7CFFFDFF00
38FFFDFF00
00FFFDFF00
00FFFFFF00
00FFFFFF00
00FFFFFF00
00FFFFFF00
00FFFFFF00
00FFFFFF00
00FFDFFF00
00FF9FFF00
00FF9FFE00
01FF8FFE00
01FF8FFE00
01FF8FFE00
01FF8FFE00
01FF87FE00
01FF87FE00
01FF87FE00
01FF87FE00
01FF87FE00
01FF03FC00
ENDCHAR
STARTCHAR 014A
ENCODING 330
SWIDTH 540 0
DWIDTH 30 0
BBX 29 46 1 -7
BITMAP
3E000000
FF0FE000
FF3FFC00
FFFFFE00
FFFFFF00
FFFFFF00
FFFFFF80
FFFFFFC0
FFFFFFC0
FFFFFFE0
FFFFFFE0
FFFFFFE0
FFFFFFF0
FFE0FFF0
FFC07FF0
FFC03FF0
FFC03FF0
FFC03FF8
FF801FF8
FF801FF8
FF801FF8
FF801FF8
FF801FF0
FF801FF0
7F801FF0
7F801FF0
7F801FF0
FF801FF0
7F801FF0
7F801FF0
7F801FF0
7F801FF0
7F801FE0
7F801FE0
7F801FE0
7F801FE0
7F803FE0
7F807FE0
0003FFE0
000FFFC0
000FFFC0
000FFF80
000FFF00
000FFE00
000FF800
000F8000
ENDCHAR
STARTCHAR 014B
ENCODING 331
SWIDTH 540 0
DWIDTH 30 0
BBX 29 46 1 -7
BITMAP
3E000000
FF0FE000
FF3FFC00
FFFFFE00
FFFFFF00
FFFFFF00
FFFFFF80
FFFFFFC0
FFFFFFC0
FFFFFFE0
FFFFFFE0
FFFFFFE0
FFFFFFF0
FFE0FFF0
FFC07FF0
FFC03FF0
FFC03FF0
FFC03FF8
FF801FF8
FF801FF8
FF801FF8
FF801FF8
FF801FF0
FF801FF0
7F801FF0
7F801FF0
7F801FF0
FF801FF0
7F801FF0
7F801FF0
7F801FF0
7F801FF0
7F801FE0
7F801FE0
7F801FE0
7F801FE0
7F803FE0
7F807FE0
0003FFE0
000FFFC0
000FFFC0
000FFF80
000FFF00
000FFE00
000FF800
000F8000
ENDCHAR
STARTCHAR 014C
ENCODING 332
SWIDTH 522 0
DWIDTH 29 0
BBX 28 45 1 0
BITMAP
3FFF8000
3FFFC000
3FFFC000
3FFFC000
3FFFC000
10000000
00700000
00FC0000
01FF0000
03FFC000
07FFE000
07FFF800
0FFFFC00
0FFFFC00
1FFFFE00
1FFFFF00
1FFFFF00
3FFFFF80
3FFFFF80
7FFFFFC0
7FFFFFC0
7FF0FFE0
FFE07FE0
FFE07FE0
FFC07FF0
FFC07FF0
FFC07FF0
FFC07FF0
FFE07FF0
FFF0FFF0
FFF9FFF0
7FFFFFF0
7FFFFFE0
7FFFFFE0
7FFFFFE0
3FFFFFE0
3FFFFFE0
3FFFFFC0
1FFFFFC0
1FFFFFC0
0FFFFF80
07FFFF80
03FFFE00
00FFFC00
003FF000
ENDCHAR
STARTCHAR 014D
ENCODING 333
SWIDTH 522 0
DWIDTH 29 0
BBX 28 45 1 0
BITMAP
3FFF8000
3FFFC000
3FFFC000
3FFFC000
3FFFC000
10000000
00700000
00FC0000
01FF0000
03FFC000
07FFE000
07FFF800
0FFFFC00
0FFFFC00
1FFFFE00
1FFFFF00
1FFFFF00
3FFFFF80
3FFFFF80
7FFFFFC0
7FFFFFC0
7FF0FFE0
FFE07FE0
FFE07FE0
FFC07FF0
FFC07FF0
FFC07FF0
FFC07FF0
FFE07FF0
FFF0FFF0
FFF9FFF0
7FFFFFF0
7FFFFFE0
7FFFFFE0
7FFFFFE0
3FFFFFE0
3FFFFFE0
3FFFFFC0
1FFFFFC0
1FFFFFC0
0FFFFF80
07FFFF80
03FFFE00
00FFFC00
003FF000
ENDCHAR
STARTCHAR 014E
ENCODING 334
SWIDTH 522 0
DWIDTH 29 0
BBX 28 48 1 0
BITMAP
3C07C000
3C07C000
3E0FC000
3FFF8000
1FFF8000
1FFF0000
0FFE0000
03FC0000
00000000
00700000
00FC0000
01FF0000
03FFC000
07FFE000
07FFF800
0FFFFC00
0FFFFC00
1FFFFE00
1FFFFF00
1FFFFF00
3FFFFF80
3FFFFF80
7FFFFFC0
7FFFFFC0
7FF0FFE0
FFE07FE0
FFE07FE0
FFC07FF0
FFC07FF0
FFC07FF0
FFC07FF0
FFE07FF0
FFF0FFF0
FFF9FFF0
7FFFFFF0
7FFFFFE0
7FFFFFE0
7FFFFFE0
3FFFFFE0
3FFFFFE0
3FFFFFC0
1FFFFFC0
1FFFFFC0
0FFFFF80
07FFFF80
03FFFE00
00FFFC00
003FF000
ENDCHAR
STARTCHAR 014F
ENCODING 335
SWIDTH 522 0
DWIDTH 29 0
BBX 28 48 1 0
BITMAP
3C07C000
3C07C000
3E0FC000
3FFF8000
1FFF8000
1FFF0000
0FFE0000
03FC0000
00000000
00700000
00FC0000
01FF0000
03FFC000
07FFE000
07FFF800
0FFFFC00
0FFFFC00
1FFFFE00
1FFFFF00
1FFFFF00
3FFFFF80
3FFFFF80
7FFFFFC0
7FFFFFC0
7FF0FFE0
FFE07FE0
FFE07FE0
FFC07FF0
FFC07FF0
FFC07FF0
FFC07FF0
FFE07FF0
FFF0FFF0
FFF9FFF0
7FFFFFF0
7FFFFFE0
7FFFFFE0
7FFFFFE0
3FFFFFE0
3FFFFFE0
3FFFFFC0
1FFFFFC0
1FFFFFC0
0FFFFF80
07FFFF80
03FFFE00
00FFFC00
003FF000
ENDCHAR
STARTCHAR 0150
ENCODING 336
SWIDTH 522 0
DWIDTH 29 0
BBX 28 48 1 0
BITMAP
03F8FE00
03FDFE00
07F9FC00
0FF3FC00
0FE3F800
1FC7F000
1F87E000
1F0FC000
06018000
00700000
00FC0000
01FF0000
03FFC000
07FFE000
07FFF800
0FFFFC00
0FFFFC00
1FFFFE00
1FFFFF00
1FFFFF00
3FFFFF80
3FFFFF80
7FFFFFC0
7FFFFFC0
7FF0FFE0
FFE07FE0
FFE07FE0
FFC07FF0
FFC07FF0
FFC07FF0
FFC07FF0
FFE07FF0
FFF0FFF0
FFF9FFF0
7FFFFFF0
7FFFFFE0
7FFFFFE0
7FFFFFE0
3FFFFFE0
3FFFFFE0
3FFFFFC0
1FFFFFC0
1FFFFFC0
0FFFFF80
07FFFF80
03FFFE00
00FFFC00
003FF000
ENDCHAR
STARTCHAR 0151
ENCODING 337
SWIDTH 522 0
DWIDTH 29 0
BBX 28 48 1 0
BITMAP
03F8FE00
03FDFE00
07F9FC00
0FF3FC00
0FE3F800
1FC7F000
1F87E000
1F0FC000
06018000
00700000
00FC0000
01FF0000
03FFC000
07FFE000
07FFF800
0FFFFC00
0FFFFC00
1FFFFE00
1FFFFF00
1FFFFF00
3FFFFF80
3FFFFF80
7FFFFFC0
7FFFFFC0
7FF0FFE0
FFE07FE0
FFE07FE0
FFC07FF0
FFC07FF0
FFC07FF0
FFC07FF0
FFE07FF0
FFF0FFF0
FFF9FFF0
7FFFFFF0
7FFFFFE0
7FFFFFE0
7FFFFFE0
3FFFFFE0
3FFFFFE0
3FFFFFC0
1FFFFFC0
1FFFFFC0
0FFFFF80
07FFFF80
03FFFE00
00FFFC00
003FF000
ENDCHAR
STARTCHAR 0152
ENCODING 338
SWIDTH 738 0
DWIDTH 41 0
BBX 39 40 1 -1
BITMAP
0000010000
0001FFFF00
0007FFFFC0
001FFFFF80
003FFFFF80
00FFFFFF80
01FFFFFF80
03FFFFFF80
07FFFFFF00
0FFFFFFF00
0FFFFFFF80
1FFFFFFF00
1FFFFFC000
3FFFFF8000
3FFFFF8000
7FF8FF8000
7FE07FC700
7FE07FFF00
FFE07FFF00
FFE03FFF00
FFE03FFF00
FFE03FFF80
FFE07FF000
FFE07FE000
FFF0FFE018
FFFFFFFFF8
FFFFFFFFF8
7FFFFFFFFC
7FFFFFFFFC
7FFFFFFFFC
7FFFFFFFFC
7FFFFFFFFE
3FFFFFFFFE
3FFFFFFFFE
3FFFFFFFFE
1FFFFFFFFC
0FFFFFFFC0
07FFFFFC00
01FFEF8000
007F000000
ENDCHAR
STARTCHAR 0153
ENCODING 339
SWIDTH 738 0
DWIDTH 41 0
BBX 39 40 1 -1
BITMAP
0000010000
0001FFFF00
0007FFFFC0
001FFFFF80
003FFFFF80
00FFFFFF80
01FFFFFF80
03FFFFFF80
07FFFFFF00
0FFFFFFF00
0FFFFFFF80
1FFFFFFF00
1FFFFFC000
3FFFFF8000
3FFFFF8000
7FF8FF8000
7FE07FC700
7FE07FFF00
FFE07FFF00
FFE03FFF00
FFE03FFF00
FFE03FFF80
FFE07FF000
FFE07FE000
FFF0FFE018
FFFFFFFFF8
FFFFFFFFF8
7FFFFFFFFC
7FFFFFFFFC
7FFFFFFFFC
7FFFFFFFFC
7FFFFFFFFE
3FFFFFFFFE
3FFFFFFFFE
3FFFFFFFFE
1FFFFFFFFC
0FFFFFFFC0
07FFFFFC00
01FFEF8000
007F000000
ENDCHAR
STARTCHAR 0154
ENCODING 340
SWIDTH 576 0
DWIDTH 32 0
BBX 30 49 1 -1
BITMAP
007F0000
00FF0000
00FE0000
01FE0000
01FC0000
03F80000
03F00000
07E00000
00C00000
00000000
00FF0000
1FFFC000
7FFFF800
FFFFFC00
FFFFFF00
FFFFFF80
FFF87F80
FFF81F80
FFF80FC0
FFF80FC0
FFF80FC0
FFF80FC0
FFF80FC0
7FF81FC0
7FFC3FC0
7FFEFFC0
7FFFFF80
7FFFFF80
7FFFFF00
7FFFF800
7FFFF800
7FFFFC00
7FFFFC00
7FFFFE00
7FFFFF00
7FFEFF00
7FFEFF80
3FFE7FC0
7FFE7FC0
3FFE3FE0
3FFE1FE0
3FFE1FF0
3FFE1FF8
3FFF0FF8
3FFF0FFC
1FFF07FC
1FFE07FC
1FFF03E0
0FF80000
ENDCHAR
STARTCHAR 0155
ENCODING 341
SWIDTH 576 0
DWIDTH 32 0
BBX 30 49 1 -1
BITMAP
007F0000
00FF0000
00FE0000
01FE0000
01FC0000
03F80000
03F00000
07E00000
00C00000
00000000
00FF0000
1FFFC000
7FFFF800
FFFFFC00
FFFFFF00
FFFFFF80
FFF87F80
FFF81F80
FFF80FC0
FFF80FC0
FFF80FC0
FFF80FC0
FFF80FC0
7FF81FC0
7FFC3FC0
7FFEFFC0
7FFFFF80
7FFFFF80
7FFFFF00
7FFFF800
7FFFF800
7FFFFC00
7FFFFC00
7FFFFE00
7FFFFF00
7FFEFF00
7FFEFF80
3FFE7FC0
7FFE7FC0
3FFE3FE0
3FFE1FE0
3FFE1FF0
3FFE1FF8
3FFF0FF8
3FFF0FFC
1FFF07FC
1FFE07FC
1FFF03E0
0FF80000
ENDCHAR
STARTCHAR 0156
ENCODING 342
SWIDTH 576 0
DWIDTH 32 0
BBX 30 47 1 -9
BITMAP
00FF0000
1FFFC000
7FFFF800
FFFFFC00
FFFFFF00
FFFFFF80
FFF87F80
FFF81F80
FFF80FC0
FFF80FC0
FFF80FC0
FFF80FC0
FFF80FC0
7FF81FC0
7FFC3FC0
7FFEFFC0
7FFFFF80
7FFFFF80
7FFFFF00
7FFFF800
7FFFF800
7FFFFC00
7FFFFC00
7FFFFE00
7FFFFF00
7FFEFF00
7FFEFF80
3FFE7FC0
7FFE7FC0
3FFE3FE0
3FFE1FE0
3FFE1FF0
3FFE1FF8
3FFF0FF8
3FFF0FFC
1FFF07FC
1FFE07FC
1FFF03E0
0FF80000
0003F800
0003F800
0003F800
0003F800
0007F800
0007F000
0007E000
0003C000
ENDCHAR
STARTCHAR 0157
ENCODING 343
SWIDTH 576 0
DWIDTH 32 0
BBX 30 47 1 -9
BITMAP
00FF0000
1FFFC000
7FFFF800
FFFFFC00
FFFFFF00
FFFFFF80
FFF87F80
FFF81F80
FFF80FC0
FFF80FC0
FFF80FC0
FFF80FC0
FFF80FC0
7FF81FC0
7FFC3FC0
7FFEFFC0
7FFFFF80
7FFFFF80
7FFFFF00
7FFFF800
7FFFF800
7FFFFC00
7FFFFC00
7FFFFE00
7FFFFF00
7FFEFF00
7FFEFF80
3FFE7FC0
7FFE7FC0
3FFE3FE0
3FFE1FE0
3FFE1FF0
3FFE1FF8
3FFF0FF8
3FFF0FFC
1FFF07FC
1FFE07FC
1FFF03E0
0FF80000
0003F800
0003F800
0003F800
0003F800
0007F800
0007F000
0007E000
0003C000
ENDCHAR
STARTCHAR 0158
ENCODING 344
SWIDTH 576 0
DWIDTH 32 0
BBX 30 49 1 -1
BITMAP
001F0000
F83F0000
FE7F0000
FFFE0000
7FFC0000
3FF80000
0FF00000
07E00000
01800000
00000000
00FF0000
1FFFC000
7FFFF800
FFFFFC00
FFFFFF00
FFFFFF80
FFF87F80
FFF81F80
FFF80FC0
FFF80FC0
FFF80FC0
FFF80FC0
FFF80FC0
7FF81FC0
7FFC3FC0
7FFEFFC0
7FFFFF80
7FFFFF80
7FFFFF00
7FFFF800
7FFFF800
7FFFFC00
7FFFFC00
7FFFFE00
7FFFFF00
7FFEFF00
7FFEFF80
3FFE7FC0
7FFE7FC0
3FFE3FE0
3FFE1FE0
3FFE1FF0
3FFE1FF8
3FFF0FF8
3FFF0FFC
1FFF07FC
1FFE07FC
1FFF03E0
0FF80000
ENDCHAR
STARTCHAR 0159
ENCODING 345
SWIDTH 576 0
DWIDTH 32 0
BBX 30 49 1 -1
BITMAP
001F0000
F83F0000
FE7F0000
FFFE0000
7FFC0000
3FF80000
0FF00000
07E00000
01800000
00000000
00FF0000
1FFFC000
7FFFF800
FFFFFC00
FFFFFF00
FFFFFF80
FFF87F80
FFF81F80
FFF80FC0
FFF80FC0
FFF80FC0
FFF80FC0
FFF80FC0
7FF81FC0
7FFC3FC0
7FFEFFC0
7FFFFF80
7FFFFF80
7FFFFF00
7FFFF800
7FFFF800
7FFFFC00
7FFFFC00
7FFFFE00
7FFFFF00
7FFEFF00
7FFEFF80
3FFE7FC0
7FFE7FC0
3FFE3FE0
3FFE1FE0
3FFE1FF0
3FFE1FF8
3FFF0FF8
3FFF0FFC
1FFF07FC
1FFE07FC
1FFF03E0
0FF80000
ENDCHAR
STARTCHAR 015A
ENCODING 346
SWIDTH 504 0
DWIDTH 28 0
BBX 26 49 1 -1
BITMAP
0000FE00
0001FE00
0001FC00
0003F800
0007F000
0007E000
000FE000
000FC000
00018000
00000000
007FFF00
01FFFFC0
07FFFFC0
07FFFF80
0FFFFF80
0FFFFF00
1FFFFF00
1FFFFE00
1FFFFE00
3FFFFE00
3FFFFC00
3FFFFC00
3FFFF800
3FFFF800
3FE03800
3FF00000
3FFC0000
1FFF0000
1FFFC000
0FFFF800
07FFFC00
01FFFE00
003FFF00
0007FF00
0001FF00
0001FF80
3001FF80
7803FF80
FEFFFF80
FFFFFF80
FFFFFF80
FFFFFF00
FFFFFF00
FFFFFF00
7FFFFC00
1FFFF800
0FFFE000
03FF8000
00100000
ENDCHAR
STARTCHAR 015B
ENCODING 347
SWIDTH 504 0
DWIDTH 28 0
BBX 26 49 1 -1
BITMAP
0000FE00
0001FE00
0001FC00
0003F800
0007F000
0007E000
000FE000
000FC000
00018000
00000000
007FFF00
01FFFFC0
07FFFFC0
07FFFF80
0FFFFF80
0FFFFF00
1FFFFF00
1FFFFE00
1FFFFE00
3FFFFE00
3FFFFC00
3FFFFC00
3FFFF800
3FFFF800
3FE03800
3FF00000
3FFC0000
1FFF0000
1FFFC000
0FFFF800
07FFFC00
01FFFE00
003FFF00
0007FF00
0001FF00
0001FF80
3001FF80
7803FF80
FEFFFF80
FFFFFF80
FFFFFF80
FFFFFF00
FFFFFF00
FFFFFF00
7FFFFC00
1FFFF800
0FFFE000
03FF8000
00100000
ENDCHAR
STARTCHAR 015C
ENCODING 348
SWIDTH 504 0
DWIDTH 28 0
BBX 26 49 1 -1
BITMAP
00078000
000FC000
003FE000
007FF800
00FFFC00
01FFFE00
03FCFE00
01F87E00
00801800
00000000
007FFF00
01FFFFC0
07FFFFC0
07FFFF80
0FFFFF80
0FFFFF00
1FFFFF00
1FFFFE00
1FFFFE00
3FFFFE00
3FFFFC00
3FFFFC00
3FFFF800
3FFFF800
3FE03800
3FF00000
3FFC0000
1FFF0000
1FFFC000
0FFFF800
07FFFC00
01FFFE00
003FFF00
0007FF00
0001FF00
0001FF80
3001FF80
7803FF80
FEFFFF80
FFFFFF80
FFFFFF80
FFFFFF00
FFFFFF00
FFFFFF00
7FFFFC00
1FFFF800
0FFFE000
03FF8000
00100000
ENDCHAR
STARTCHAR 015D
ENCODING 349
SWIDTH 504 0
DWIDTH 28 0
BBX 26 49 1 -1
BITMAP
00078000
000FC000
003FE000
007FF800
00FFFC00
01FFFE00
03FCFE00
01F87E00
00801800
00000000
007FFF00
01FFFFC0
07FFFFC0
07FFFF80
0FFFFF80
0FFFFF00
1FFFFF00
1FFFFE00
1FFFFE00
3FFFFE00
3FFFFC00
3FFFFC00
3FFFF800
3FFFF800
3FE03800
3FF00000
3FFC0000
1FFF0000
1FFFC000
0FFFF800
07FFFC00
01FFFE00
003FFF00
0007FF00
0001FF00
0001FF80
3001FF80
7803FF80
FEFFFF80
FFFFFF80
FFFFFF80
FFFFFF00
FFFFFF00
FFFFFF00
7FFFFC00
1FFFF800
0FFFE000
03FF8000
00100000
ENDCHAR
STARTCHAR 015E
ENCODING 350
SWIDTH 504 0
DWIDTH 28 0
BBX 26 47 1 -9
BITMAP
007FFF00
01FFFFC0
07FFFFC0
07FFFF80
0FFFFF80
0FFFFF00
1FFFFF00
1FFFFE00
1FFFFE00
3FFFFE00
3FFFFC00
3FFFFC00
3FFFF800
3FFFF800
3FE03800
3FF00000
3FFC0000
1FFF0000
1FFFC000
0FFFF800
07FFFC00
01FFFE00
003FFF00
0007FF00
0001FF00
0001FF80
3001FF80
7803FF80
FEFFFF80
FFFFFF80
FFFFFF80
FFFFFF00
FFFFFF00
FFFFFF00
7FFFFC00
1FFFF800
0FFFE000
03FF8000
007E0000
007F0000
003FC000
000FE000
0207E000
0FEFE000
0FFFE000
07FFE000
03FFC000
ENDCHAR
STARTCHAR 015F
ENCODING 351
SWIDTH 504 0
DWIDTH 28 0
BBX 26 47 1 -9
BITMAP
007FFF00
01FFFFC0
07FFFFC0
07FFFF80
0FFFFF80
0FFFFF00
1FFFFF00
1FFFFE00
1FFFFE00
3FFFFE00
3FFFFC00
3FFFFC00
3FFFF800
3FFFF800
3FE03800
3FF00000
3FFC0000
1FFF0000
1FFFC000
0FFFF800
07FFFC00
01FFFE00
003FFF00
0007FF00
0001FF00
0001FF80
3001FF80
7803FF80
FEFFFF80
FFFFFF80
FFFFFF80
FFFFFF00
FFFFFF00
FFFFFF00
7FFFFC00
1FFFF800
0FFFE000
03FF8000
007E0000
007F0000
003FC000
000FE000
0207E000
0FEFE000
0FFFE000
07FFE000
03FFC000
ENDCHAR
STARTCHAR 0160
ENCODING 352
SWIDTH 504 0
DWIDTH 28 0
BBX 26 49 1 -1
BITMAP
01E01C00
03F07E00
03FDFE00
01FFFC00
00FFF800
007FF000
001FE000
000F8000
00060000
00000000
007FFF00
01FFFFC0
07FFFFC0
07FFFF80
0FFFFF80
0FFFFF00
1FFFFF00
1FFFFE00
1FFFFE00
3FFFFE00
3FFFFC00
3FFFFC00
3FFFF800
3FFFF800
3FE03800
3FF00000
3FFC0000
1FFF0000
1FFFC000
0FFFF800
07FFFC00
01FFFE00
003FFF00
0007FF00
0001FF00
0001FF80
3001FF80
7803FF80
FEFFFF80
FFFFFF80
FFFFFF80
FFFFFF00
FFFFFF00
FFFFFF00
7FFFFC00
1FFFF800
0FFFE000
03FF8000
00100000
ENDCHAR
STARTCHAR 0161
ENCODING 353
SWIDTH 504 0
DWIDTH 28 0
BBX 26 49 1 -1
BITMAP
01E01C00
03F07E00
03FDFE00
01FFFC00
00FFF800
007FF000
001FE000
000F8000
00060000
00000000
007FFF00
01FFFFC0
07FFFFC0
07FFFF80
0FFFFF80
0FFFFF00
1FFFFF00
1FFFFE00
1FFFFE00
3FFFFE00
3FFFFC00
3FFFFC00
3FFFF800
3FFFF800
3FE03800
3FF00000
3FFC0000
1FFF0000
1FFFC000
0FFFF800
07FFFC00
01FFFE00
003FFF00
0007FF00
0001FF00
0001FF80
3001FF80
7803FF80
FEFFFF80
FFFFFF80
FFFFFF80
FFFFFF00
FFFFFF00
FFFFFF00
7FFFFC00
1FFFF800
0FFFE000
03FF8000
00100000
ENDCHAR
STARTCHAR 0162
ENCODING 354
SWIDTH 576 0
DWIDTH 32 0
BBX 30 47 1 -9
BITMAP
00000180
7FFFFFE0
FFFFFFF8
FFFFFFF8
FFFFFFF8
FFFFFFFC
FFFFFFFC
FFFFFFFC
FFFFFFFC
FFFFFFFC
FFFFFFFC
FFFFFE00
FF0FF800
F00FF000
001FF000
001FF000
001FF000
001FF000
001FF000
001FF000
001FE000
001FF000
001FF000
001FF000
001FF000
001FF000
001FE000
001FE000
001FE000
001FE000
001FE000
001FF000
001FE000
001FE000
001FE000
001FE000
001FE000
000FE000
0007E000
0007F000
0003FC00
0000FE00
00207F00
00FEFF00
00FFFE00
007FFE00
001FFC00
ENDCHAR
STARTCHAR 0163
ENCODING 355
SWIDTH 576 0
DWIDTH 32 0
BBX 30 47 1 -9
BITMAP
00000180
7FFFFFE0
FFFFFFF8
FFFFFFF8
FFFFFFF8
FFFFFFFC
FFFFFFFC
FFFFFFFC
FFFFFFFC
FFFFFFFC
FFFFFFFC
FFFFFE00
FF0FF800
F00FF000
001FF000
001FF000
001FF000
001FF000
001FF000
001FF000
001FE000
001FF000
001FF000
001FF000
001FF000
001FF000
001FE000
001FE000
001FE000
001FE000
001FE000
001FF000
001FE000
001FE000
001FE000
001FE000
001FE000
000FE000
0007E000
0007F000
0003FC00
0000FE00
00207F00
00FEFF00
00FFFE00
007FFE00
001FFC00
ENDCHAR
STARTCHAR 0164
ENCODING 356
SWIDTH 576 0
DWIDTH 32 0
BBX 30 48 1 0
BITMAP
00F01E00
01FC3F00
01FE7F00
00FFFE00
007FFC00
003FF800
001FE000
0007C000
00018000
00000000
00000180
7FFFFFE0
FFFFFFF8
FFFFFFF8
FFFFFFF8
FFFFFFFC
FFFFFFFC
FFFFFFFC
FFFFFFFC
FFFFFFFC
FFFFFFFC
FFFFFE00
FF0FF800
F00FF000
001FF000
001FF000
001FF000
001FF000
001FF000
001FF000
001FE000
001FF000
001FF000
001FF000
001FF000
001FF000
001FE000
001FE000
001FE000
001FE000
001FE000
001FF000
001FE000
001FE000
001FE000
001FE000
001FE000
000FE000
ENDCHAR
STARTCHAR 0165
ENCODING 357
SWIDTH 576 0
DWIDTH 32 0
BBX 30 48 1 0
BITMAP
00F01E00
01FC3F00
01FE7F00
00FFFE00
007FFC00
003FF800
001FE000
0007C000
00018000
00000000
00000180
7FFFFFE0
FFFFFFF8
FFFFFFF8
FFFFFFF8
FFFFFFFC
FFFFFFFC
FFFFFFFC
FFFFFFFC
FFFFFFFC
FFFFFFFC
FFFFFE00
FF0FF800
F00FF000
001FF000
001FF000
001FF000
001FF000
001FF000
001FF000
001FE000
001FF000
001FF000
001FF000
001FF000
001FF000
001FE000
001FE000
001FE000
001FE000
001FE000
001FF000
001FE000
001FE000
001FE000
001FE000
001FE000
000FE000
ENDCHAR
STARTCHAR 0166
ENCODING 358
SWIDTH 576 0
DWIDTH 32 0
BBX 30 38 1 0
BITMAP
00000180
7FFFFFE0
FFFFFFF8
FFFFFFF8
FFFFFFF8
FFFFFFFC
FFFFFFFC
FFFFFFFC
FFFFFFFC
FFFFFFFC
FFFFFFFC
FFFFFE00
FF0FF800
F00FF000
001FF000
001FF000
001FF000
001FFFC0
0FFFFFE0
0FFFFFE0
0FFFFFE0
0FFFFFE0
0FFFFFE0
0FFFFFE0
0FFFFFE0
001FF000
001FE000
001FE000
001FE000
001FE000
001FE000
001FF000
001FE000
001FE000
001FE000
001FE000
001FE000
000FE000
ENDCHAR
STARTCHAR 0167
ENCODING 359
SWIDTH 576 0
DWIDTH 32 0
BBX 30 38 1 0
BITMAP
00000180
7FFFFFE0
FFFFFFF8
FFFFFFF8
FFFFFFF8
FFFFFFFC
FFFFFFFC
FFFFFFFC
FFFFFFFC
FFFFFFFC
FFFFFFFC
FFFFFE00
FF0FF800
F00FF000
001FF000
001FF000
001FF000
001FFFC0
0FFFFFE0
0FFFFFE0
0FFFFFE0
0FFFFFE0
0FFFFFE0
0FFFFFE0
0FFFFFE0
001FF000
001FE000
001FE000
001FE000
001FE000
001FE000
001FF000
001FE000
001FE000
001FE000
001FE000
001FE000
000FE000
ENDCHAR
STARTCHAR 0168
ENCODING 360
SWIDTH 540 0
DWIDTH 30 0
BBX 29 46 1 1
BITMAP
001F0F80
003F9F80
007FFF80
007FFF80
007FFF80
007FFF00
0078FE00
00781800
00000000
0F000800
1FF00FF0
1FF01FF0
1FE01FF0
1FE00FF0
3FE00FF0
3FE00FF0
3FE00FF0
3FE00FF0
7FC00FF0
7FC00FF0
7FC01FF0
7FC01FF0
7FC01FF0
FFC01FF0
FFC01FF0
FFC01FF0
FFE01FF8
FFE03FF8
FFE03FF8
FFF03FF0
FFFC7FF0
FFFFFFF0
FFFFFFE0
7FFFFFE0
7FFFFFE0
7FFFFFC0
7FFFFFC0
3FFFFFC0
3FFFFF80
1FFFFF00
1FFFFF00
0FFFFE00
0FFFFC00
07FFF800
01FFF000
003FE000
ENDCHAR
STARTCHAR 0169
ENCODING 361
SWIDTH 540 0
DWIDTH 30 0
BBX 29 46 1 1
BITMAP
001F0F80
003F9F80
007FFF80
007FFF80
007FFF80
007FFF00
0078FE00
00781800
00000000
0F000800
1FF00FF0
1FF01FF0
1FE01FF0
1FE00FF0
3FE00FF0
3FE00FF0
3FE00FF0
3FE00FF0
7FC00FF0
7FC00FF0
7FC01FF0
7FC01FF0
7FC01FF0
FFC01FF0
FFC01FF0
FFC01FF0
FFE01FF8
FFE03FF8
FFE03FF8
FFF03FF0
FFFC7FF0
FFFFFFF0
FFFFFFE0
7FFFFFE0
7FFFFFE0
7FFFFFC0
7FFFFFC0
3FFFFFC0
3FFFFF80
1FFFFF00
1FFFFF00
0FFFFE00
0FFFFC00
07FFF800
01FFF000
003FE000
ENDCHAR
STARTCHAR 016A
ENCODING 362
SWIDTH 540 0
DWIDTH 30 0
BBX 29 44 1 1
BITMAP
003FFF00
00FFFF00
00FFFF00
00FFFF00
00FFFF00
00000200
00000000
0F000800
1FF00FF0
1FF01FF0
1FE01FF0
1FE00FF0
3FE00FF0
3FE00FF0
3FE00FF0
3FE00FF0
7FC00FF0
7FC00FF0
7FC01FF0
7FC01FF0
7FC01FF0
FFC01FF0
FFC01FF0
FFC01FF0
FFE01FF8
FFE03FF8
FFE03FF8
FFF03FF0
FFFC7FF0
FFFFFFF0
FFFFFFE0
7FFFFFE0
7FFFFFE0
7FFFFFC0
7FFFFFC0
3FFFFFC0
3FFFFF80
1FFFFF00
1FFFFF00
0FFFFE00
0FFFFC00
07FFF800
01FFF000
003FE000
ENDCHAR
STARTCHAR 016B
ENCODING 363
SWIDTH 540 0
DWIDTH 30 0
BBX 29 44 1 1
BITMAP
003FFF00
00FFFF00
00FFFF00
00FFFF00
00FFFF00
00000200
00000000
0F000800
1FF00FF0
1FF01FF0
1FE01FF0
1FE00FF0
3FE00FF0
3FE00FF0
3FE00FF0
3FE00FF0
7FC00FF0
7FC00FF0
7FC01FF0
7FC01FF0
7FC01FF0
FFC01FF0
FFC01FF0
FFC01FF0
FFE01FF8
FFE03FF8
FFE03FF8
FFF03FF0
FFFC7FF0
FFFFFFF0
FFFFFFE0
7FFFFFE0
7FFFFFE0
7FFFFFC0
7FFFFFC0
3FFFFFC0
3FFFFF80
1FFFFF00
1FFFFF00
0FFFFE00
0FFFFC00
07FFF800
01FFF000
003FE000
ENDCHAR
STARTCHAR 016C
ENCODING 364
SWIDTH 540 0
DWIDTH 30 0
BBX 29 47 1 1
BITMAP
00780780
007C0780
007E0F80
007FFF80
003FFF00
001FFF00
000FFE00
0007F800
0001E000
00000000
0F000800
1FF00FF0
1FF01FF0
1FE01FF0
1FE00FF0
3FE00FF0
3FE00FF0
3FE00FF0
3FE00FF0
7FC00FF0
7FC00FF0
7FC01FF0
7FC01FF0
7FC01FF0
FFC01FF0
FFC01FF0
FFC01FF0
FFE01FF8
FFE03FF8
FFE03FF8
FFF03FF0
FFFC7FF0
FFFFFFF0
FFFFFFE0
7FFFFFE0
7FFFFFE0
7FFFFFC0
7FFFFFC0
3FFFFFC0
3FFFFF80
1FFFFF00
1FFFFF00
0FFFFE00
0FFFFC00
07FFF800
01FFF000
003FE000
ENDCHAR
STARTCHAR 016D
ENCODING 365
SWIDTH 540 0
DWIDTH 30 0
BBX 29 47 1 1
BITMAP
00780780
007C0780
007E0F80
007FFF80
003FFF00
001FFF00
000FFE00
0007F800
0001E000
00000000
0F000800
1FF00FF0
1FF01FF0
1FE01FF0
1FE00FF0
3FE00FF0
3FE00FF0
3FE00FF0
3FE00FF0
7FC00FF0
7FC00FF0
7FC01FF0
7FC01FF0
7FC01FF0
FFC01FF0
FFC01FF0
FFC01FF0
FFE01FF8
FFE03FF8
FFE03FF8
FFF03FF0
FFFC7FF0
FFFFFFF0
FFFFFFE0
7FFFFFE0
7FFFFFE0
7FFFFFC0
7FFFFFC0
3FFFFFC0
3FFFFF80
1FFFFF00
1FFFFF00
0FFFFE00
0FFFFC00
07FFF800
01FFF000
003FE000
ENDCHAR
STARTCHAR 016E
ENCODING 366
SWIDTH 540 0
DWIDTH 30 0
BBX 29 50 1 1
BITMAP
0003C000
000FF000
001FFC00
007FFE00
007C3F00
00F83F00
00F81F00
00F81F00
00FC1F00
00FC3F00
007FFE00
003FFC00
000FF800
0F000800
1FF00FF0
1FF01FF0
1FE01FF0
1FE00FF0
3FE00FF0
3FE00FF0
3FE00FF0
3FE00FF0
7FC00FF0
7FC00FF0
7FC01FF0
7FC01FF0
7FC01FF0
FFC01FF0
FFC01FF0
FFC01FF0
FFE01FF8
FFE03FF8
FFE03FF8
FFF03FF0
FFFC7FF0
FFFFFFF0
FFFFFFE0
7FFFFFE0
7FFFFFE0
7FFFFFC0
7FFFFFC0
3FFFFFC0
3FFFFF80
1FFFFF00
1FFFFF00
0FFFFE00
0FFFFC00
07FFF800
01FFF000
003FE000
ENDCHAR
STARTCHAR 016F
ENCODING 367
SWIDTH 540 0
DWIDTH 30 0
BBX 29 50 1 1
BITMAP
0003C000
000FF000
001FFC00
007FFE00
007C3F00
00F83F00
00F81F00
00F81F00
00FC1F00
00FC3F00
007FFE00
003FFC00
000FF800
0F000800
1FF00FF0
1FF01FF0
1FE01FF0
1FE00FF0
3FE00FF0
3FE00FF0
3FE00FF0
3FE00FF0
7FC00FF0
7FC00FF0
7FC01FF0
7FC01FF0
7FC01FF0
FFC01FF0
FFC01FF0
FFC01FF0
FFE01FF8
FFE03FF8
FFE03FF8
FFF03FF0
FFFC7FF0
FFFFFFF0
FFFFFFE0
7FFFFFE0
7FFFFFE0
7FFFFFC0
7FFFFFC0
3FFFFFC0
3FFFFF80
1FFFFF00
1FFFFF00
0FFFFE00
0FFFFC00
07FFF800
01FFF000
003FE000
ENDCHAR
STARTCHAR 0170
ENCODING 368
SWIDTH 540 0
DWIDTH 30 0
BBX 30 47 1 1
BITMAP
000FF3F8
000FF3FC
001FE7F8
001FCFF0
003F8FE0
003F1FC0
007E1F80
007C3F00
000C0600
00000000
0F000800
1FF00FF0
1FF01FF0
1FE01FF0
1FE00FF0
3FE00FF0
3FE00FF0
3FE00FF0
3FE00FF0
7FC00FF0
7FC00FF0
7FC01FF0
7FC01FF0
7FC01FF0
FFC01FF0
FFC01FF0
FFC01FF0
FFE01FF8
FFE03FF8
FFE03FF8
FFF03FF0
FFFC7FF0
FFFFFFF0
FFFFFFE0
7FFFFFE0
7FFFFFE0
7FFFFFC0
7FFFFFC0
3FFFFFC0
3FFFFF80
1FFFFF00
1FFFFF00
0FFFFE00
0FFFFC00
07FFF800
01FFF000
003FE000
ENDCHAR
STARTCHAR 0171
ENCODING 369
SWIDTH 540 0
DWIDTH 30 0
BBX 30 47 1 1
BITMAP
000FF3F8
000FF3FC
001FE7F8
001FCFF0
003F8FE0
003F1FC0
007E1F80
007C3F00
000C0600
00000000
0F000800
1FF00FF0
1FF01FF0
1FE01FF0
1FE00FF0
3FE00FF0
3FE00FF0
3FE00FF0
3FE00FF0
7FC00FF0
7FC00FF0
7FC01FF0
7FC01FF0
7FC01FF0
FFC01FF0
FFC01FF0
FFC01FF0
FFE01FF8
FFE03FF8
FFE03FF8
FFF03FF0
FFFC7FF0
FFFFFFF0
FFFFFFE0
7FFFFFE0
7FFFFFE0
7FFFFFC0
7FFFFFC0
3FFFFFC0
3FFFFF80
1FFFFF00
1FFFFF00
0FFFFE00
0FFFFC00
07FFF800
01FFF000
003FE000
ENDCHAR
STARTCHAR 0172
ENCODING 370
SWIDTH 540 0
DWIDTH 30 0
BBX 29 47 1 -9
BITMAP
0F000800
1FF00FF0
1FF01FF0
1FE01FF0
1FE00FF0
3FE00FF0
3FE00FF0
3FE00FF0
3FE00FF0
7FC00FF0
7FC00FF0
7FC01FF0
7FC01FF0
7FC01FF0
FFC01FF0
FFC01FF0
FFC01FF0
FFE01FF8
FFE03FF8
FFE03FF8
FFF03FF0
FFFC7FF0
FFFFFFF0
FFFFFFE0
7FFFFFE0
7FFFFFE0
7FFFFFC0
7FFFFFC0
3FFFFFC0
3FFFFF80
1FFFFF00
1FFFFF00
0FFFFE00
0FFFFC00
07FFF800
01FFF000
003FE000
003E0000
007C0000
007C0000
00F80000
00F80000
00FC3C00
00FFFC00
00FFFC00
007FFC00
001FF800
ENDCHAR
STARTCHAR 0173
ENCODING 371
SWIDTH 540 0
DWIDTH 30 0
BBX 29 47 1 -9
BITMAP
0F000800
1FF00FF0
1FF01FF0
1FE01FF0
1FE00FF0
3FE00FF0
3FE00FF0
3FE00FF0
3FE00FF0
7FC00FF0
7FC00FF0
7FC01FF0
7FC01FF0
7FC01FF0
FFC01FF0
FFC01FF0
FFC01FF0
FFE01FF8
FFE03FF8
FFE03FF8
FFF03FF0
FFFC7FF0
FFFFFFF0
FFFFFFE0
7FFFFFE0
7FFFFFE0
7FFFFFC0
7FFFFFC0
3FFFFFC0
3FFFFF80
1FFFFF00
1FFFFF00
0FFFFE00
0FFFFC00
07FFF800
01FFF000
003FE000
003E0000
007C0000
007C0000
00F80000
00F80000
00FC3C00
00FFFC00
00FFFC00
007FFC00
001FF800
ENDCHAR
STARTCHAR 0174
ENCODING 372
SWIDTH 720 0
DWIDTH 40 0
BBX 39 48 1 0
BITMAP
0000F80000
0001FE0000
0003FF0000
0007FFC000
000FFFE000
001FEFE000
001FC7E000
001F018000
000C000000
0000000200
0000000308
7F800007FC
FFC03807FE
FFE03C0FFC
FFE03C0FF8
FFE03C0FF8
FFF03E1FF8
FFF03E1FF8
7FF83E1FF0
7FF87E3FF0
7FF87F3FF0
3FFC7F3FF0
3FFC7F7FF0
3FFE7FFFF0
1FFEFFFFF0
1FFFFFFFE0
0FFFFFFFE0
0FFFFFFFE0
0FFFFFFFE0
07FFFFFFE0
07FFFFFFC0
03FFFFFFC0
03FFFFFFC0
01FFFBFFC0
01FFF3FFC0
00FFF3FF80
00FFF1FF80
007FE1FF80
007FE1FF80
003FC1FF80
003FC0FF80
001FC0FF80
001FC0FF00
000F807F00
000F807F00
0007807C00
0003000000
0003000000
ENDCHAR
STARTCHAR 0175
ENCODING 373
SWIDTH 720 0
DWIDTH 40 0
BBX 39 48 1 0
BITMAP
0000F80000
0001FE0000
0003FF0000
0007FFC000
000FFFE000
001FEFE000
001FC7E000
001F018000
000C000000
0000000200
0000000308
7F800007FC
FFC03807FE
FFE03C0FFC
FFE03C0FF8
FFE03C0FF8
FFF03E1FF8
FFF03E1FF8
7FF83E1FF0
7FF87E3FF0
7FF87F3FF0
3FFC7F3FF0
3FFC7F7FF0
3FFE7FFFF0
1FFEFFFFF0
1FFFFFFFE0
0FFFFFFFE0
0FFFFFFFE0
0FFFFFFFE0
07FFFFFFE0
07FFFFFFC0
03FFFFFFC0
03FFFFFFC0
01FFFBFFC0
01FFF3FFC0
00FFF3FF80
00FFF1FF80
007FE1FF80
007FE1FF80
003FC1FF80
003FC0FF80
001FC0FF80
001FC0FF00
000F807F00
000F807F00
0007807C00
0003000000
0003000000
ENDCHAR
STARTCHAR 0176
ENCODING 374
SWIDTH 612 0
DWIDTH 34 0
BBX 32 48 1 0
BITMAP
0007C000
000FE000
001FF800
003FFC00
007FFE00
00FEFF00
01FC3F00
01F81800
00E00000
00000000
000000FF
010003FF
078001FE
7FC003FE
FFC007FE
FFE007FC
7FE007FC
7FF00FF8
3FF00FF8
3FF81FF0
1FF81FF0
1FFC3FE0
0FFC7FE0
0FFE7FC0
07FEFFC0
07FEFF80
03FFFF80
03FFFF00
01FFFF00
01FFFE00
00FFFE00
00FFFE00
007FFC00
007FFC00
003FF800
003FF000
001FF000
000FF000
000FF000
000FF000
000FF800
000FF800
000FF800
000FF800
000FF800
000FF800
000FF800
000FE000
ENDCHAR
STARTCHAR 0177
ENCODING 375
SWIDTH 612 0
DWIDTH 34 0
BBX 32 48 1 0
BITMAP
0007C000
000FE000
001FF800
003FFC00
007FFE00
00FEFF00
01FC3F00
01F81800
00E00000
00000000
000000FF
010003FF
078001FE
7FC003FE
FFC007FE
FFE007FC
7FE007FC
7FF00FF8
3FF00FF8
3FF81FF0
1FF81FF0
1FFC3FE0
0FFC7FE0
0FFE7FC0
07FEFFC0
07FEFF80
03FFFF80
03FFFF00
01FFFF00
01FFFE00
00FFFE00
00FFFE00
007FFC00
007FFC00
003FF800
003FF000
001FF000
000FF000
000FF000
000FF000
000FF800
000FF800
000FF800
000FF800
000FF800
000FF800
000FF800
000FE000
ENDCHAR
STARTCHAR 0178
ENCODING 376
SWIDTH 612 0
DWIDTH 34 0
BBX 32 45 1 0
BITMAP
00381E00
007C3F00
007E3F00
007E3F00
007C3E00
003C0C00
00000000
000000FF
010003FF
078001FE
7FC003FE
FFC007FE
FFE007FC
7FE007FC
7FF00FF8
3FF00FF8
3FF81FF0
1FF81FF0
1FFC3FE0
0FFC7FE0
0FFE7FC0
07FEFFC0
07FEFF80
03FFFF80
03FFFF00
01FFFF00
01FFFE00
00FFFE00
00FFFE00
007FFC00
007FFC00
003FF800
003FF000
001FF000
000FF000
000FF000
000FF000
000FF800
000FF800
000FF800
000FF800
000FF800
000FF800
000FF800
000FE000
ENDCHAR
STARTCHAR 0179
ENCODING 377
SWIDTH 594 0
DWIDTH 33 0
BBX 31 48 1 0
BITMAP
0001FC00
0003FC00
0003F800
0007F000
000FF000
000FE000
000FC000
001F8000
00030000
00000000
003FFE00
03FFFFE0
1FFFFFC0
3FFFFF80
7FFFFF80
7FFFFF00
FFFFFE00
FFFFFE00
FFFFFC00
FFF7FC00
8007F800
000FF800
000FF000
000FF000
001FF000
001FE000
001FE000
003FE000
003FC000
003FC000
007FC000
007FC000
007FC000
00FF8000
00FF8000
00FF8000
01FF0000
01FE0386
03FFFFFE
03FFFFFE
03FFFFFE
03FFFFFE
07FFFFFE
07FFFFFC
07FFFFF8
001FFFF0
0003FFC0
00003C00
ENDCHAR
STARTCHAR 017A
ENCODING 378
SWIDTH 594 0
DWIDTH 33 0
BBX 31 48 1 0
BITMAP
0001FC00
0003FC00
0003F800
0007F000
000FF000
000FE000
000FC000
001F8000
00030000
00000000
003FFE00
03FFFFE0
1FFFFFC0
3FFFFF80
7FFFFF80
7FFFFF00
FFFFFE00
FFFFFE00
FFFFFC00
FFF7FC00
8007F800
000FF800
000FF000
000FF000
001FF000
001FE000
001FE000
003FE000
003FC000
003FC000
007FC000
007FC000
007FC000
00FF8000
00FF8000
00FF8000
01FF0000
01FE0386
03FFFFFE
03FFFFFE
03FFFFFE
03FFFFFE
07FFFFFE
07FFFFFC
07FFFFF8
001FFFF0
0003FFC0
00003C00
ENDCHAR
STARTCHAR 017B
ENCODING 379
SWIDTH 594 0
DWIDTH 33 0
BBX 31 45 1 0
BITMAP
001E0000
001F0000
003F0000
003F0000
001F0000
000E0000
00000000
003FFE00
03FFFFE0
1FFFFFC0
3FFFFF80
7FFFFF80
7FFFFF00
FFFFFE00
FFFFFE00
FFFFFC00
FFF7FC00
8007F800
000FF800
000FF000
000FF000
001FF000
001FE000
001FE000
003FE000
003FC000
003FC000
007FC000
007FC000
007FC000
00FF8000
00FF8000
00FF8000
01FF0000
01FE0386
03FFFFFE
03FFFFFE
03FFFFFE
03FFFFFE
07FFFFFE
07FFFFFC
07FFFFF8
001FFFF0
0003FFC0
00003C00
ENDCHAR
STARTCHAR 017C
ENCODING 380
SWIDTH 594 0
DWIDTH 33 0
BBX 31 45 1 0
BITMAP
001E0000
001F0000
003F0000
003F0000
001F0000
000E0000
00000000
003FFE00
03FFFFE0
1FFFFFC0
3FFFFF80
7FFFFF80
7FFFFF00
FFFFFE00
FFFFFE00
FFFFFC00
FFF7FC00
8007F800
000FF800
000FF000
000FF000
001FF000
001FE000
001FE000
003FE000
003FC000
003FC000
007FC000
007FC000
007FC000
00FF8000
00FF8000
00FF8000
01FF0000
01FE0386
03FFFFFE
03FFFFFE
03FFFFFE
03FFFFFE
07FFFFFE
07FFFFFC
07FFFFF8
001FFFF0
0003FFC0
00003C00
ENDCHAR
STARTCHAR 017D
ENCODING 381
SWIDTH 594 0
DWIDTH 33 0
BBX 31 48 1 0
BITMAP
03C03800
03F0FC00
03FBFC00
03FFF800
01FFF000
007FE000
003FC000
001F8000
000E0000
00000000
003FFE00
03FFFFE0
1FFFFFC0
3FFFFF80
7FFFFF80
7FFFFF00
FFFFFE00
FFFFFE00
FFFFFC00
FFF7FC00
8007F800
000FF800
000FF000
000FF000
001FF000
001FE000
001FE000
003FE000
003FC000
003FC000
007FC000
007FC000
007FC000
00FF8000
00FF8000
00FF8000
01FF0000
01FE0386
03FFFFFE
03FFFFFE
03FFFFFE
03FFFFFE
07FFFFFE
07FFFFFC
07FFFFF8
001FFFF0
0003FFC0
00003C00
ENDCHAR
STARTCHAR 017E
ENCODING 382
SWIDTH 594 0
DWIDTH 33 0
BBX 31 48 1 0
BITMAP
03C03800
03F0FC00
03FBFC00
03FFF800
01FFF000
007FE000
003FC000
001F8000
000E0000
00000000
003FFE00
03FFFFE0
1FFFFFC0
3FFFFF80
7FFFFF80
7FFFFF00
FFFFFE00
FFFFFE00
FFFFFC00
FFF7FC00
8007F800
000FF800
000FF000
000FF000
001FF000
001FE000
001FE000
003FE000
003FC000
003FC000
007FC000
007FC000
007FC000
00FF8000
00FF8000
00FF8000
01FF0000
01FE0386
03FFFFFE
03FFFFFE
03FFFFFE
03FFFFFE
07FFFFFE
07FFFFFC
07FFFFF8
001FFFF0
0003FFC0
00003C00
ENDCHAR
STARTCHAR 017F
ENCODING 383
SWIDTH 432 0
DWIDTH 24 0
BBX 22 47 1 -8
BITMAP
003800
03FFC0
07FFF0
0FFFF8
1FFFFC
3FFFFC
7FFFFC
7FFFFC
FFE1FC
FFC0F8
FFC000
FF8000
FF8000
FF8000
FF8000
FF8000
FF8000
FF8000
7F8000
7FC000
7FC000
7FC000
7FC000
7FC000
7FC000
7FC000
7FC000
7FC000
7FC000
3FC000
3FC000
3FC000
3FC000
3FC000
3FC000
3FC000
3FC000
3FC000
3FC000
3FC000
3FC000
3FC000
3FE000
3FE000
3FE000
1FE000
1FC000
ENDCHAR
STARTCHAR 0180
ENCODING 384
SWIDTH 504 0
DWIDTH 28 0
BBX 27 38 1 0
BITMAP
0FFC0000
7FFFC000
FFFFE000
FFFFF000
FFFFF000
FFFFF800
FFFFFC00
FFFFFC00
7FEFFC00
7FC3FC00
7FC1FC00
7FC1FC00
3FC1FC00
3FE1FC00
3FE1F800
3FF3F800
3FFFF000
3FFFE000
3FFFF800
3FFFFE00
3FFFFF00
3FFFFF80
3FFFFFC0
1FFA3FC0
1FFF3FE0
FFFF3FE0
FFFF3FE0
FFFF3FE0
FFFFFFE0
FFFCFFE0
FFFFFFC0
0FFFFFC0
0FFFFF80
0FFFFF00
0FFFFE00
0FFFF800
0FFF8000
00800000
ENDCHAR
STARTCHAR 0181
ENCODING 385
SWIDTH 666 0
DWIDTH 37 0
BBX 36 38 1 0
BITMAP
003FFE0000
07FFFFC000
0FFFFFF000
1FFFFFF800
3FFFFFF800
3FFFFFFC00
7FFFFFFC00
7FFFFFFE00
7FFFE7FE00
FFFFE1FE00
FF3FE0FE00
FE3FE0FE00
FC3FE0FE00
FC3FE0FC00
FC3FF1FC00
FE3FFBFC00
7E1FFFF800
7F9FFFF000
7F9FFFF800
3F9FFFFF00
3F9FFFFF80
1F9FFFFFC0
1F9FFFFFC0
0F9FFC3FE0
001FFC1FE0
000FFC1FF0
000FFC3FF0
000FFC3FF0
000FFC7FF0
000FFDFFE0
000FFFFFE0
000FFFFFE0
000FFFFFC0
0007FFFF00
0007FFFF00
0007FFFC00
0007FFC000
0000400000
ENDCHAR
STARTCHAR 0186
ENCODING 390
SWIDTH 486 0
DWIDTH 27 0
BBX 25 37 1 0
BITMAP
00F00000
0FFE0000
1FFFC000
7FFFF000
FFFFF800
FFFFFC00
FFFFFE00
FFFFFE00
FFFFFF00
FFFFFF00
7FFFFF80
003FFF80
000FFF80
0007FF80
0003FF80
0003FF80
0003FF80
0003FF80
0003FF80
0003FF80
0007FF80
7C0FFF80
7FFFFF80
FFFFFF80
FFFFFF80
FFFFFF80
FFFFFF00
7FFFFF00
7FFFFF00
7FFFFE00
FFFFFE00
7FFFFC00
3FFFFC00
1FFFF800
1FFFF800
07FFC000
01FF0000
ENDCHAR
STARTCHAR 0187
ENCODING 391
SWIDTH 486 0
DWIDTH 27 0
BBX 26 48 1 0
BITMAP
00000F80
0000FF80
0001FF80
0003FFC0
0007FFC0
000FFF80
000FFF80
000FFF00
001FFC00
001FF800
001FF800
003FF800
00FFFE00
07FFFF00
0FFFFF80
1FFFFFC0
1FFFFF80
3FFFFF80
7FFFFF80
7FFFFF80
7FFFFF80
FFFE0000
FFF80000
FFF00000
FFF00000
FFE00000
FFE00000
FFE00000
FFE00000
FFE00000
FFF00000
FFFC1F80
FFFFFF80
FFFFFF80
FFFFFF80
7FFFFF80
7FFFFF80
7FFFFF80
3FFFFF80
3FFFFF80
1FFFFF80
1FFFFF80
0FFFFF00
0FFFFE00
07FFFC00
01FFF800
007FE000
00010000
ENDCHAR
STARTCHAR 0188
ENCODING 392
SWIDTH 486 0
DWIDTH 27 0
BBX 26 48 1 0
BITMAP
00000F80
0000FF80
0001FF80
0003FFC0
0007FFC0
000FFF80
000FFF80
000FFF00
001FFC00
001FF800
001FF800
003FF800
00FFFE00
07FFFF00
0FFFFF80
1FFFFFC0
1FFFFF80
3FFFFF80
7FFFFF80
7FFFFF80
7FFFFF80
FFFE0000
FFF80000
FFF00000
FFF00000
FFE00000
FFE00000
FFE00000
FFE00000
FFE00000
FFF00000
FFFC1F80
FFFFFF80
FFFFFF80
FFFFFF80
7FFFFF80
7FFFFF80
7FFFFF80
3FFFFF80
3FFFFF80
1FFFFF80
1FFFFF80
0FFFFF00
0FFFFE00
07FFFC00
01FFF800
007FE000
00010000
ENDCHAR
STARTCHAR 0189
ENCODING 393
SWIDTH 486 0
DWIDTH 27 0
BBX 27 38 0 0
BITMAP
07F80000
1FFF0000
1FFFC000
1FFFF000
1FFFF800
1FFFFC00
1FFFFE00
1FFFFE00
1FFFFF00
1FFFFF80
1FFDFF80
1FF83FC0
1FFF1FC0
1FFF1FC0
7FFF9FC0
FFFF9FE0
FFFF9FE0
FFFF9FE0
FFFFBFC0
FFFF3FC0
FFF87F80
7FFCFF80
0FFDFF80
07FFFF00
07FFFF00
07FFFE00
07FFFE00
07FFFC00
03FFF800
03FFF800
03FFF000
03FFE000
03FFC000
01FF8000
01FE0000
01F80000
01E00000
00800000
ENDCHAR
STARTCHAR 018A
ENCODING 394
SWIDTH 630 0
DWIDTH 35 0
BBX 34 38 1 0
BITMAP
003FF00000
07FFFE0000
0FFFFF8000
1FFFFFE000
3FFFFFF000
3FFFFFF800
7FFFFFF800
7FFFFFFC00
7FFFFFFE00
FFFFFFFF00
FF3FFBFF00
FE3FF0FF80
FC3FF03F80
FC3FF03F80
FC3FF03F80
FE3FF03FC0
7E3FF03FC0
7FBFF03FC0
7F9FF07F80
3F9FF07F80
3F9FF0FF00
1F9FF9FF00
1F9FFBFE00
0F9FFFFE00
000FFFFE00
000FFFFC00
000FFFFC00
000FFFF800
000FFFF000
0007FFF000
0007FFE000
0007FFC000
0007FF8000
0003FF0000
0003FC0000
0003F00000
0003C00000
0001000000
ENDCHAR
STARTCHAR 018F
ENCODING 399
SWIDTH 486 0
DWIDTH 27 0
BBX 25 37 1 1
BITMAP
03FF0000
0FFF8000
3FFFE000
7FFFE000
7FFFF000
FFFFF800
FFFFF800
7FFFFC00
3F3FFC00
0003FE00
0001FE00
0000FE00
00007F00
00007F00
0000FF00
FFFFFF00
7FFFFF00
FFFFFF00
FFFFFF80
FFFFFF80
7FFFFF80
7FFFFF80
7FC0FF80
7FC0FF80
7FC1FF80
7FE3FF80
7FFFFF80
7FFFFF80
7FFFFF80
7FFFFF80
7FFFFF80
3FFFFF00
1FFFFF00
0FFFFE00
07FFFC00
03FFF800
007FF000
ENDCHAR
STARTCHAR 0190
ENCODING 400
SWIDTH 486 0
DWIDTH 27 0
BBX 26 39 1 0
BITMAP
00FE0000
03FFC000
07FFF000
1FFFF800
1FFFFC00
3FFFFE00
7FFFFE00
7FFFFE00
FFF80000
FFE00000
FFE00000
FFC00000
FFC00000
FFC00000
7FC00000
7FE00000
3FF86000
3FFFF000
1FFFF000
0FFFF000
07FFF000
0FFFF000
1FFFC000
1FF80000
3FF00000
3FF00000
3FE00000
3FE00000
3FF00080
3FF00780
3FFC7FC0
3FFFFFC0
1FFFFF80
1FFFFF80
0FFFFF80
07FFFF00
03FFFE00
01FFFC00
001FE000
ENDCHAR
STARTCHAR 0191
ENCODING 401
SWIDTH 504 0
DWIDTH 28 0
BBX 30 46 -3 -7
BITMAP
00007FF0
00FFFFF8
07FFFFF8
0FFFFFF8
0FFFFFFC
0FFFFFFC
0FFFFFFC
0FFFFFFC
0FFFFE1C
0FFF0000
0FFE0000
0FFC0000
0FFC0000
0FFC0000
0FFC6000
0FFFF800
0FFFF000
0FFFF000
0FFFF000
0FFFF000
0FFFF000
0FFFF000
0FFE1000
0FFC0000
0FFC0000
0FFC0000
0FFC0000
0FFC0000
0FFC0000
0FFC0000
0FFC0000
0FFC0000
0FFC0000
0FFC0000
0FFC0000
0FFC0000
0FFC0000
0FFC0000
1FFC0000
FFF80000
FFF80000
FFF80000
FFF00000
FFC00000
FFC00000
FF000000
ENDCHAR
STARTCHAR 0192
ENCODING 402
SWIDTH 504 0
DWIDTH 28 0
BBX 30 46 -3 -7
BITMAP
00007FF0
00FFFFF8
07FFFFF8
0FFFFFF8
0FFFFFFC
0FFFFFFC
0FFFFFFC
0FFFFFFC
0FFFFE1C
0FFF0000
0FFE0000
0FFC0000
0FFC0000
0FFC0000
0FFC6000
0FFFF800
0FFFF000
0FFFF000
0FFFF000
0FFFF000
0FFFF000
0FFFF000
0FFE1000
0FFC0000
0FFC0000
0FFC0000
0FFC0000
0FFC0000
0FFC0000
0FFC0000
0FFC0000
0FFC0000
0FFC0000
0FFC0000
0FFC0000
0FFC0000
0FFC0000
0FFC0000
1FFC0000
FFF80000
FFF80000
FFF80000
FFF00000
FFC00000
FFC00000
FF000000
ENDCHAR
STARTCHAR 0193
ENCODING 403
SWIDTH 504 0
DWIDTH 28 0
BBX 26 47 1 1
BITMAP
000007C0
00007FC0
0000FFC0
0001FFC0
0003FFC0
0007FFC0
0007FFC0
000FFF00
000FFE00
000FFC00
003FFC00
007FFC00
00FFFE00
01FFFF00
03FFFF80
03FFFF80
07FFFF80
0FFFFF80
0FFE7F00
0FF00000
1FE00000
1FC00000
1FC00000
3FC00000
3F800000
3F800000
3F807FC0
7F03FFC0
7F07FFC0
7F03FFC0
7F03FFC0
7F83FFC0
FF81FFC0
FF81FFC0
FF81FFC0
FFC3FFC0
FFFFFFC0
FFFFFFC0
FFFFFFC0
FFFFFFC0
FFFFFF80
7FFFFF00
7FFFFC00
3FFFF000
1FFFE000
0FFF8000
03FC0000
ENDCHAR
STARTCHAR 0194
ENCODING 404
SWIDTH 612 0
DWIDTH 34 0
BBX 32 44 1 -7
BITMAP
FF800080
FF8001E0
FF8003FE
7FC003FF
7FC007FF
3FC007FE
3FC007FE
3FE00FFC
3FE00FFC
1FE01FF8
1FF01FF8
1FF01FF0
0FF83FF0
0FF83FF0
07F87FE0
07FC7FE0
03FC7FC0
03FE7FC0
01FEFFC0
01FFFF80
00FFFF80
007FFF00
007FFF00
003FFE00
003FFC00
001FF800
003FF800
007FFC00
007FFE00
00FFFE00
00FFFE00
01FCFE00
01FC7E00
01F87E00
01F83E00
01F83E00
01F87E00
01FCFE00
01FFFC00
00FFFC00
007FF800
003FF000
001FE000
000F8000
ENDCHAR
STARTCHAR 0197
ENCODING 407
SWIDTH 360 0
DWIDTH 20 0
BBX 18 37 1 1
BITMAP
07FFC0
07FFC0
07FF80
07FF80
07FF80
07FF00
07FF00
07FF00
0FFF00
0FFF00
0FFF00
0FFF00
0FFF00
0FFF00
0FFF80
FFFFC0
FFFFC0
FFFFC0
FFFFC0
FFFFC0
FFFFC0
FFFFC0
1FFE00
1FFE00
1FFE00
1FFE00
1FFF00
1FFF00
1FFF00
1FFF00
1FFE00
1FFE00
1FFC00
3FFE00
3FFC00
7FF800
7E0000
ENDCHAR
STARTCHAR 0198
ENCODING 408
SWIDTH 594 0
DWIDTH 33 0
BBX 32 38 1 1
BITMAP
008607E0
FFFE0FF0
7FFE1FF8
7FFE1FFC
7FFE3FFC
7FFE7FFE
7FFE7FFE
7FFEFFFF
7FFEFEFF
7FFEFE7F
7FFFFC3F
FFFFFC3F
FFFFF87F
FFFFF87E
FFFFF1FE
FFFFF1FE
FFFFE1FC
FFFFE3FC
FFFFC3F8
FFFFC3F0
FFFFE020
FFFFF000
FFFFF800
FFFFFC00
FFFFFC00
FFFFFE00
FFFFFF00
FFFFFF80
FFFEFFC0
FFFC7FC0
FFFC7FE0
FFFC3FE0
FFFC3FF0
FFFC1FF0
FFFE0FF8
FFFE0F98
FFFC0F00
00700600
ENDCHAR
STARTCHAR 0199
ENCODING 409
SWIDTH 594 0
DWIDTH 33 0
BBX 32 38 1 1
BITMAP
008607E0
FFFE0FF0
7FFE1FF8
7FFE1FFC
7FFE3FFC
7FFE7FFE
7FFE7FFE
7FFEFFFF
7FFEFEFF
7FFEFE7F
7FFFFC3F
FFFFFC3F
FFFFF87F
FFFFF87E
FFFFF1FE
FFFFF1FE
FFFFE1FC
FFFFE3FC
FFFFC3F8
FFFFC3F0
FFFFE020
FFFFF000
FFFFF800
FFFFFC00
FFFFFC00
FFFFFE00
FFFFFF00
FFFFFF80
FFFEFFC0
FFFC7FC0
FFFC7FE0
FFFC3FE0
FFFC3FF0
FFFC1FF0
FFFE0FF8
FFFE0F98
FFFC0F00
00700600
ENDCHAR
STARTCHAR 019D
ENCODING 413
SWIDTH 558 0
DWIDTH 31 0
BBX 34 44 -3 -7
BITMAP
003E003F00
00FFE1FF80
01FFE1FFC0
01FFE1FFC0
01FFE1FF80
01FFE1FF80
01FFE1FF80
01FFE1FF80
03FFE1FF80
03FFE1FF80
03FFF3FF80
03FFF1FF80
03FFF1FF80
03FFF1FF00
03FFFBFF00
07FFFBFF00
07FFFBFF00
07FFFBFF00
07FFFFFF00
07FFFFFF00
07FFFFFF00
07FFFFFF00
07FF7FFF00
07FF7FFF00
07FF7FFE00
07FF3FFE00
07FF3FFE00
07FE1FFE00
07FE1FFE00
07FE1FFE00
0FFE0FFE00
0FFE0FFE00
0FFE0FFE00
0FFC0FFE00
0FFC0FFE00
0FFC07FC00
1FFC000000
FFF8000000
FFF8000000
FFF8000000
FFF0000000
FFC0000000
FFC0000000
FF00000000
ENDCHAR
STARTCHAR 01A0
ENCODING 416
SWIDTH 540 0
DWIDTH 30 0
BBX 29 40 1 0
BITMAP
000000F0
007001F8
00FC01F8
01FF01F8
03FFC0F8
07FFE0F8
07FFF8F8
0FFFFCF8
0FFFFC78
1FFFFEF8
1FFFFFF8
1FFFFFF8
3FFFFFF0
3FFFFFF0
7FFFFFF0
7FFFFFC0
7FF0FFE0
FFE07FE0
FFE07FE0
FFC07FF0
FFC07FF0
FFC07FF0
FFC07FF0
FFE07FF0
FFF0FFF0
FFF9FFF0
7FFFFFF0
7FFFFFE0
7FFFFFE0
7FFFFFE0
3FFFFFE0
3FFFFFE0
3FFFFFC0
1FFFFFC0
1FFFFFC0
0FFFFF80
07FFFF80
03FFFE00
00FFFC00
003FF000
ENDCHAR
STARTCHAR 01A1
ENCODING 417
SWIDTH 540 0
DWIDTH 30 0
BBX 29 40 1 0
BITMAP
000000F0
007001F8
00FC01F8
01FF01F8
03FFC0F8
07FFE0F8
07FFF8F8
0FFFFCF8
0FFFFC78
1FFFFEF8
1FFFFFF8
1FFFFFF8
3FFFFFF0
3FFFFFF0
7FFFFFF0
7FFFFFC0
7FF0FFE0
FFE07FE0
FFE07FE0
FFC07FF0
FFC07FF0
FFC07FF0
FFC07FF0
FFE07FF0
FFF0FFF0
FFF9FFF0
7FFFFFF0
7FFFFFE0
7FFFFFE0
7FFFFFE0
3FFFFFE0
3FFFFFE0
3FFFFFC0
1FFFFFC0
1FFFFFC0
0FFFFF80
07FFFF80
03FFFE00
00FFFC00
003FF000
ENDCHAR
STARTCHAR 01AF
ENCODING 431
SWIDTH 594 0
DWIDTH 33 0
BBX 32 40 1 0
BITMAP
0000001E
0000003F
0000023F
7F007E3F
FF01FE1F
FF80FF1F
FF00FF1F
FF007F1F
FF00FF0F
FF00FF1F
FF00FFFF
FF007FFF
FF007FFE
FF007FFE
FF007FFC
FF807FF8
FF807FF0
FF807FC0
FF807FC0
FF807FC0
FF80FFC0
FFC0FFC0
FFC1FFC0
FFC3FFC0
7FFFFFC0
7FFFFFC0
7FFFFFC0
3FFFFFC0
3FFFFFC0
3FFFFF80
1FFFFF80
1FFFFF80
0FFFFF00
0FFFFF00
07FFFE00
03FFFE00
03FFFC00
01FFF800
00FFE000
00010000
ENDCHAR
STARTCHAR 01B0
ENCODING 432
SWIDTH 594 0
DWIDTH 33 0
BBX 32 40 1 0
BITMAP
0000001E
0000003F
0000023F
7F007E3F
FF01FE1F
FF80FF1F
FF00FF1F
FF007F1F
FF00FF0F
FF00FF1F
FF00FFFF
FF007FFF
FF007FFE
FF007FFE
FF007FFC
FF807FF8
FF807FF0
FF807FC0
FF807FC0
FF807FC0
FF80FFC0
FFC0FFC0
FFC1FFC0
FFC3FFC0
7FFFFFC0
7FFFFFC0
7FFFFFC0
3FFFFFC0
3FFFFFC0
3FFFFF80
1FFFFF80
1FFFFF80
0FFFFF00
0FFFFF00
07FFFE00
03FFFE00
03FFFC00
01FFF800
00FFE000
00010000
ENDCHAR
STARTCHAR 01B1
ENCODING 433
SWIDTH 612 0
DWIDTH 34 0
BBX 32 39 1 0
BITMAP
72001FFF
FFFC1FFF
FFFC1FFF
FFFC1FFF
FFFC1FFF
FFFC1FFF
FFFC1FFF
FFFC1FFF
FFF81FFE
0FF80FF0
0FF007F8
1FF003FC
1FE003FC
1FE003FC
3FC001FE
3FC001FE
7F8000FE
7F8000FE
7F8000FF
7F8001FF
7F8001FF
FF8001FF
FF8001FF
FFC003FF
FFC003FE
FFE007FE
7FF00FFE
7FF81FFE
7FFFFFFE
7FFFFFFC
3FFFFFF8
3FFFFFF8
3FFFFFF0
1FFFFFE0
1FFFFFE0
0FFFFFC0
07FFFF80
03FFFE00
007FF000
ENDCHAR
STARTCHAR 01B2
ENCODING 434
SWIDTH 558 0
DWIDTH 31 0
BBX 29 38 1 1
BITMAP
0000E000
0203F800
FE0FFC00
FE0FFE00
FF07FF00
FF03FF80
FF03FF80
FF01FFC0
FF80FFE0
FF807FE0
FF803FF0
FF803FF0
FF801FF0
FFC01FF8
FFC01FF8
FFC01FF8
FFC01FF8
FFC01FF8
FFE01FF8
7FE01FF8
7FE01FF8
7FF03FF8
7FF03FF8
3FF8FFF8
3FFFFFF8
3FFFFFF8
1FFFFFF8
1FFFFFF0
1FFFFFF0
0FFFFFF0
0FFFFFE0
07FFFFE0
03FFFFC0
01FFFFC0
01FFFF80
00FFFF00
007FFC00
003FE000
ENDCHAR
STARTCHAR 01B3
ENCODING 435
SWIDTH 666 0
DWIDTH 37 0
BBX 36 38 1 0
BITMAP
0000007800
010001FE00
078003FF00
7FC007FF80
FFC007FFC0
FFE00FFFC0
7FE00FFFE0
7FF00FFFE0
3FF01FFFE0
3FF81FFFF0
1FF83FFFF0
1FFC3FE7F0
0FFC7FE7F0
0FFE7FC7F0
07FEFFC7E0
07FEFF87E0
03FFFF8FE0
03FFFF1FC0
01FFFF3FC0
01FFFE3FC0
00FFFE3F80
00FFFC3F80
007FFC3F00
007FFC0000
003FF80000
003FF00000
001FF00000
000FF00000
000FF00000
000FF00000
000FF80000
000FF80000
000FF80000
000FF80000
000FF80000
000FF80000
000FF80000
000FE00000
ENDCHAR
STARTCHAR 01B4
ENCODING 436
SWIDTH 666 0
DWIDTH 37 0
BBX 36 38 1 0
BITMAP
0000007800
010001FE00
078003FF00
7FC007FF80
FFC007FFC0
FFE00FFFC0
7FE00FFFE0
7FF00FFFE0
3FF01FFFE0
3FF81FFFF0
1FF83FFFF0
1FFC3FE7F0
0FFC7FE7F0
0FFE7FC7F0
07FEFFC7E0
07FEFF87E0
03FFFF8FE0
03FFFF1FC0
01FFFF3FC0
01FFFE3FC0
00FFFE3F80
00FFFC3F80
007FFC3F00
007FFC0000
003FF80000
003FF00000
001FF00000
000FF00000
000FF00000
000FF00000
000FF80000
000FF80000
000FF80000
000FF80000
000FF80000
000FF80000
000FF80000
000FE00000
ENDCHAR
STARTCHAR 01B5
ENCODING 437
SWIDTH 594 0
DWIDTH 33 0
BBX 31 38 1 0
BITMAP
003FFE00
03FFFFE0
1FFFFFC0
3FFFFF80
7FFFFF80
7FFFFF00
FFFFFE00
FFFFFE00
FFFFFC00
FFF7FC00
8007F800
000FF800
000FF000
000FF000
001FF400
1FFFFFE0
3FFFFFE0
3FFFFFE0
3FFFFFE0
3FFFFFE0
3FFFFFE0
3FFFFFE0
1FFFC000
00FF8000
00FF8000
01FF8000
01FF0000
01FE0386
03FFFFFE
03FFFFFE
03FFFFFE
03FFFFFE
07FFFFFE
07FFFFFC
07FFFFF8
001FFFF0
0003FFC0
00003C00
ENDCHAR
STARTCHAR 01B6
ENCODING 438
SWIDTH 594 0
DWIDTH 33 0
BBX 31 38 1 0
BITMAP
003FFE00
03FFFFE0
1FFFFFC0
3FFFFF80
7FFFFF80
7FFFFF00
FFFFFE00
FFFFFE00
FFFFFC00
FFF7FC00
8007F800
000FF800
000FF000
000FF000
001FF400
1FFFFFE0
3FFFFFE0
3FFFFFE0
3FFFFFE0
3FFFFFE0
3FFFFFE0
3FFFFFE0
1FFFC000
00FF8000
00FF8000
01FF8000
01FF0000
01FE0386
03FFFFFE
03FFFFFE
03FFFFFE
03FFFFFE
07FFFFFE
07FFFFFC
07FFFFF8
001FFFF0
0003FFC0
00003C00
ENDCHAR
STARTCHAR 01B7
ENCODING 439
SWIDTH 486 0
DWIDTH 27 0
BBX 26 39 1 -1
BITMAP
0FFFF800
7FFFFC00
7FFFFE00
3FFFFE00
3FFFFE00
3FFFFC00
0F1FFC00
0001F800
0003F000
000FE000
001FE000
003FC000
00FF8000
01FFE000
03FFF800
07FFFC00
1FFFFE00
1FFFFF00
1FFFFF00
07FFFF00
0000FF80
00007F80
00003F80
00003F80
00001FC0
00001FC0
00003FC0
F8003FC0
FF807FC0
FFFBFF80
FFFFFF80
FFFFFF80
FFFFFF00
FFFFFE00
7FFFFE00
1FFFFC00
07FFF000
01FFC000
001F0000
ENDCHAR
STARTCHAR 01BB
ENCODING 443
SWIDTH 504 0
DWIDTH 28 0
BBX 27 38 1 1
BITMAP
00400000
01FC0000
07FF0000
0FFFC000
1FFFF000
3FFFF000
7FFFF000
FFFFF800
FFFFF800
7FFFF000
7F97F000
3E07F800
1C07F800
0807F800
0007F000
00FFFFC0
1FFFFFC0
1FFFFFC0
1FFFFFC0
1FFFFFC0
1FFFFFC0
1FFFC000
063F8040
007FDFE0
007FFFE0
00FFFFC0
01FFFFC0
01FFFFC0
03FFFFC0
03FFFF80
07FFFF80
0FFFFF80
0FFFFF80
3FFFFF80
7FFFFF00
3FFFFE00
1FFFE000
01FF0000
ENDCHAR
STARTCHAR 01C0
ENCODING 448
SWIDTH 180 0
DWIDTH 10 0
BBX 9 38 1 0
BITMAP
7F00
FF00
FF00
FF00
FF00
FF00
FF00
FF00
FF00
FF00
FF00
FF00
FF00
FF00
FF00
FF80
FF80
FF80
FF00
FF00
FF00
FF00
FF00
FF00
FF80
FF80
FF80
FF00
FF00
FF00
FF00
FF00
FF00
FF00
FF00
FF00
7F00
7E00
ENDCHAR
STARTCHAR 01C1
ENCODING 449
SWIDTH 306 0
DWIDTH 17 0
BBX 16 38 1 1
BITMAP
747E
FE7E
FE7E
FE7E
FE7E
FE7E
FE7F
FE7F
FE7E
FE7E
FE7E
FE7E
FE7E
FE7E
FE7E
FE7E
FE7E
FE7E
FE7E
FE7E
FE7E
FE7E
FE7E
FE7E
FE7E
FE7E
FE7E
FE7E
FE7E
FE7E
FE7E
FE7E
FE7E
FE7E
FE7E
FE7E
FE7E
FE00
ENDCHAR
STARTCHAR 01C2
ENCODING 450
SWIDTH 324 0
DWIDTH 18 0
BBX 16 38 1 0
BITMAP
07C0
0FF0
0FF0
0FF0
0FF0
0FF0
0FF0
0FF0
0FF0
FFFF
FFFF
FFFF
FFFF
FFFF
FFFF
FFFF
7FF0
0FF0
0FF0
0FF0
0FF0
0FF0
0FF8
FFFF
FFFF
FFFF
FFFF
FFFF
FFFF
FFFF
FFF0
0FF0
0FF0
0FF0
0FF0
0FF0
0FF0
07F0
ENDCHAR
STARTCHAR 01C3
ENCODING 451
SWIDTH 198 0
DWIDTH 11 0
BBX 10 39 1 0
BITMAP
7F80
FFC0
FFC0
FFC0
FFC0
FFC0
FFC0
FFC0
FFC0
FFC0
FFC0
FFC0
FFC0
FFC0
FFC0
FFC0
FFC0
FF80
FF80
FF80
FF80
7F80
7F80
7F80
7F00
3E00
0000
0000
0000
1E00
7F00
FF80
FF80
FF80
FF80
FF80
7F80
3F80
0C00
ENDCHAR
STARTCHAR 01CA
ENCODING 458
SWIDTH 738 0
DWIDTH 41 0
BBX 39 38 1 0
BITMAP
0000000004
0F00F003FC
3FC3F803FC
3FE7F803FE
3FE7F807FE
3FE7F807FE
3FC7F807FE
3FE7F807FE
3FE7F807FE
3FE7F807FE
3FE7F807FE
7FE7F807FE
7FE7F807FE
7FF7F007FE
7FF7F007FE
7FF7F007FE
7FF7F007FE
7FF7F007FE
7FFFF007FE
7FFFF007FE
7FFFF007FE
7FFFF003FE
7FFFF003FE
7FFFF003FE
7FFFF003FE
7F3FF033FE
7F3FF3F1FE
FF3FF3F9FE
FF3FF3FBFC
FF1FF3FBFC
FF1FF3FDFC
FF1FF3FFF8
FF1FE1FFF8
FF1FE1FFF0
FF1FF0FFF0
FF0FE0FFE0
FE0FC03FC0
E000000F80
ENDCHAR
STARTCHAR 01CB
ENCODING 459
SWIDTH 738 0
DWIDTH 41 0
BBX 39 38 1 0
BITMAP
0000000004
0F00F003FC
3FC3F803FC
3FE7F803FE
3FE7F807FE
3FE7F807FE
3FC7F807FE
3FE7F807FE
3FE7F807FE
3FE7F807FE
3FE7F807FE
7FE7F807FE
7FE7F807FE
7FF7F007FE
7FF7F007FE
7FF7F007FE
7FF7F007FE
7FF7F007FE
7FFFF007FE
7FFFF007FE
7FFFF007FE
7FFFF003FE
7FFFF003FE
7FFFF003FE
7FFFF003FE
7F3FF033FE
7F3FF3F1FE
FF3FF3F9FE
FF3FF3FBFC
FF1FF3FBFC
FF1FF3FDFC
FF1FF3FFF8
FF1FE1FFF8
FF1FE1FFF0
FF1FF0FFF0
FF0FE0FFE0
FE0FC03FC0
E000000F80
ENDCHAR
STARTCHAR 01CC
ENCODING 460
SWIDTH 738 0
DWIDTH 41 0
BBX 39 38 1 0
BITMAP
0000000004
0F00F003FC
3FC3F803FC
3FE7F803FE
3FE7F807FE
3FE7F807FE
3FC7F807FE
3FE7F807FE
3FE7F807FE
3FE7F807FE
3FE7F807FE
7FE7F807FE
7FE7F807FE
7FF7F007FE
7FF7F007FE
7FF7F007FE
7FF7F007FE
7FF7F007FE
7FFFF007FE
7FFFF007FE
7FFFF007FE
7FFFF003FE
7FFFF003FE
7FFFF003FE
7FFFF003FE
7F3FF033FE
7F3FF3F1FE
FF3FF3F9FE
FF3FF3FBFC
FF1FF3FBFC
FF1FF3FDFC
FF1FF3FFF8
FF1FE1FFF8
FF1FE1FFF0
FF1FF0FFF0
FF0FE0FFE0
FE0FC03FC0
E000000F80
ENDCHAR
STARTCHAR 01CD
ENCODING 461
SWIDTH 630 0
DWIDTH 35 0
BBX 33 49 1 -1
BITMAP
003C078000
007E1FC000
007F3FC000
003FFF8000
001FFF0000
000FFE0000
0007FC0000
0001F00000
0000C00000
0000000000
0000100000
0001F80000
0001F80000
0003F80000
0003FC0000
0003FC0000
0007FC0000
0007FC0000
000FFE0000
000FFE0000
000FFE0000
001FFE0000
001FFF0000
001FFF0000
003FFF0000
003FFF8000
007FFF8000
007FFF8000
00FFFFC000
00FFFFC000
00FDFFC000
01F8FFC000
01F87FE000
03F07FE000
03E07FE000
07E07FF000
07FFFFF000
0FFFFFF800
0FFFFFF800
0FFFFFF800
1FFE7FFC00
1FF03FFC00
3FE03FFE00
3FE03FFE00
7FE03FFF00
7FE01FFF00
7FC01FFF80
FFE01FFF80
FF000C0000
ENDCHAR
STARTCHAR 01CE
ENCODING 462
SWIDTH 630 0
DWIDTH 35 0
BBX 33 49 1 -1
BITMAP
003C078000
007E1FC000
007F3FC000
003FFF8000
001FFF0000
000FFE0000
0007FC0000
0001F00000
0000C00000
0000000000
0000100000
0001F80000
0001F80000
0003F80000
0003FC0000
0003FC0000
0007FC0000
0007FC0000
000FFE0000
000FFE0000
000FFE0000
001FFE0000
001FFF0000
001FFF0000
003FFF0000
003FFF8000
007FFF8000
007FFF8000
00FFFFC000
00FFFFC000
00FDFFC000
01F8FFC000
01F87FE000
03F07FE000
03E07FE000
07E07FF000
07FFFFF000
0FFFFFF800
0FFFFFF800
0FFFFFF800
1FFE7FFC00
1FF03FFC00
3FE03FFE00
3FE03FFE00
7FE03FFF00
7FE01FFF00
7FC01FFF80
FFE01FFF80
FF000C0000
ENDCHAR
STARTCHAR 01CF
ENCODING 463
SWIDTH 324 0
DWIDTH 18 0
BBX 19 48 1 0
BITMAP
1E01C0
1F87E0
1FDFE0
1FFFC0
0FFFC0
03FF80
01FE00
00FC00
007000
000000
000000
07FF80
0FFF80
0FFF00
0FFF00
0FFF00
0FFF00
0FFE00
0FFE00
0FFE00
1FFE00
1FFE00
1FFE00
1FFE00
1FFE00
1FFE00
1FFE00
1FFE00
1FFE00
1FFE00
1FFE00
3FFE00
3FFE00
3FFE00
3FFE00
3FFE00
3FFE00
3FFE00
3FFE00
3FFE00
3FFE00
3FFC00
3FFC00
3FFC00
7FFC00
7FF800
7FE000
FC0000
ENDCHAR
STARTCHAR 01D0
ENCODING 464
SWIDTH 324 0
DWIDTH 18 0
BBX 19 48 1 0
BITMAP
1E01C0
1F87E0
1FDFE0
1FFFC0
0FFFC0
03FF80
01FE00
00FC00
007000
000000
000000
07FF80
0FFF80
0FFF00
0FFF00
0FFF00
0FFF00
0FFE00
0FFE00
0FFE00
1FFE00
1FFE00
1FFE00
1FFE00
1FFE00
1FFE00
1FFE00
1FFE00
1FFE00
1FFE00
1FFE00
3FFE00
3FFE00
3FFE00
3FFE00
3FFE00
3FFE00
3FFE00
3FFE00
3FFE00
3FFE00
3FFC00
3FFC00
3FFC00
7FFC00
7FF800
7FE000
FC0000
ENDCHAR
STARTCHAR 01D1
ENCODING 465
SWIDTH 522 0
DWIDTH 29 0
BBX 28 48 1 0
BITMAP
7C0F8000
FE1F8000
7FBF8000
3FFF0000
1FFE0000
0FFC0000
07F80000
01E00000
00000000
00700000
00FC0000
01FF0000
03FFC000
07FFE000
07FFF800
0FFFFC00
0FFFFC00
1FFFFE00
1FFFFF00
1FFFFF00
3FFFFF80
3FFFFF80
7FFFFFC0
7FFFFFC0
7FF0FFE0
FFE07FE0
FFE07FE0
FFC07FF0
FFC07FF0
FFC07FF0
FFC07FF0
FFE07FF0
FFF0FFF0
FFF9FFF0
7FFFFFF0
7FFFFFE0
7FFFFFE0
7FFFFFE0
3FFFFFE0
3FFFFFE0
3FFFFFC0
1FFFFFC0
1FFFFFC0
0FFFFF80
07FFFF80
03FFFE00
00FFFC00
003FF000
ENDCHAR
STARTCHAR 01D2
ENCODING 466
SWIDTH 522 0
DWIDTH 29 0
BBX 28 48 1 0
BITMAP
7C0F8000
FE1F8000
7FBF8000
3FFF0000
1FFE0000
0FFC0000
07F80000
01E00000
00000000
00700000
00FC0000
01FF0000
03FFC000
07FFE000
07FFF800
0FFFFC00
0FFFFC00
1FFFFE00
1FFFFF00
1FFFFF00
3FFFFF80
3FFFFF80
7FFFFFC0
7FFFFFC0
7FF0FFE0
FFE07FE0
FFE07FE0
FFC07FF0
FFC07FF0
FFC07FF0
FFC07FF0
FFE07FF0
FFF0FFF0
FFF9FFF0
7FFFFFF0
7FFFFFE0
7FFFFFE0
7FFFFFE0
3FFFFFE0
3FFFFFE0
3FFFFFC0
1FFFFFC0
1FFFFFC0
0FFFFF80
07FFFF80
03FFFE00
00FFFC00
003FF000
ENDCHAR
STARTCHAR 01D3
ENCODING 467
SWIDTH 540 0
DWIDTH 30 0
BBX 29 47 1 1
BITMAP
00780700
007E1F80
007F7F80
007FFF00
003FFE00
000FFC00
0007F800
0003F000
00018000
00000000
0F000800
1FF00FF0
1FF01FF0
1FE01FF0
1FE00FF0
3FE00FF0
3FE00FF0
3FE00FF0
3FE00FF0
7FC00FF0
7FC00FF0
7FC01FF0
7FC01FF0
7FC01FF0
FFC01FF0
FFC01FF0
FFC01FF0
FFE01FF8
FFE03FF8
FFE03FF8
FFF03FF0
FFFC7FF0
FFFFFFF0
FFFFFFE0
7FFFFFE0
7FFFFFE0
7FFFFFC0
7FFFFFC0
3FFFFFC0
3FFFFF80
1FFFFF00
1FFFFF00
0FFFFE00
0FFFFC00
07FFF800
01FFF000
003FE000
ENDCHAR
STARTCHAR 01D4
ENCODING 468
SWIDTH 540 0
DWIDTH 30 0
BBX 29 47 1 1
BITMAP
00780700
007E1F80
007F7F80
007FFF00
003FFE00
000FFC00
0007F800
0003F000
00018000
00000000
0F000800
1FF00FF0
1FF01FF0
1FE01FF0
1FE00FF0
3FE00FF0
3FE00FF0
3FE00FF0
3FE00FF0
7FC00FF0
7FC00FF0
7FC01FF0
7FC01FF0
7FC01FF0
FFC01FF0
FFC01FF0
FFC01FF0
FFE01FF8
FFE03FF8
FFE03FF8
FFF03FF0
FFFC7FF0
FFFFFFF0
FFFFFFE0
7FFFFFE0
7FFFFFE0
7FFFFFC0
7FFFFFC0
3FFFFFC0
3FFFFF80
1FFFFF00
1FFFFF00
0FFFFE00
0FFFFC00
07FFF800
01FFF000
003FE000
ENDCHAR
STARTCHAR 01D5
ENCODING 469
SWIDTH 540 0
DWIDTH 30 0
BBX 29 49 1 1
BITMAP
00FFFF80
00FFFF80
00FFFF80
00FFFF80
00000000
00000000
003C1C00
007C3F00
00FC3F00
007C3F00
003C3E00
00000000
0F000800
1FF00FF0
1FF01FF0
1FE01FF0
1FE00FF0
3FE00FF0
3FE00FF0
3FE00FF0
3FE00FF0
7FC00FF0
7FC00FF0
7FC01FF0
7FC01FF0
7FC01FF0
FFC01FF0
FFC01FF0
FFC01FF0
FFE01FF8
FFE03FF8
FFE03FF8
FFF03FF0
FFFC7FF0
FFFFFFF0
FFFFFFE0
7FFFFFE0
7FFFFFE0
7FFFFFC0
7FFFFFC0
3FFFFFC0
3FFFFF80
1FFFFF00
1FFFFF00
0FFFFE00
0FFFFC00
07FFF800
01FFF000
003FE000
ENDCHAR
STARTCHAR 01D6
ENCODING 470
SWIDTH 540 0
DWIDTH 30 0
BBX 29 49 1 1
BITMAP
00FFFF80
00FFFF80
00FFFF80
00FFFF80
00000000
00000000
003C1C00
007C3F00
00FC3F00
007C3F00
003C3E00
00000000
0F000800
1FF00FF0
1FF01FF0
1FE01FF0
1FE00FF0
3FE00FF0
3FE00FF0
3FE00FF0
3FE00FF0
7FC00FF0
7FC00FF0
7FC01FF0
7FC01FF0
7FC01FF0
FFC01FF0
FFC01FF0
FFC01FF0
FFE01FF8
FFE03FF8
FFE03FF8
FFF03FF0
FFFC7FF0
FFFFFFF0
FFFFFFE0
7FFFFFE0
7FFFFFE0
7FFFFFC0
7FFFFFC0
3FFFFFC0
3FFFFF80
1FFFFF00
1FFFFF00
0FFFFE00
0FFFFC00
07FFF800
01FFF000
003FE000
ENDCHAR
STARTCHAR 01D7
ENCODING 471
SWIDTH 540 0
DWIDTH 30 0
BBX 29 49 1 1
BITMAP
00007F80
0000FF00
0000FE00
0001F800
0003F000
00006000
003C1C00
007C3F00
00FC3F00
007C3F00
003C3E00
00000000
0F000800
1FF00FF0
1FF01FF0
1FE01FF0
1FE00FF0
3FE00FF0
3FE00FF0
3FE00FF0
3FE00FF0
7FC00FF0
7FC00FF0
7FC01FF0
7FC01FF0
7FC01FF0
FFC01FF0
FFC01FF0
FFC01FF0
FFE01FF8
FFE03FF8
FFE03FF8
FFF03FF0
FFFC7FF0
FFFFFFF0
FFFFFFE0
7FFFFFE0
7FFFFFE0
7FFFFFC0
7FFFFFC0
3FFFFFC0
3FFFFF80
1FFFFF00
1FFFFF00
0FFFFE00
0FFFFC00
07FFF800
01FFF000
003FE000
ENDCHAR
STARTCHAR 01D8
ENCODING 472
SWIDTH 540 0
DWIDTH 30 0
BBX 29 49 1 1
BITMAP
00007F80
0000FF00
0000FE00
0001F800
0003F000
00006000
003C1C00
007C3F00
00FC3F00
007C3F00
003C3E00
00000000
0F000800
1FF00FF0
1FF01FF0
1FE01FF0
1FE00FF0
3FE00FF0
3FE00FF0
3FE00FF0
3FE00FF0
7FC00FF0
7FC00FF0
7FC01FF0
7FC01FF0
7FC01FF0
FFC01FF0
FFC01FF0
FFC01FF0
FFE01FF8
FFE03FF8
FFE03FF8
FFF03FF0
FFFC7FF0
FFFFFFF0
FFFFFFE0
7FFFFFE0
7FFFFFE0
7FFFFFC0
7FFFFFC0
3FFFFFC0
3FFFFF80
1FFFFF00
1FFFFF00
0FFFFE00
0FFFFC00
07FFF800
01FFF000
003FE000
ENDCHAR
STARTCHAR 01D9
ENCODING 473
SWIDTH 540 0
DWIDTH 30 0
BBX 29 49 1 1
BITMAP
00FC1F80
00FF7F80
003FFF00
001FFC00
0007F000
0001C000
003C1C00
007C3F00
00FC3F00
007C3F00
003C3E00
00000000
0F000800
1FF00FF0
1FF01FF0
1FE01FF0
1FE00FF0
3FE00FF0
3FE00FF0
3FE00FF0
3FE00FF0
7FC00FF0
7FC00FF0
7FC01FF0
7FC01FF0
7FC01FF0
FFC01FF0
FFC01FF0
FFC01FF0
FFE01FF8
FFE03FF8
FFE03FF8
FFF03FF0
FFFC7FF0
FFFFFFF0
FFFFFFE0
7FFFFFE0
7FFFFFE0
7FFFFFC0
7FFFFFC0
3FFFFFC0
3FFFFF80
1FFFFF00
1FFFFF00
0FFFFE00
0FFFFC00
07FFF800
01FFF000
003FE000
ENDCHAR
STARTCHAR 01DA
ENCODING 474
SWIDTH 540 0
DWIDTH 30 0
BBX 29 49 1 1
BITMAP
00FC1F80
00FF7F80
003FFF00
001FFC00
0007F000
0001C000
003C1C00
007C3F00
00FC3F00
007C3F00
003C3E00
00000000
0F000800
1FF00FF0
1FF01FF0
1FE01FF0
1FE00FF0
3FE00FF0
3FE00FF0
3FE00FF0
3FE00FF0
7FC00FF0
7FC00FF0
7FC01FF0
7FC01FF0
7FC01FF0
FFC01FF0
FFC01FF0
FFC01FF0
FFE01FF8
FFE03FF8
FFE03FF8
FFF03FF0
FFFC7FF0
FFFFFFF0
FFFFFFE0
7FFFFFE0
7FFFFFE0
7FFFFFC0
7FFFFFC0
3FFFFFC0
3FFFFF80
1FFFFF00
1FFFFF00
0FFFFE00
0FFFFC00
07FFF800
01FFF000
003FE000
ENDCHAR
STARTCHAR 01DB
ENCODING 475
SWIDTH 540 0
DWIDTH 30 0
BBX 29 49 1 1
BITMAP
00FF0000
007F8000
003FC000
000FC000
0007E000
00030000
003C1C00
007C3F00
00FC3F00
007C3F00
003C3E00
00000000
0F000800
1FF00FF0
1FF01FF0
1FE01FF0
1FE00FF0
3FE00FF0
3FE00FF0
3FE00FF0
3FE00FF0
7FC00FF0
7FC00FF0
7FC01FF0
7FC01FF0
7FC01FF0
FFC01FF0
FFC01FF0
FFC01FF0
FFE01FF8
FFE03FF8
FFE03FF8
FFF03FF0
FFFC7FF0
FFFFFFF0
FFFFFFE0
7FFFFFE0
7FFFFFE0
7FFFFFC0
7FFFFFC0
3FFFFFC0
3FFFFF80
1FFFFF00
1FFFFF00
0FFFFE00
0FFFFC00
07FFF800
01FFF000
003FE000
ENDCHAR
STARTCHAR 01DC
ENCODING 476
SWIDTH 540 0
DWIDTH 30 0
BBX 29 49 1 1
BITMAP
00FF0000
007F8000
003FC000
000FC000
0007E000
00030000
003C1C00
007C3F00
00FC3F00
007C3F00
003C3E00
00000000
0F000800
1FF00FF0
1FF01FF0
1FE01FF0
1FE00FF0
3FE00FF0
3FE00FF0
3FE00FF0
3FE00FF0
7FC00FF0
7FC00FF0
7FC01FF0
7FC01FF0
7FC01FF0
FFC01FF0
FFC01FF0
FFC01FF0
FFE01FF8
FFE03FF8
FFE03FF8
FFF03FF0
FFFC7FF0
FFFFFFF0
FFFFFFE0
7FFFFFE0
7FFFFFE0
7FFFFFC0
7FFFFFC0
3FFFFFC0
3FFFFF80
1FFFFF00
1FFFFF00
0FFFFE00
0FFFFC00
07FFF800
01FFF000
003FE000
ENDCHAR
STARTCHAR 01DE
ENCODING 478
SWIDTH 630 0
DWIDTH 35 0
BBX 33 51 1 -1
BITMAP
003FFFC000
003FFFC000
003FFFC000
003FFFC000
0000000000
0000060000
001F0F8000
001F0FC000
003F0FC000
003F0F8000
000E070000
0000000000
0000100000
0001F80000
0001F80000
0003F80000
0003FC0000
0003FC0000
0007FC0000
0007FC0000
000FFE0000
000FFE0000
000FFE0000
001FFE0000
001FFF0000
001FFF0000
003FFF0000
003FFF8000
007FFF8000
007FFF8000
00FFFFC000
00FFFFC000
00FDFFC000
01F8FFC000
01F87FE000
03F07FE000
03E07FE000
07E07FF000
07FFFFF000
0FFFFFF800
0FFFFFF800
0FFFFFF800
1FFE7FFC00
1FF03FFC00
3FE03FFE00
3FE03FFE00
7FE03FFF00
7FE01FFF00
7FC01FFF80
FFE01FFF80
FF000C0000
ENDCHAR
STARTCHAR 01DF
ENCODING 479
SWIDTH 630 0
DWIDTH 35 0
BBX 33 51 1 -1
BITMAP
003FFFC000
003FFFC000
003FFFC000
003FFFC000
0000000000
0000060000
001F0F8000
001F0FC000
003F0FC000
003F0F8000
000E070000
0000000000
0000100000
0001F80000
0001F80000
0003F80000
0003FC0000
0003FC0000
0007FC0000
0007FC0000
000FFE0000
000FFE0000
000FFE0000
001FFE0000
001FFF0000
001FFF0000
003FFF0000
003FFF8000
007FFF8000
007FFF8000
00FFFFC000
00FFFFC000
00FDFFC000
01F8FFC000
01F87FE000
03F07FE000
03E07FE000
07E07FF000
07FFFFF000
0FFFFFF800
0FFFFFF800
0FFFFFF800
1FFE7FFC00
1FF03FFC00
3FE03FFE00
3FE03FFE00
7FE03FFF00
7FE01FFF00
7FC01FFF80
FFE01FFF80
FF000C0000
ENDCHAR
STARTCHAR 01E0
ENCODING 480
SWIDTH 630 0
DWIDTH 35 0
BBX 33 51 1 -1
BITMAP
003FFFC000
003FFFC000
003FFFC000
003FFFC000
0000000000
0000000000
0000F00000
0001F80000
0001F80000
0001F80000
0000F00000
0000000000
0000100000
0001F80000
0001F80000
0003F80000
0003FC0000
0003FC0000
0007FC0000
0007FC0000
000FFE0000
000FFE0000
000FFE0000
001FFE0000
001FFF0000
001FFF0000
003FFF0000
003FFF8000
007FFF8000
007FFF8000
00FFFFC000
00FFFFC000
00FDFFC000
01F8FFC000
01F87FE000
03F07FE000
03E07FE000
07E07FF000
07FFFFF000
0FFFFFF800
0FFFFFF800
0FFFFFF800
1FFE7FFC00
1FF03FFC00
3FE03FFE00
3FE03FFE00
7FE03FFF00
7FE01FFF00
7FC01FFF80
FFE01FFF80
FF000C0000
ENDCHAR
STARTCHAR 01E1
ENCODING 481
SWIDTH 630 0
DWIDTH 35 0
BBX 33 51 1 -1
BITMAP
003FFFC000
003FFFC000
003FFFC000
003FFFC000
0000000000
0000000000
0000F00000
0001F80000
0001F80000
0001F80000
0000F00000
0000000000
0000100000
0001F80000
0001F80000
0003F80000
0003FC0000
0003FC0000
0007FC0000
0007FC0000
000FFE0000
000FFE0000
000FFE0000
001FFE0000
001FFF0000
001FFF0000
003FFF0000
003FFF8000
007FFF8000
007FFF8000
00FFFFC000
00FFFFC000
00FDFFC000
01F8FFC000
01F87FE000
03F07FE000
03E07FE000
07E07FF000
07FFFFF000
0FFFFFF800
0FFFFFF800
0FFFFFF800
1FFE7FFC00
1FF03FFC00
3FE03FFE00
3FE03FFE00
7FE03FFF00
7FE01FFF00
7FC01FFF80
FFE01FFF80
FF000C0000
ENDCHAR
STARTCHAR 01E2
ENCODING 482
SWIDTH 738 0
DWIDTH 41 0
BBX 39 46 1 -1
BITMAP
0000FFFE00
0000FFFF00
0000FFFF00
0000FFFF00
0000FFFF00
0000000000
0000010000
00007FFF00
0001FFFFC0
0001FFFF80
0003FFFF80
0003FFFF80
0007FFFF80
0007FFFF80
0007FFFF00
000FFFFF00
000FFFFF80
000FFFFF00
001FFFC000
001FFF8000
003FFF8000
003FFF8000
003FFFC700
007FFFFF00
007FFFFF00
00FFFFFF00
00FFFFFF00
01FCFFFF80
01F8FFF000
01F87FE000
03F07FE018
03E07FFFF8
07E1FFFFF8
07FFFFFFFC
0FFFFFFFFC
0FFFFFFFFC
1FFFFFFFFC
1FFC7FFFFE
1FF03FFFFE
3FE03FFFFE
3FE03FFFFE
7FE03FFFFC
7FC01FFFC0
FFE01FFC00
FFE00F8000
FC00000000
ENDCHAR
STARTCHAR 01E3
ENCODING 483
SWIDTH 738 0
DWIDTH 41 0
BBX 39 46 1 -1
BITMAP
0000FFFE00
0000FFFF00
0000FFFF00
0000FFFF00
0000FFFF00
0000000000
0000010000
00007FFF00
0001FFFFC0
0001FFFF80
0003FFFF80
0003FFFF80
0007FFFF80
0007FFFF80
0007FFFF00
000FFFFF00
000FFFFF80
000FFFFF00
001FFFC000
001FFF8000
003FFF8000
003FFF8000
003FFFC700
007FFFFF00
007FFFFF00
00FFFFFF00
00FFFFFF00
01FCFFFF80
01F8FFF000
01F87FE000
03F07FE018
03E07FFFF8
07E1FFFFF8
07FFFFFFFC
0FFFFFFFFC
0FFFFFFFFC
1FFFFFFFFC
1FFC7FFFFE
1FF03FFFFE
3FE03FFFFE
3FE03FFFFE
7FE03FFFFC
7FC01FFFC0
FFE01FFC00
FFE00F8000
FC00000000
ENDCHAR
STARTCHAR 01E4
ENCODING 484
SWIDTH 540 0
DWIDTH 30 0
BBX 29 37 1 1
BITMAP
0007FC00
000FFF00
001FFF80
003FFFC0
007FFFE0
00FFFFF0
00FFFFF0
01FFFFE0
01FFCFC0
03FE0000
03FC0000
03F80000
07FF0000
FFFF0000
FFFF0000
FFFF0000
FFFE0FF8
FFFEFFF0
FFFEFFF0
1FF87FF0
1FE07FF0
1FE07FF0
1FE07FF0
1FF07FF0
1FF07FF0
1FF87FF0
3FFFFFF0
1FFFFFF0
1FFFFFF0
1FFFFFF0
1FFFFFE0
1FFFFFC0
0FFFFF80
07FFFE00
03FFF800
01FFE000
00FF0000
ENDCHAR
STARTCHAR 01E5
ENCODING 485
SWIDTH 540 0
DWIDTH 30 0
BBX 29 37 1 1
BITMAP
0007FC00
000FFF00
001FFF80
003FFFC0
007FFFE0
00FFFFF0
00FFFFF0
01FFFFE0
01FFCFC0
03FE0000
03FC0000
03F80000
07FF0000
FFFF0000
FFFF0000
FFFF0000
FFFE0FF8
FFFEFFF0
FFFEFFF0
1FF87FF0
1FE07FF0
1FE07FF0
1FE07FF0
1FF07FF0
1FF07FF0
1FF87FF0
3FFFFFF0
1FFFFFF0
1FFFFFF0
1FFFFFF0
1FFFFFE0
1FFFFFC0
0FFFFF80
07FFFE00
03FFF800
01FFE000
00FF0000
ENDCHAR
STARTCHAR 01E6
ENCODING 486
SWIDTH 504 0
DWIDTH 28 0
BBX 26 47 1 1
BITMAP
01E03800
03F0FE00
03F9FC00
01FFFC00
00FFF800
007FF000
003FC000
001F8000
00060000
00000000
003FE000
007FF800
00FFFE00
01FFFF00
03FFFF80
03FFFF80
07FFFF80
0FFFFF80
0FFE7F00
0FF00000
1FE00000
1FC00000
1FC00000
3FC00000
3F800000
3F800000
3F807FC0
7F03FFC0
7F07FFC0
7F03FFC0
7F03FFC0
7F83FFC0
FF81FFC0
FF81FFC0
FF81FFC0
FFC3FFC0
FFFFFFC0
FFFFFFC0
FFFFFFC0
FFFFFFC0
FFFFFF80
7FFFFF00
7FFFFC00
3FFFF000
1FFFE000
0FFF8000
03FC0000
ENDCHAR
STARTCHAR 01E7
ENCODING 487
SWIDTH 504 0
DWIDTH 28 0
BBX 26 47 1 1
BITMAP
01E03800
03F0FE00
03F9FC00
01FFFC00
00FFF800
007FF000
003FC000
001F8000
00060000
00000000
003FE000
007FF800
00FFFE00
01FFFF00
03FFFF80
03FFFF80
07FFFF80
0FFFFF80
0FFE7F00
0FF00000
1FE00000
1FC00000
1FC00000
3FC00000
3F800000
3F800000
3F807FC0
7F03FFC0
7F07FFC0
7F03FFC0
7F03FFC0
7F83FFC0
FF81FFC0
FF81FFC0
FF81FFC0
FFC3FFC0
FFFFFFC0
FFFFFFC0
FFFFFFC0
FFFFFFC0
FFFFFF80
7FFFFF00
7FFFFC00
3FFFF000
1FFFE000
0FFF8000
03FC0000
ENDCHAR
STARTCHAR 01E8
ENCODING 488
SWIDTH 540 0
DWIDTH 30 0
BBX 29 48 1 0
BITMAP
003C0380
007E0FC0
007FBFC0
003FFF80
001FFF00
000FFE00
0003FC00
0001F000
0000C000
00000100
00860700
FFFE0F80
7FFE1FC0
7FFE1FF8
7FFE3FF8
7FFE7FF0
7FFE7FE0
7FFEFFC0
7FFEFFC0
7FFEFF80
7FFFFF00
FFFFFE00
FFFFFE00
FFFFFC00
FFFFFC00
FFFFF800
FFFFF800
FFFFF000
FFFFE000
FFFFC000
FFFFE000
FFFFF000
FFFFF800
FFFFFC00
FFFFFC00
FFFFFE00
FFFFFF00
FFFFFF80
FFFEFFC0
FFFC7FC0
FFFC7FE0
FFFC3FE0
FFFC3FF0
FFFC1FF0
FFFE0FF8
FFFE0F98
FFFC0F00
00700600
ENDCHAR
STARTCHAR 01E9
ENCODING 489
SWIDTH 540 0
DWIDTH 30 0
BBX 29 48 1 0
BITMAP
003C0380
007E0FC0
007FBFC0
003FFF80
001FFF00
000FFE00
0003FC00
0001F000
0000C000
00000100
00860700
FFFE0F80
7FFE1FC0
7FFE1FF8
7FFE3FF8
7FFE7FF0
7FFE7FE0
7FFEFFC0
7FFEFFC0
7FFEFF80
7FFFFF00
FFFFFE00
FFFFFE00
FFFFFC00
FFFFFC00
FFFFF800
FFFFF800
FFFFF000
FFFFE000
FFFFC000
FFFFE000
FFFFF000
FFFFF800
FFFFFC00
FFFFFC00
FFFFFE00
FFFFFF00
FFFFFF80
FFFEFFC0
FFFC7FC0
FFFC7FE0
FFFC3FE0
FFFC3FF0
FFFC1FF0
FFFE0FF8
FFFE0F98
FFFC0F00
00700600
ENDCHAR
STARTCHAR 01EA
ENCODING 490
SWIDTH 522 0
DWIDTH 29 0
BBX 28 48 1 -9
BITMAP
00700000
00FC0000
01FF0000
03FFC000
07FFE000
07FFF800
0FFFFC00
0FFFFC00
1FFFFE00
1FFFFF00
1FFFFF00
3FFFFF80
3FFFFF80
7FFFFFC0
7FFFFFC0
7FF0FFE0
FFE07FE0
FFE07FE0
FFC07FF0
FFC07FF0
FFC07FF0
FFC07FF0
FFE07FF0
FFF0FFF0
FFF9FFF0
7FFFFFF0
7FFFFFE0
7FFFFFE0
7FFFFFE0
3FFFFFE0
3FFFFFE0
3FFFFFC0
1FFFFFC0
1FFFFFC0
0FFFFF80
07FFFF80
03FFFE00
00FFFC00
003FF000
000F8000
000F0000
001F0000
001F0000
003F0780
003FFF80
001FFF80
001FFF80
0007FF00
ENDCHAR
STARTCHAR 01EB
ENCODING 491
SWIDTH 522 0
DWIDTH 29 0
BBX 28 48 1 -9
BITMAP
00700000
00FC0000
01FF0000
03FFC000
07FFE000
07FFF800
0FFFFC00
0FFFFC00
1FFFFE00
1FFFFF00
1FFFFF00
3FFFFF80
3FFFFF80
7FFFFFC0
7FFFFFC0
7FF0FFE0
FFE07FE0
FFE07FE0
FFC07FF0
FFC07FF0
FFC07FF0
FFC07FF0
FFE07FF0
FFF0FFF0
FFF9FFF0
7FFFFFF0
7FFFFFE0
7FFFFFE0
7FFFFFE0
3FFFFFE0
3FFFFFE0
3FFFFFC0
1FFFFFC0
1FFFFFC0
0FFFFF80
07FFFF80
03FFFE00
00FFFC00
003FF000
000F8000
000F0000
001F0000
001F0000
003F0780
003FFF80
001FFF80
001FFF80
0007FF00
ENDCHAR
STARTCHAR 01EC
ENCODING 492
SWIDTH 522 0
DWIDTH 29 0
BBX 28 54 1 -9
BITMAP
3FFF8000
3FFFC000
3FFFC000
3FFFC000
3FFFC000
10000000
00700000
00FC0000
01FF0000
03FFC000
07FFE000
07FFF800
0FFFFC00
0FFFFC00
1FFFFE00
1FFFFF00
1FFFFF00
3FFFFF80
3FFFFF80
7FFFFFC0
7FFFFFC0
7FF0FFE0
FFE07FE0
FFE07FE0
FFC07FF0
FFC07FF0
FFC07FF0
FFC07FF0
FFE07FF0
FFF0FFF0
FFF9FFF0
7FFFFFF0
7FFFFFE0
7FFFFFE0
7FFFFFE0
3FFFFFE0
3FFFFFE0
3FFFFFC0
1FFFFFC0
1FFFFFC0
0FFFFF80
07FFFF80
03FFFE00
00FFFC00
003FF000
000F8000
000F0000
001F0000
001F0000
003F0780
003FFF80
001FFF80
001FFF80
0007FF00
ENDCHAR
STARTCHAR 01ED
ENCODING 493
SWIDTH 522 0
DWIDTH 29 0
BBX 28 54 1 -9
BITMAP
3FFF8000
3FFFC000
3FFFC000
3FFFC000
3FFFC000
10000000
00700000
00FC0000
01FF0000
03FFC000
07FFE000
07FFF800
0FFFFC00
0FFFFC00
1FFFFE00
1FFFFF00
1FFFFF00
3FFFFF80
3FFFFF80
7FFFFFC0
7FFFFFC0
7FF0FFE0
FFE07FE0
FFE07FE0
FFC07FF0
FFC07FF0
FFC07FF0
FFC07FF0
FFE07FF0
FFF0FFF0
FFF9FFF0
7FFFFFF0
7FFFFFE0
7FFFFFE0
7FFFFFE0
3FFFFFE0
3FFFFFE0
3FFFFFC0
1FFFFFC0
1FFFFFC0
0FFFFF80
07FFFF80
03FFFE00
00FFFC00
003FF000
000F8000
000F0000
001F0000
001F0000
003F0780
003FFF80
001FFF80
001FFF80
0007FF00
ENDCHAR
STARTCHAR 01EE
ENCODING 494
SWIDTH 486 0
DWIDTH 27 0
BBX 26 49 1 -1
BITMAP
03004000
0F83F000
1FC7F000
0FFFF000
07FFE000
03FFC000
01FF0000
007E0000
00380000
00000000
0FFFF800
7FFFFC00
7FFFFE00
3FFFFE00
3FFFFE00
3FFFFC00
0F1FFC00
0001F800
0003F000
000FE000
001FE000
003FC000
00FF8000
01FFE000
03FFF800
07FFFC00
1FFFFE00
1FFFFF00
1FFFFF00
07FFFF00
0000FF80
00007F80
00003F80
00003F80
00001FC0
00001FC0
00003FC0
F8003FC0
FF807FC0
FFFBFF80
FFFFFF80
FFFFFF80
FFFFFF00
FFFFFE00
7FFFFE00
1FFFFC00
07FFF000
01FFC000
001F0000
ENDCHAR
STARTCHAR 01EF
ENCODING 495
SWIDTH 486 0
DWIDTH 27 0
BBX 26 49 1 -1
BITMAP
03004000
0F83F000
1FC7F000
0FFFF000
07FFE000
03FFC000
01FF0000
007E0000
00380000
00000000
0FFFF800
7FFFFC00
7FFFFE00
3FFFFE00
3FFFFE00
3FFFFC00
0F1FFC00
0001F800
0003F000
000FE000
001FE000
003FC000
00FF8000
01FFE000
03FFF800
07FFFC00
1FFFFE00
1FFFFF00
1FFFFF00
07FFFF00
0000FF80
00007F80
00003F80
00003F80
00001FC0
00001FC0
00003FC0
F8003FC0
FF807FC0
FFFBFF80
FFFFFF80
FFFFFF80
FFFFFF00
FFFFFE00
7FFFFE00
1FFFFC00
07FFF000
01FFC000
001F0000
ENDCHAR
STARTCHAR 01F0
ENCODING 496
SWIDTH 450 0
DWIDTH 25 0
BBX 25 48 1 0
BITMAP
00780F00
00FC3F80
00FE7F80
007FFF00
003FFE00
001FFC00
000FF800
0003E000
00018000
00000000
00000C00
001FFC00
001FFE00
003FFE00
003FFE00
003FFE00
003FFE00
003FFE00
007FFE00
007FFE00
007FFE00
007FFE00
007FFE00
007FFE00
007FFF00
007FFF00
007FFF00
007FFF00
003FFF00
003FFF00
003FFF00
001FFF00
001FFF00
001FFE00
001FFE00
070FFE00
FF0FFE00
FF8FFE00
FFCFFE00
FFDFFC00
FFEFFC00
FFFFF800
7FFFF800
3FFFF000
3FFFE000
1FFFC000
07FF0000
00FE0000
ENDCHAR
STARTCHAR 01F4
ENCODING 500
SWIDTH 504 0
DWIDTH 28 0
BBX 26 47 1 1
BITMAP
0001FC00
0001FE00
0003FC00
0007F800
0007F000
000FE000
000FC000
001F8000
00030000
00000000
003FE000
007FF800
00FFFE00
01FFFF00
03FFFF80
03FFFF80
07FFFF80
0FFFFF80
0FFE7F00
0FF00000
1FE00000
1FC00000
1FC00000
3FC00000
3F800000
3F800000
3F807FC0
7F03FFC0
7F07FFC0
7F03FFC0
7F03FFC0
7F83FFC0
FF81FFC0
FF81FFC0
FF81FFC0
FFC3FFC0
FFFFFFC0
FFFFFFC0
FFFFFFC0
FFFFFFC0
FFFFFF80
7FFFFF00
7FFFFC00
3FFFF000
1FFFE000
0FFF8000
03FC0000
ENDCHAR
STARTCHAR 01F5
ENCODING 501
SWIDTH 504 0
DWIDTH 28 0
BBX 26 47 1 1
BITMAP
0001FC00
0001FE00
0003FC00
0007F800
0007F000
000FE000
000FC000
001F8000
00030000
00000000
003FE000
007FF800
00FFFE00
01FFFF00
03FFFF80
03FFFF80
07FFFF80
0FFFFF80
0FFE7F00
0FF00000
1FE00000
1FC00000
1FC00000
3FC00000
3F800000
3F800000
3F807FC0
7F03FFC0
7F07FFC0
7F03FFC0
7F03FFC0
7F83FFC0
FF81FFC0
FF81FFC0
FF81FFC0
FFC3FFC0
FFFFFFC0
FFFFFFC0
FFFFFFC0
FFFFFFC0
FFFFFF80
7FFFFF00
7FFFFC00
3FFFF000
1FFFE000
0FFF8000
03FC0000
ENDCHAR
STARTCHAR 01F8
ENCODING 504
SWIDTH 558 0
DWIDTH 31 0
BBX 30 48 1 0
BITMAP
00FE0000
00FF0000
007F8000
003F8000
001FC000
000FC000
0007E000
0007E000
00030000
00000000
00000000
03E003F0
0FFE1FF8
1FFE1FFC
1FFE1FFC
1FFE1FF8
1FFE1FF8
1FFE1FF8
1FFE1FF8
3FFE1FF8
3FFE1FF8
3FFF3FF8
3FFF1FF8
3FFF1FF8
3FFF1FF0
3FFFBFF0
7FFFBFF0
7FFFBFF0
7FFFBFF0
7FFFFFF0
7FFFFFF0
7FFFFFF0
7FFFFFF0
7FF7FFF0
7FF7FFF0
7FF7FFE0
7FF3FFE0
7FF3FFE0
7FF1FFE0
7FF1FFE0
7FE1FFE0
FFE0FFE0
FFE0FFE0
FFE0FFE0
FFE0FFE0
FFE0FFE0
FFC07FC0
F0000000
ENDCHAR
STARTCHAR 01F9
ENCODING 505
SWIDTH 558 0
DWIDTH 31 0
BBX 30 48 1 0
BITMAP
00FE0000
00FF0000
007F8000
003F8000
001FC000
000FC000
0007E000
0007E000
00030000
00000000
00000000
03E003F0
0FFE1FF8
1FFE1FFC
1FFE1FFC
1FFE1FF8
1FFE1FF8
1FFE1FF8
1FFE1FF8
3FFE1FF8
3FFE1FF8
3FFF3FF8
3FFF1FF8
3FFF1FF8
3FFF1FF0
3FFFBFF0
7FFFBFF0
7FFFBFF0
7FFFBFF0
7FFFFFF0
7FFFFFF0
7FFFFFF0
7FFFFFF0
7FF7FFF0
7FF7FFF0
7FF7FFE0
7FF3FFE0
7FF3FFE0
7FF1FFE0
7FF1FFE0
7FE1FFE0
FFE0FFE0
FFE0FFE0
FFE0FFE0
FFE0FFE0
FFE0FFE0
FFC07FC0
F0000000
ENDCHAR
STARTCHAR 01FE
ENCODING 510
SWIDTH 522 0
DWIDTH 29 0
BBX 30 49 0 -1
BITMAP
0007F000
000FF000
001FE000
001FC000
003F8000
003F0000
007E0000
007E0000
000C0000
003807FC
007E07FC
00FF8FF8
01FFFFF8
03FFFFF0
03FFFFE0
07FFFFE0
07FFFFC0
0FFFFFC0
0FFFFF80
0FFFFF80
1FFFFFC0
1FFFFFE0
3FFFFFE0
3FFFFFE0
3FE7FFF0
7FCFFFF0
7F8FFFF0
7F9FFFF8
7F9FCFF8
7FBFCFF8
7FFF9FF8
7FFF1FF8
7FFF1FF8
7FFE3FF8
3FFEFFF8
3FFFFFF0
3FFFFFF0
3FFFFFF0
1FFFFFF0
1FFFFFF0
1FFFFFE0
1FFFFFE0
1FFFFFE0
3FFFFFC0
7FFFFFC0
7FFFFF00
FE7FFE00
9E0FF800
04000000
ENDCHAR
STARTCHAR 01FF
ENCODING 511
SWIDTH 522 0
DWIDTH 29 0
BBX 30 49 0 -1
BITMAP
0007F000
000FF000
001FE000
001FC000
003F8000
003F0000
007E0000
007E0000
000C0000
003807FC
007E07FC
00FF8FF8
01FFFFF8
03FFFFF0
03FFFFE0
07FFFFE0
07FFFFC0
0FFFFFC0
0FFFFF80
0FFFFF80
1FFFFFC0
1FFFFFE0
3FFFFFE0
3FFFFFE0
3FE7FFF0
7FCFFFF0
7F8FFFF0
7F9FFFF8
7F9FCFF8
7FBFCFF8
7FFF9FF8
7FFF1FF8
7FFF1FF8
7FFE3FF8
3FFEFFF8
3FFFFFF0
3FFFFFF0
3FFFFFF0
1FFFFFF0
1FFFFFF0
1FFFFFE0
1FFFFFE0
1FFFFFE0
3FFFFFC0
7FFFFFC0
7FFFFF00
FE7FFE00
9E0FF800
04000000
ENDCHAR
STARTCHAR 0218
ENCODING 536
SWIDTH 504 0
DWIDTH 28 0
BBX 26 47 1 -9
BITMAP
007FFF00
01FFFFC0
07FFFFC0
07FFFF80
0FFFFF80
0FFFFF00
1FFFFF00
1FFFFE00
1FFFFE00
3FFFFE00
3FFFFC00
3FFFFC00
3FFFF800
3FFFF800
3FE03800
3FF00000
3FFC0000
1FFF0000
1FFFC000
0FFFF800
07FFFC00
01FFFE00
003FFF00
0007FF00
0001FF00
0001FF80
3001FF80
7803FF80
FEFFFF80
FFFFFF80
FFFFFF80
FFFFFF00
FFFFFF00
FFFFFF00
7FFFFC00
1FFFF800
0FFFE000
03FF8000
00100000
00FE0000
01FE0000
01FE0000
01FE0000
01FC0000
01FC0000
01F80000
00F00000
ENDCHAR
STARTCHAR 0219
ENCODING 537
SWIDTH 504 0
DWIDTH 28 0
BBX 26 47 1 -9
BITMAP
007FFF00
01FFFFC0
07FFFFC0
07FFFF80
0FFFFF80
0FFFFF00
1FFFFF00
1FFFFE00
1FFFFE00
3FFFFE00
3FFFFC00
3FFFFC00
3FFFF800
3FFFF800
3FE03800
3FF00000
3FFC0000
1FFF0000
1FFFC000
0FFFF800
07FFFC00
01FFFE00
003FFF00
0007FF00
0001FF00
0001FF80
3001FF80
7803FF80
FEFFFF80
FFFFFF80
FFFFFF80
FFFFFF00
FFFFFF00
FFFFFF00
7FFFFC00
1FFFF800
0FFFE000
03FF8000
00100000
00FE0000
01FE0000
01FE0000
01FE0000
01FC0000
01FC0000
01F80000
00F00000
ENDCHAR
STARTCHAR 021A
ENCODING 538
SWIDTH 576 0
DWIDTH 32 0
BBX 30 47 1 -9
BITMAP
00000180
7FFFFFE0
FFFFFFF8
FFFFFFF8
FFFFFFF8
FFFFFFFC
FFFFFFFC
FFFFFFFC
FFFFFFFC
FFFFFFFC
FFFFFFFC
FFFFFE00
FF0FF800
F00FF000
001FF000
001FF000
001FF000
001FF000
001FF000
001FF000
001FE000
001FF000
001FF000
001FF000
001FF000
001FF000
001FE000
001FE000
001FE000
001FE000
001FE000
001FF000
001FE000
001FE000
001FE000
001FE000
001FE000
000FE000
00000000
001FC000
001FE000
001FE000
001FC000
001FC000
003F8000
003F8000
001F0000
ENDCHAR
STARTCHAR 021B
ENCODING 539
SWIDTH 576 0
DWIDTH 32 0
BBX 30 47 1 -9
BITMAP
00000180
7FFFFFE0
FFFFFFF8
FFFFFFF8
FFFFFFF8
FFFFFFFC
FFFFFFFC
FFFFFFFC
FFFFFFFC
FFFFFFFC
FFFFFFFC
FFFFFE00
FF0FF800
F00FF000
001FF000
001FF000
001FF000
001FF000
001FF000
001FF000
001FE000
001FF000
001FF000
001FF000
001FF000
001FF000
001FE000
001FE000
001FE000
001FE000
001FE000
001FF000
001FE000
001FE000
001FE000
001FE000
001FE000
000FE000
00000000
001FC000
001FE000
001FE000
001FC000
001FC000
003F8000
003F8000
001F0000
ENDCHAR
STARTCHAR 021E
ENCODING 542
SWIDTH 558 0
DWIDTH 31 0
BBX 29 47 1 1
BITMAP
001E03C0
003F0FE0
003F9FE0
001FFFC0
000FFF80
0007FF00
0003FE00
0000F800
00006000
00000000
000C0000
03FF0000
1FFE07F8
1FFC0FF8
1FFC0FF8
0FFE1FF8
0FFE0FF8
0FFE0FF8
0FFE1FF8
1FFC1FF8
1FFC1FF8
1FFC1FF8
1FFE1FF8
1FFE1FF8
1FFF3FF8
1FFFFFF0
1FFFFFF0
1FFFFFF0
3FFFFFF0
3FFFFFF0
3FFFFFF0
3FFFFFF8
3FFFFFF8
3FFFFFF8
3FFFFFF8
3FFD3FF8
3FFC3FF8
3FFC7FF0
3FFC3FF0
3FF83FF0
7FFC7FF0
7FF87FF0
7FF87FF0
7FFC7FF0
7FF83FF0
FFF87FE0
FFF87C00
ENDCHAR
STARTCHAR 021F
ENCODING 543
SWIDTH 558 0
DWIDTH 31 0
BBX 29 47 1 1
BITMAP
001E03C0
003F0FE0
003F9FE0
001FFFC0
000FFF80
0007FF00
0003FE00
0000F800
00006000
00000000
000C0000
03FF0000
1FFE07F8
1FFC0FF8
1FFC0FF8
0FFE1FF8
0FFE0FF8
0FFE0FF8
0FFE1FF8
1FFC1FF8
1FFC1FF8
1FFC1FF8
1FFE1FF8
1FFE1FF8
1FFF3FF8
1FFFFFF0
1FFFFFF0
1FFFFFF0
3FFFFFF0
3FFFFFF0
3FFFFFF0
3FFFFFF8
3FFFFFF8
3FFFFFF8
3FFFFFF8
3FFD3FF8
3FFC3FF8
3FFC7FF0
3FFC3FF0
3FF83FF0
7FFC7FF0
7FF87FF0
7FF87FF0
7FFC7FF0
7FF83FF0
FFF87FE0
FFF87C00
ENDCHAR
STARTCHAR 0224
ENCODING 548
SWIDTH 594 0
DWIDTH 33 0
BBX 31 45 1 -7
BITMAP
003FFE00
03FFFFE0
1FFFFFC0
3FFFFF80
7FFFFF80
7FFFFF00
FFFFFE00
FFFFFE00
FFFFFC00
FFF7FC00
8007F800
000FF800
000FF000
000FF000
001FF000
001FE000
001FE000
003FE000
003FC000
003FC000
007FC000
007FC000
007FC000
00FF8000
00FF8000
00FF8000
01FF0000
01FE0000
01FFFFFE
03FFFFFE
03FFFFFE
03FFFFFE
07FFFFFE
07FFFFFE
07FFFFFE
000007FE
000007FE
00000FFE
00007FFE
00007FFC
00007FFC
00007FF8
00007FF0
00007FE0
00007F80
ENDCHAR
STARTCHAR 0225
ENCODING 549
SWIDTH 594 0
DWIDTH 33 0
BBX 31 45 1 -7
BITMAP
003FFE00
03FFFFE0
1FFFFFC0
3FFFFF80
7FFFFF80
7FFFFF00
FFFFFE00
FFFFFE00
FFFFFC00
FFF7FC00
8007F800
000FF800
000FF000
000FF000
001FF000
001FE000
001FE000
003FE000
003FC000
003FC000
007FC000
007FC000
007FC000
00FF8000
00FF8000
00FF8000
01FF0000
01FE0000
01FFFFFE
03FFFFFE
03FFFFFE
03FFFFFE
07FFFFFE
07FFFFFE
07FFFFFE
000007FE
000007FE
00000FFE
00007FFE
00007FFC
00007FFC
00007FF8
00007FF0
00007FE0
00007F80
ENDCHAR
STARTCHAR 0226
ENCODING 550
SWIDTH 630 0
DWIDTH 35 0
BBX 33 46 1 -1
BITMAP
0000E00000
0001F00000
0001F80000
0001F80000
0001F00000
0000F00000
0000000000
0000100000
0001F80000
0001F80000
0003F80000
0003FC0000
0003FC0000
0007FC0000
0007FC0000
000FFE0000
000FFE0000
000FFE0000
001FFE0000
001FFF0000
001FFF0000
003FFF0000
003FFF8000
007FFF8000
007FFF8000
00FFFFC000
00FFFFC000
00FDFFC000
01F8FFC000
01F87FE000
03F07FE000
03E07FE000
07E07FF000
07FFFFF000
0FFFFFF800
0FFFFFF800
0FFFFFF800
1FFE7FFC00
1FF03FFC00
3FE03FFE00
3FE03FFE00
7FE03FFF00
7FE01FFF00
7FC01FFF80
FFE01FFF80
FF000C0000
ENDCHAR
STARTCHAR 0227
ENCODING 551
SWIDTH 630 0
DWIDTH 35 0
BBX 33 46 1 -1
BITMAP
0000E00000
0001F00000
0001F80000
0001F80000
0001F00000
0000F00000
0000000000
0000100000
0001F80000
0001F80000
0003F80000
0003FC0000
0003FC0000
0007FC0000
0007FC0000
000FFE0000
000FFE0000
000FFE0000
001FFE0000
001FFF0000
001FFF0000
003FFF0000
003FFF8000
007FFF8000
007FFF8000
00FFFFC000
00FFFFC000
00FDFFC000
01F8FFC000
01F87FE000
03F07FE000
03E07FE000
07E07FF000
07FFFFF000
0FFFFFF800
0FFFFFF800
0FFFFFF800
1FFE7FFC00
1FF03FFC00
3FE03FFE00
3FE03FFE00
7FE03FFF00
7FE01FFF00
7FC01FFF80
FFE01FFF80
FF000C0000
ENDCHAR
STARTCHAR 0228
ENCODING 552
SWIDTH 486 0
DWIDTH 27 0
BBX 26 48 1 -9
BITMAP
03FC0000
1FFFF000
7FFFF000
FFFFF000
FFFFF000
7FFFE000
7FFFE000
7FFFE000
7FFFE000
3FFFE000
3FFFE000
3FFFC000
3FF00000
3FE00000
3FF00000
1FF00000
1FF3E000
1FFFC000
1FFFC000
1FFFC000
1FFFE000
0FFFE000
0FF80000
0FF80000
0FFC0600
0FFFFF00
0FFFFF00
07FFFF00
07FFFF00
07FFFF80
07FFFF80
07FFFF80
07FFFF80
07FFFF80
07FFFFC0
07FFFE00
03FFF000
03FFC000
03C7E000
0007E000
0007F000
0003FC00
0000FE00
00207F00
00FEFF00
00FFFE00
007FFE00
001FFC00
ENDCHAR
STARTCHAR 0229
ENCODING 553
SWIDTH 486 0
DWIDTH 27 0
BBX 26 48 1 -9
BITMAP
03FC0000
1FFFF000
7FFFF000
FFFFF000
FFFFF000
7FFFE000
7FFFE000
7FFFE000
7FFFE000
3FFFE000
3FFFE000
3FFFC000
3FF00000
3FE00000
3FF00000
1FF00000
1FF3E000
1FFFC000
1FFFC000
1FFFC000
1FFFE000
0FFFE000
0FF80000
0FF80000
0FFC0600
0FFFFF00
0FFFFF00
07FFFF00
07FFFF00
07FFFF80
07FFFF80
07FFFF80
07FFFF80
07FFFF80
07FFFFC0
07FFFE00
03FFF000
03FFC000
03C7E000
0007E000
0007F000
0003FC00
0000FE00
00207F00
00FEFF00
00FFFE00
007FFE00
001FFC00
ENDCHAR
STARTCHAR 022A
ENCODING 554
SWIDTH 522 0
DWIDTH 29 0
BBX 28 50 1 0
BITMAP
3FFFC000
3FFFC000
3FFFC000
3FFFC000
00000000
00000000
1F070000
3F0F8000
3F0FC000
3F0F8000
1E0F8000
00700000
00FC0000
01FF0000
03FFC000
07FFE000
07FFF800
0FFFFC00
0FFFFC00
1FFFFE00
1FFFFF00
1FFFFF00
3FFFFF80
3FFFFF80
7FFFFFC0
7FFFFFC0
7FF0FFE0
FFE07FE0
FFE07FE0
FFC07FF0
FFC07FF0
FFC07FF0
FFC07FF0
FFE07FF0
FFF0FFF0
FFF9FFF0
7FFFFFF0
7FFFFFE0
7FFFFFE0
7FFFFFE0
3FFFFFE0
3FFFFFE0
3FFFFFC0
1FFFFFC0
1FFFFFC0
0FFFFF80
07FFFF80
03FFFE00
00FFFC00
003FF000
ENDCHAR
STARTCHAR 022B
ENCODING 555
SWIDTH 522 0
DWIDTH 29 0
BBX 28 50 1 0
BITMAP
3FFFC000
3FFFC000
3FFFC000
3FFFC000
00000000
00000000
1F070000
3F0F8000
3F0FC000
3F0F8000
1E0F8000
00700000
00FC0000
01FF0000
03FFC000
07FFE000
07FFF800
0FFFFC00
0FFFFC00
1FFFFE00
1FFFFF00
1FFFFF00
3FFFFF80
3FFFFF80
7FFFFFC0
7FFFFFC0
7FF0FFE0
FFE07FE0
FFE07FE0
FFC07FF0
FFC07FF0
FFC07FF0
FFC07FF0
FFE07FF0
FFF0FFF0
FFF9FFF0
7FFFFFF0
7FFFFFE0
7FFFFFE0
7FFFFFE0
3FFFFFE0
3FFFFFE0
3FFFFFC0
1FFFFFC0
1FFFFFC0
0FFFFF80
07FFFF80
03FFFE00
00FFFC00
003FF000
ENDCHAR
STARTCHAR 022C
ENCODING 556
SWIDTH 522 0
DWIDTH 29 0
BBX 28 50 1 0
BITMAP
3FFFC000
3FFFC000
3FFFC000
3FFFC000
00000000
070FC000
1FCFC000
3FFFC000
3FFFC000
3EFF0000
3C1C0000
00700000
00FC0000
01FF0000
03FFC000
07FFE000
07FFF800
0FFFFC00
0FFFFC00
1FFFFE00
1FFFFF00
1FFFFF00
3FFFFF80
3FFFFF80
7FFFFFC0
7FFFFFC0
7FF0FFE0
FFE07FE0
FFE07FE0
FFC07FF0
FFC07FF0
FFC07FF0
FFC07FF0
FFE07FF0
FFF0FFF0
FFF9FFF0
7FFFFFF0
7FFFFFE0
7FFFFFE0
7FFFFFE0
3FFFFFE0
3FFFFFE0
3FFFFFC0
1FFFFFC0
1FFFFFC0
0FFFFF80
07FFFF80
03FFFE00
00FFFC00
003FF000
ENDCHAR
STARTCHAR 022D
ENCODING 557
SWIDTH 522 0
DWIDTH 29 0
BBX 28 50 1 0
BITMAP
3FFFC000
3FFFC000
3FFFC000
3FFFC000
00000000
070FC000
1FCFC000
3FFFC000
3FFFC000
3EFF0000
3C1C0000
00700000
00FC0000
01FF0000
03FFC000
07FFE000
07FFF800
0FFFFC00
0FFFFC00
1FFFFE00
1FFFFF00
1FFFFF00
3FFFFF80
3FFFFF80
7FFFFFC0
7FFFFFC0
7FF0FFE0
FFE07FE0
FFE07FE0
FFC07FF0
FFC07FF0
FFC07FF0
FFC07FF0
FFE07FF0
FFF0FFF0
FFF9FFF0
7FFFFFF0
7FFFFFE0
7FFFFFE0
7FFFFFE0
3FFFFFE0
3FFFFFE0
3FFFFFC0
1FFFFFC0
1FFFFFC0
0FFFFF80
07FFFF80
03FFFE00
00FFFC00
003FF000
ENDCHAR
STARTCHAR 022E
ENCODING 558
SWIDTH 522 0
DWIDTH 29 0
BBX 28 46 1 0
BITMAP
00C00000
01F00000
03F00000
03F00000
03F00000
01E00000
00000000
00700000
00FC0000
01FF0000
03FFC000
07FFE000
07FFF800
0FFFFC00
0FFFFC00
1FFFFE00
1FFFFF00
1FFFFF00
3FFFFF80
3FFFFF80
7FFFFFC0
7FFFFFC0
7FF0FFE0
FFE07FE0
FFE07FE0
FFC07FF0
FFC07FF0
FFC07FF0
FFC07FF0
FFE07FF0
FFF0FFF0
FFF9FFF0
7FFFFFF0
7FFFFFE0
7FFFFFE0
7FFFFFE0
3FFFFFE0
3FFFFFE0
3FFFFFC0
1FFFFFC0
1FFFFFC0
0FFFFF80
07FFFF80
03FFFE00
00FFFC00
003FF000
ENDCHAR
STARTCHAR 022F
ENCODING 559
SWIDTH 522 0
DWIDTH 29 0
BBX 28 46 1 0
BITMAP
00C00000
01F00000
03F00000
03F00000
03F00000
01E00000
00000000
00700000
00FC0000
01FF0000
03FFC000
07FFE000
07FFF800
0FFFFC00
0FFFFC00
1FFFFE00
1FFFFF00
1FFFFF00
3FFFFF80
3FFFFF80
7FFFFFC0
7FFFFFC0
7FF0FFE0
FFE07FE0
FFE07FE0
FFC07FF0
FFC07FF0
FFC07FF0
FFC07FF0
FFE07FF0
FFF0FFF0
FFF9FFF0
7FFFFFF0
7FFFFFE0
7FFFFFE0
7FFFFFE0
3FFFFFE0
3FFFFFE0
3FFFFFC0
1FFFFFC0
1FFFFFC0
0FFFFF80
07FFFF80
03FFFE00
00FFFC00
003FF000
ENDCHAR
STARTCHAR 0230
ENCODING 560
SWIDTH 522 0
DWIDTH 29 0
BBX 28 50 1 0
BITMAP
3FFFC000
3FFFC000
3FFFC000
3FFFC000
00000000
00F00000
01F80000
01F80000
01F80000
00F00000
00000000
00700000
00FC0000
01FF0000
03FFC000
07FFE000
07FFF800
0FFFFC00
0FFFFC00
1FFFFE00
1FFFFF00
1FFFFF00
3FFFFF80
3FFFFF80
7FFFFFC0
7FFFFFC0
7FF0FFE0
FFE07FE0
FFE07FE0
FFC07FF0
FFC07FF0
FFC07FF0
FFC07FF0
FFE07FF0
FFF0FFF0
FFF9FFF0
7FFFFFF0
7FFFFFE0
7FFFFFE0
7FFFFFE0
3FFFFFE0
3FFFFFE0
3FFFFFC0
1FFFFFC0
1FFFFFC0
0FFFFF80
07FFFF80
03FFFE00
00FFFC00
003FF000
ENDCHAR
STARTCHAR 0231
ENCODING 561
SWIDTH 522 0
DWIDTH 29 0
BBX 28 50 1 0
BITMAP
3FFFC000
3FFFC000
3FFFC000
3FFFC000
00000000
00F00000
01F80000
01F80000
01F80000
00F00000
00000000
00700000
00FC0000
01FF0000
03FFC000
07FFE000
07FFF800
0FFFFC00
0FFFFC00
1FFFFE00
1FFFFF00
1FFFFF00
3FFFFF80
3FFFFF80
7FFFFFC0
7FFFFFC0
7FF0FFE0
FFE07FE0
FFE07FE0
FFC07FF0
FFC07FF0
FFC07FF0
FFC07FF0
FFE07FF0
FFF0FFF0
FFF9FFF0
7FFFFFF0
7FFFFFE0
7FFFFFE0
7FFFFFE0
3FFFFFE0
3FFFFFE0
3FFFFFC0
1FFFFFC0
1FFFFFC0
0FFFFF80
07FFFF80
03FFFE00
00FFFC00
003FF000
ENDCHAR
STARTCHAR 0232
ENCODING 562
SWIDTH 612 0
DWIDTH 34 0
BBX 32 45 1 0
BITMAP
007FFF00
00FFFF00
00FFFF00
00FFFF80
00FFFF80
00200000
00000000
000000FF
010003FF
078001FE
7FC003FE
FFC007FE
FFE007FC
7FE007FC
7FF00FF8
3FF00FF8
3FF81FF0
1FF81FF0
1FFC3FE0
0FFC7FE0
0FFE7FC0
07FEFFC0
07FEFF80
03FFFF80
03FFFF00
01FFFF00
01FFFE00
00FFFE00
00FFFE00
007FFC00
007FFC00
003FF800
003FF000
001FF000
000FF000
000FF000
000FF000
000FF800
000FF800
000FF800
000FF800
000FF800
000FF800
000FF800
000FE000
ENDCHAR
STARTCHAR 0233
ENCODING 563
SWIDTH 612 0
DWIDTH 34 0
BBX 32 45 1 0
BITMAP
007FFF00
00FFFF00
00FFFF00
00FFFF80
00FFFF80
00200000
00000000
000000FF
010003FF
078001FE
7FC003FE
FFC007FE
FFE007FC
7FE007FC
7FF00FF8
3FF00FF8
3FF81FF0
1FF81FF0
1FFC3FE0
0FFC7FE0
0FFE7FC0
07FEFFC0
07FEFF80
03FFFF80
03FFFF00
01FFFF00
01FFFE00
00FFFE00
00FFFE00
007FFC00
007FFC00
003FF800
003FF000
001FF000
000FF000
000FF000
000FF000
000FF800
000FF800
000FF800
000FF800
000FF800
000FF800
000FF800
000FE000
ENDCHAR
STARTCHAR 0241
ENCODING 577
SWIDTH 450 0
DWIDTH 25 0
BBX 24 39 1 0
BITMAP
07FE00
1FFFF0
3FFFFC
3FFFFE
7FFFFE
7FFFFE
FFFFFF
FFFFFF
FFCFFF
FF03FF
7C01FF
1001FF
0001FF
0001FF
0001FF
0001FF
0003FF
0003FE
000FFE
001FFE
007FFC
01FFF8
01FFE0
03FFC0
03FF80
03FF00
03FE00
03FE00
03FE00
03FC00
03FC00
03FC00
03FC00
03FC00
03FC00
03FC00
03FC00
03FC00
03FC00
ENDCHAR
STARTCHAR 0242
ENCODING 578
SWIDTH 450 0
DWIDTH 25 0
BBX 24 39 1 0
BITMAP
07FE00
1FFFF0
3FFFFC
3FFFFE
7FFFFE
7FFFFE
FFFFFF
FFFFFF
FFCFFF
FF03FF
7C01FF
1001FF
0001FF
0001FF
0001FF
0001FF
0003FF
0003FE
000FFE
001FFE
007FFC
01FFF8
01FFE0
03FFC0
03FF80
03FF00
03FE00
03FE00
03FE00
03FC00
03FC00
03FC00
03FC00
03FC00
03FC00
03FC00
03FC00
03FC00
03FC00
ENDCHAR
STARTCHAR 0243
ENCODING 579
SWIDTH 504 0
DWIDTH 28 0
BBX 27 38 1 0
BITMAP
0FFC0000
7FFFC000
FFFFE000
FFFFF000
FFFFF000
FFFFF800
FFFFFC00
FFFFFC00
7FEFFC00
7FC3FC00
7FC1FC00
7FC1FC00
3FC1FC00
3FE1FC00
3FE1F800
3FF3F800
3FFFF000
3FFFE000
3FFFF800
3FFFFE00
3FFFFF00
3FFFFF80
3FFFFFC0
1FFA3FC0
1FFF3FE0
FFFF3FE0
FFFF3FE0
FFFF3FE0
FFFFFFE0
FFFCFFE0
FFFFFFC0
0FFFFFC0
0FFFFF80
0FFFFF00
0FFFFE00
0FFFF800
0FFF8000
00800000
ENDCHAR
STARTCHAR 0244
ENCODING 580
SWIDTH 576 0
DWIDTH 32 0
BBX 31 37 1 1
BITMAP
0F800400
0FF80FF8
0FF80FF8
0FF00FF8
1FF007F8
1FF007F8
1FF007F8
1FF007F8
FFFFFFFC
FFFFFFFC
FFFFFFFC
FFFFFFFC
FFFFFFFC
FFFFFFFE
FFFFFFFC
7FE00FF8
7FE00FF8
7FE01FF8
7FF01FFC
7FF01FFC
7FF81FF8
7FFE3FF8
7FFFFFF8
7FFFFFF0
7FFFFFF0
3FFFFFF0
3FFFFFE0
3FFFFFE0
3FFFFFE0
1FFFFFC0
1FFFFF80
0FFFFF00
07FFFF00
07FFFE00
03FFFC00
00FFF800
001FF000
ENDCHAR
STARTCHAR 0253
ENCODING 595
SWIDTH 666 0
DWIDTH 37 0
BBX 36 38 1 0
BITMAP
003FFE0000
07FFFFC000
0FFFFFF000
1FFFFFF800
3FFFFFF800
3FFFFFFC00
7FFFFFFC00
7FFFFFFE00
7FFFE7FE00
FFFFE1FE00
FF3FE0FE00
FE3FE0FE00
FC3FE0FE00
FC3FE0FC00
FC3FF1FC00
FE3FFBFC00
7E1FFFF800
7F9FFFF000
7F9FFFF800
3F9FFFFF00
3F9FFFFF80
1F9FFFFFC0
1F9FFFFFC0
0F9FFC3FE0
001FFC1FE0
000FFC1FF0
000FFC3FF0
000FFC3FF0
000FFC7FF0
000FFDFFE0
000FFFFFE0
000FFFFFE0
000FFFFFC0
0007FFFF00
0007FFFF00
0007FFFC00
0007FFC000
0000400000
ENDCHAR
STARTCHAR 0254
ENCODING 596
SWIDTH 486 0
DWIDTH 27 0
BBX 25 37 1 0
BITMAP
00F00000
0FFE0000
1FFFC000
7FFFF000
FFFFF800
FFFFFC00
FFFFFE00
FFFFFE00
FFFFFF00
FFFFFF00
7FFFFF80
003FFF80
000FFF80
0007FF80
0003FF80
0003FF80
0003FF80
0003FF80
0003FF80
0003FF80
0007FF80
7C0FFF80
7FFFFF80
FFFFFF80
FFFFFF80
FFFFFF80
FFFFFF00
7FFFFF00
7FFFFF00
7FFFFE00
FFFFFE00
7FFFFC00
3FFFFC00
1FFFF800
1FFFF800
07FFC000
01FF0000
ENDCHAR
STARTCHAR 0256
ENCODING 598
SWIDTH 486 0
DWIDTH 27 0
BBX 27 38 0 0
BITMAP
07F80000
1FFF0000
1FFFC000
1FFFF000
1FFFF800
1FFFFC00
1FFFFE00
1FFFFE00
1FFFFF00
1FFFFF80
1FFDFF80
1FF83FC0
1FFF1FC0
1FFF1FC0
7FFF9FC0
FFFF9FE0
FFFF9FE0
FFFF9FE0
FFFFBFC0
FFFF3FC0
FFF87F80
7FFCFF80
0FFDFF80
07FFFF00
07FFFF00
07FFFE00
07FFFE00
07FFFC00
03FFF800
03FFF800
03FFF000
03FFE000
03FFC000
01FF8000
01FE0000
01F80000
01E00000
00800000
ENDCHAR
STARTCHAR 0257
ENCODING 599
SWIDTH 630 0
DWIDTH 35 0
BBX 34 38 1 0
BITMAP
003FF00000
07FFFE0000
0FFFFF8000
1FFFFFE000
3FFFFFF000
3FFFFFF800
7FFFFFF800
7FFFFFFC00
7FFFFFFE00
FFFFFFFF00
FF3FFBFF00
FE3FF0FF80
FC3FF03F80
FC3FF03F80
FC3FF03F80
FE3FF03FC0
7E3FF03FC0
7FBFF03FC0
7F9FF07F80
3F9FF07F80
3F9FF0FF00
1F9FF9FF00
1F9FFBFE00
0F9FFFFE00
000FFFFE00
000FFFFC00
000FFFFC00
000FFFF800
000FFFF000
0007FFF000
0007FFE000
0007FFC000
0007FF8000
0003FF0000
0003FC0000
0003F00000
0003C00000
0001000000
ENDCHAR
STARTCHAR 0259
ENCODING 601
SWIDTH 486 0
DWIDTH 27 0
BBX 25 37 1 1
BITMAP
03FF0000
0FFF8000
3FFFE000
7FFFE000
7FFFF000
FFFFF800
FFFFF800
7FFFFC00
3F3FFC00
0003FE00
0001FE00
0000FE00
00007F00
00007F00
0000FF00
FFFFFF00
7FFFFF00
FFFFFF00
FFFFFF80
FFFFFF80
7FFFFF80
7FFFFF80
7FC0FF80
7FC0FF80
7FC1FF80
7FE3FF80
7FFFFF80
7FFFFF80
7FFFFF80
7FFFFF80
7FFFFF80
3FFFFF00
1FFFFF00
0FFFFE00
07FFFC00
03FFF800
007FF000
ENDCHAR
STARTCHAR 025B
ENCODING 603
SWIDTH 486 0
DWIDTH 27 0
BBX 26 39 1 0
BITMAP
00FE0000
03FFC000
07FFF000
1FFFF800
1FFFFC00
3FFFFE00
7FFFFE00
7FFFFE00
FFF80000
FFE00000
FFE00000
FFC00000
FFC00000
FFC00000
7FC00000
7FE00000
3FF86000
3FFFF000
1FFFF000
0FFFF000
07FFF000
0FFFF000
1FFFC000
1FF80000
3FF00000
3FF00000
3FE00000
3FE00000
3FF00080
3FF00780
3FFC7FC0
3FFFFFC0
1FFFFF80
1FFFFF80
0FFFFF80
07FFFF00
03FFFE00
01FFFC00
001FE000
ENDCHAR
STARTCHAR 0260
ENCODING 608
SWIDTH 504 0
DWIDTH 28 0
BBX 26 47 1 1
BITMAP
000007C0
00007FC0
0000FFC0
0001FFC0
0003FFC0
0007FFC0
0007FFC0
000FFF00
000FFE00
000FFC00
003FFC00
007FFC00
00FFFE00
01FFFF00
03FFFF80
03FFFF80
07FFFF80
0FFFFF80
0FFE7F00
0FF00000
1FE00000
1FC00000
1FC00000
3FC00000
3F800000
3F800000
3F807FC0
7F03FFC0
7F07FFC0
7F03FFC0
7F03FFC0
7F83FFC0
FF81FFC0
FF81FFC0
FF81FFC0
FFC3FFC0
FFFFFFC0
FFFFFFC0
FFFFFFC0
FFFFFFC0
FFFFFF80
7FFFFF00
7FFFFC00
3FFFF000
1FFFE000
0FFF8000
03FC0000
ENDCHAR
STARTCHAR 0263
ENCODING 611
SWIDTH 612 0
DWIDTH 34 0
BBX 32 44 1 -7
BITMAP
FF800080
FF8001E0
FF8003FE
7FC003FF
7FC007FF
3FC007FE
3FC007FE
3FE00FFC
3FE00FFC
1FE01FF8
1FF01FF8
1FF01FF0
0FF83FF0
0FF83FF0
07F87FE0
07FC7FE0
03FC7FC0
03FE7FC0
01FEFFC0
01FFFF80
00FFFF80
007FFF00
007FFF00
003FFE00
003FFC00
001FF800
003FF800
007FFC00
007FFE00
00FFFE00
00FFFE00
01FCFE00
01FC7E00
01F87E00
01F83E00
01F83E00
01F87E00
01FCFE00
01FFFC00
00FFFC00
007FF800
003FF000
001FE000
000F8000
ENDCHAR
STARTCHAR 0268
ENCODING 616
SWIDTH 360 0
DWIDTH 20 0
BBX 18 37 1 1
BITMAP
07FFC0
07FFC0
07FF80
07FF80
07FF80
07FF00
07FF00
07FF00
0FFF00
0FFF00
0FFF00
0FFF00
0FFF00
0FFF00
0FFF80
FFFFC0
FFFFC0
FFFFC0
FFFFC0
FFFFC0
FFFFC0
FFFFC0
1FFE00
1FFE00
1FFE00
1FFE00
1FFF00
1FFF00
1FFF00
1FFF00
1FFE00
1FFE00
1FFC00
3FFE00
3FFC00
7FF800
7E0000
ENDCHAR
STARTCHAR 0272
ENCODING 626
SWIDTH 558 0
DWIDTH 31 0
BBX 34 44 -3 -7
BITMAP
003E003F00
00FFE1FF80
01FFE1FFC0
01FFE1FFC0
01FFE1FF80
01FFE1FF80
01FFE1FF80
01FFE1FF80
03FFE1FF80
03FFE1FF80
03FFF3FF80
03FFF1FF80
03FFF1FF80
03FFF1FF00
03FFFBFF00
07FFFBFF00
07FFFBFF00
07FFFBFF00
07FFFFFF00
07FFFFFF00
07FFFFFF00
07FFFFFF00
07FF7FFF00
07FF7FFF00
07FF7FFE00
07FF3FFE00
07FF3FFE00
07FE1FFE00
07FE1FFE00
07FE1FFE00
0FFE0FFE00
0FFE0FFE00
0FFE0FFE00
0FFC0FFE00
0FFC0FFE00
0FFC07FC00
1FFC000000
FFF8000000
FFF8000000
FFF8000000
FFF0000000
FFC0000000
FFC0000000
FF00000000
ENDCHAR
STARTCHAR 0278
ENCODING 632
SWIDTH 648 0
DWIDTH 36 0
BBX 35 44 1 -3
BITMAP
0007FE0000
0007FE0000
0007FF0000
0007FF0000
0007FF0000
03FFFFFC00
0FFFFFFF00
1FFFFFFF00
3FFFFFFF80
3FFFFFFF80
3FFFFFFFC0
7FFFFFFFC0
7FFFFFFFC0
7FFFFFFFC0
7FFFFFFFC0
FFF7FFFFE0
FFE7FCFFE0
FFC7FCFFE0
FFC7FCFFE0
FF87FC7FE0
FF8FFC7FE0
FF8FFC7FE0
FFCFFC7FE0
FFCFFC7FE0
FFCFFC7FC0
FFCFF8FFC0
FFEFF8FFC0
FFEFF9FFC0
FFFFFBFF80
7FFFFFFF80
7FFFFFFF00
7FFFFFFF00
7FFFFFFE00
3FFFFFFC00
3FFFFFFC00
3FFFFFF800
1FFFFFF000
0F9FFFE000
001FF3C000
003FE00000
003FE00000
003FE00000
003FE00000
0003000000
ENDCHAR
STARTCHAR 0289
ENCODING 649
SWIDTH 576 0
DWIDTH 32 0
BBX 31 37 1 1
BITMAP
0F800400
0FF80FF8
0FF80FF8
0FF00FF8
1FF007F8
1FF007F8
1FF007F8
1FF007F8
FFFFFFFC
FFFFFFFC
FFFFFFFC
FFFFFFFC
FFFFFFFC
FFFFFFFE
FFFFFFFC
7FE00FF8
7FE00FF8
7FE01FF8
7FF01FFC
7FF01FFC
7FF81FF8
7FFE3FF8
7FFFFFF8
7FFFFFF0
7FFFFFF0
3FFFFFF0
3FFFFFE0
3FFFFFE0
3FFFFFE0
1FFFFFC0
1FFFFF80
0FFFFF00
07FFFF00
07FFFE00
03FFFC00
00FFF800
001FF000
ENDCHAR
STARTCHAR 028B
ENCODING 651
SWIDTH 558 0
DWIDTH 31 0
BBX 29 38 1 1
BITMAP
0000E000
0203F800
FE0FFC00
FE0FFE00
FF07FF00
FF03FF80
FF03FF80
FF01FFC0
FF80FFE0
FF807FE0
FF803FF0
FF803FF0
FF801FF0
FFC01FF8
FFC01FF8
FFC01FF8
FFC01FF8
FFC01FF8
FFE01FF8
7FE01FF8
7FE01FF8
7FF03FF8
7FF03FF8
3FF8FFF8
3FFFFFF8
3FFFFFF8
1FFFFFF8
1FFFFFF0
1FFFFFF0
0FFFFFF0
0FFFFFE0
07FFFFE0
03FFFFC0
01FFFFC0
01FFFF80
00FFFF00
007FFC00
003FE000
ENDCHAR
STARTCHAR 0292
ENCODING 658
SWIDTH 486 0
DWIDTH 27 0
BBX 26 39 1 -1
BITMAP
0FFFF800
7FFFFC00
7FFFFE00
3FFFFE00
3FFFFE00
3FFFFC00
0F1FFC00
0001F800
0003F000
000FE000
001FE000
003FC000
00FF8000
01FFE000
03FFF800
07FFFC00
1FFFFE00
1FFFFF00
1FFFFF00
07FFFF00
0000FF80
00007F80
00003F80
00003F80
00001FC0
00001FC0
00003FC0
F8003FC0
FF807FC0
FFFBFF80
FFFFFF80
FFFFFF80
FFFFFF00
FFFFFE00
7FFFFE00
1FFFFC00
07FFF000
01FFC000
001F0000
ENDCHAR
STARTCHAR 0294
ENCODING 660
SWIDTH 450 0
DWIDTH 25 0
BBX 24 39 1 0
BITMAP
07FE00
1FFFF0
3FFFFC
3FFFFE
7FFFFE
7FFFFE
FFFFFF
FFFFFF
FFCFFF
FF03FF
7C01FF
1001FF
0001FF
0001FF
0001FF
0001FF
0003FF
0003FE
000FFE
001FFE
007FFC
01FFF8
01FFE0
03FFC0
03FF80
03FF00
03FE00
03FE00
03FE00
03FC00
03FC00
03FC00
03FC00
03FC00
03FC00
03FC00
03FC00
03FC00
03FC00
ENDCHAR
STARTCHAR 0295
ENCODING 661
SWIDTH 450 0
DWIDTH 25 0
BBX 24 39 1 0
BITMAP
007FC0
0FFFF0
3FFFF8
7FFFFC
7FFFFE
FFFFFE
FFFFFE
FFFFFF
FFF3FF
FFC0FF
FF803E
FF8008
FF8000
FF8000
FF8000
FF8000
FF8000
7FC000
7FE000
7FF800
3FFE00
1FFF80
07FF80
03FFC0
01FFC0
00FFC0
007FC0
007FC0
007FC0
007FC0
007FC0
007FC0
007FC0
007FC0
007FC0
003FC0
003FC0
003FC0
003FC0
ENDCHAR
STARTCHAR 0296
ENCODING 662
SWIDTH 450 0
DWIDTH 25 0
BBX 24 39 1 0
BITMAP
03FC00
03FC00
03FC00
03FC00
03FC00
03FC00
03FC00
03FC00
03FC00
03FC00
03FE00
03FE00
03FE00
03FF00
03FF80
03FFC0
01FFE0
01FFF8
007FFC
001FFE
000FFE
0003FE
0003FF
0001FF
0001FF
0001FF
0001FF
1001FF
7C01FF
FF03FF
FFCFFF
FFFFFF
FFFFFF
7FFFFE
7FFFFE
3FFFFE
3FFFFC
0FFFF0
07FC00
ENDCHAR
STARTCHAR 02B9
ENCODING 697
SWIDTH 198 0
DWIDTH 11 0
BBX 10 20 1 20
BITMAP
1FC0
1FC0
1FC0
1FC0
3F80
3F80
3F80
3F00
3F00
7F00
7E00
7E00
7E00
7C00
FC00
FC00
F800
F800
F800
1800
ENDCHAR
ENDFONT
